<?xml version="1.0" encoding="UTF-8"?>
<svg width="1em" height="1em" fill="#000000" version="1.1" viewBox="0 0 16 16" xmlns="http://www.w3.org/2000/svg">
    <path d="m1.5 5.4539a0.56486 0.56486 0 0 0 0.28353 0.48874v0.00111l3.6132 2.4724 3.0207-3.0207-2.4856-3.633-0.0011328-0.0011143a0.56486 0.56486 0 0 0-0.47657-0.26147 0.56486 0.56486 0 0 0-0.40158 0.16769l-3.3727 3.3737-0.00221 0.00223a0.56486 0.56486 0 0 0-0.17762 0.41038zm4.5189 5.5869c0 0.83996 0.32009 1.6804 0.96089 2.3213l2.7923-2.7912 3.7554 3.7554a0.56492 0.56492 0 1 0 0.79876-0.79875l-3.7555-3.7555 2.7912-2.7923c-1.2817-1.2817-3.3597-1.2817-4.6414 0l-1.7409 1.7409c-0.64084 0.64084-0.96089 1.4802-0.96089 2.3201z"
          fill="#6e6e6e" stroke-width=".56486"/>
</svg>
