<?xml version="1.0" encoding="UTF-8"?>
<svg width="1em" height="1em" fill="none" version="1.1" viewBox="0 0 16 16" xmlns="http://www.w3.org/2000/svg">
    <path d="m13.688 1h-8.75c-0.7246 0-1.3125 0.58789-1.3125 1.3125v1.3125h-1.3125c-0.72461 0-1.3125 0.5879-1.3125 1.3125v8.75c0 0.72459 0.58789 1.3125 1.3125 1.3125h8.75c0.72459 0 1.3125-0.58791 1.3125-1.3125v-1.3125h1.3125c0.72459 0 1.3125-0.58791 1.3125-1.3125v-8.75c0-0.72461-0.58791-1.3125-1.3125-1.3125zm-2.625 12.688h-8.75v-5.6875h8.75zm2.625-2.625h-1.3125v-6.125c0-0.7246-0.58791-1.3125-1.3125-1.3125h-6.125v-1.3125h8.75z"
          fill="#6e6e6e" stroke-width=".875"/>
</svg>
