<?xml version="1.0" encoding="UTF-8"?>
<svg width="788" height="886" color-interpolation="auto" color-rendering="auto" fill="black" font-family="'Dialog'" font-size="12px" image-rendering="auto" shape-rendering="auto" stroke="black" stroke-linecap="square" stroke-miterlimit="10" text-rendering="auto" version="1.1" xmlns="http://www.w3.org/2000/svg">
 <!--Generated by ySVG 2.6-->
 <rect x="5.8748" y="6.4195" width="775.49" height="873.75" fill="#fbfbfb" stroke="#59a869" style="paint-order:stroke fill markers"/>
 <g shape-rendering="geometricPrecision" text-rendering="geometricPrecision">
  <g transform="translate(494,552)" fill="#d2d2d2" stroke="#d2d2d2">
   <rect x="-468.17" y="-532.09" width="436.06" height="851" clip-path="url(#clipPath2)" stroke="none"/>
  </g>
  <g transform="translate(490,548)" fill="#f2f0d8" stroke="none">
   <rect x="-468.17" y="-532.09" width="436.06" height="851" clip-path="url(#clipPath3)"/>
   <rect x="-468.17" y="-532.09" width="436.06" height="29.609" clip-path="url(#clipPath3)" fill="#b7b69e"/>
  </g>
  <g transform="translate(490,548)" font-family="sans-serif" font-size="22px" stroke-linecap="butt" stroke-miterlimit="1.45">
   <text x="-324.7702" y="-509.66849" clip-path="url(#clipPath3)" stroke="none" xml:space="preserve">OSGI plugins</text>
   <rect x="-468.17" y="-532.09" width="436.06" height="851" clip-path="url(#clipPath3)" fill="none"/>
  </g>
  <g transform="translate(495,553)" fill="#b8b0a3" stroke="#b8b0a3">
   <rect x="10.223" y="-315.5" width="267" height="53" rx="4" ry="4" clip-path="url(#clipPath4)" stroke="none"/>
  </g>
  <g transform="translate(490,548)" fill="#ededec" stroke="#ededec">
   <rect x="10.223" y="-315.5" width="267" height="53" rx="4" ry="4" clip-path="url(#clipPath3)" stroke="none"/>
  </g>
  <g transform="translate(490,548)" font-family="sans-serif" font-size="14px" stroke-linecap="butt" stroke-miterlimit="1.45">
   <text x="68.814796" y="-292.30179" clip-path="url(#clipPath3)" stroke="none" xml:space="preserve">Weasis Launcher and</text>
   <text x="39.550098" y="-276.00491" clip-path="url(#clipPath3)" stroke="none" xml:space="preserve">Apache Felix OSGi framework</text>
   <rect x="10.223" y="-315.5" width="267" height="53" rx="4" ry="4" clip-path="url(#clipPath3)" fill="none"/>
  </g>
  <g transform="translate(495,553)" fill="#b8b0a3" stroke="#b8b0a3">
   <rect x="-389.17" y="81.353" width="134" height="53" rx="4" ry="4" clip-path="url(#clipPath4)" stroke="none"/>
  </g>
  <g transform="translate(490,548)" fill="#9f9" stroke="#9f9">
   <rect x="-389.17" y="81.353" width="134" height="53" rx="4" ry="4" clip-path="url(#clipPath3)" stroke="none"/>
  </g>
  <g transform="translate(490,548)" font-family="sans-serif" font-size="14px" stroke-linecap="butt" stroke-miterlimit="1.45">
   <text x="-343.93619" y="104.5511" clip-path="url(#clipPath3)" stroke="none" xml:space="preserve">Codec</text>
   <text x="-349.39819" y="120.848" clip-path="url(#clipPath3)" stroke="none" xml:space="preserve">[Codec]</text>
   <rect x="-389.17" y="81.353" width="134" height="53" rx="4" ry="4" clip-path="url(#clipPath3)" fill="none"/>
  </g>
  <g transform="translate(495,553)" fill="#b8b0a3" stroke="#b8b0a3">
   <rect x="-453" y="-70.945" width="261.67" height="53" rx="4" ry="4" clip-path="url(#clipPath4)" stroke="none"/>
  </g>
  <g transform="translate(490,548)" fill="#ff8f45" stroke="#ff8f45">
   <rect x="-453" y="-70.945" width="261.67" height="53" rx="4" ry="4" clip-path="url(#clipPath3)" stroke="none"/>
  </g>
  <g transform="translate(490,548)" font-family="sans-serif" font-size="14px" stroke-linecap="butt" stroke-miterlimit="1.45">
   <text x="-370.405" y="-47.746399" clip-path="url(#clipPath3)" stroke="none" xml:space="preserve">Data Explorer</text>
   <text x="-442.948" y="-31.4496" clip-path="url(#clipPath3)" stroke="none" xml:space="preserve">[DataExplorerView,ExplorerModel]</text>
   <rect x="-453" y="-70.945" width="261.67" height="53" rx="4" ry="4" clip-path="url(#clipPath3)" fill="none"/>
  </g>
  <g transform="translate(535.74 553)" fill="#b8b0a3" stroke="#b8b0a3">
   <rect x="-429.9" y="202.68" width="134" height="53" rx="4" ry="4" clip-path="url(#clipPath4)" stroke="none"/>
  </g>
  <g transform="translate(530.74 548)" fill="#7497ff" stroke="#7497ff">
   <rect x="-429.9" y="202.68" width="134" height="53" rx="4" ry="4" clip-path="url(#clipPath3)" stroke="none"/>
  </g>
  <g transform="translate(530.74 548)" font-family="sans-serif" font-size="14px" stroke-linecap="butt" stroke-miterlimit="1.45">
   <text transform="translate(14)" x="-419.53961" y="234.02901" clip-path="url(#clipPath3)" stroke="none" xml:space="preserve">Weasis Core</text>
   <rect x="-429.9" y="202.68" width="134" height="53" rx="4" ry="4" clip-path="url(#clipPath3)" fill="none"/>
  </g>
  <g transform="translate(495,553)" fill="#b8b0a3" stroke="#b8b0a3">
   <rect x="-412.67" y="-223.24" width="181" height="53" rx="4" ry="4" clip-path="url(#clipPath4)" stroke="none"/>
  </g>
  <g transform="translate(490,548)" fill="#c9f" stroke="#c9f">
   <rect x="-412.67" y="-223.24" width="181" height="53" rx="4" ry="4" clip-path="url(#clipPath3)" stroke="none"/>
  </g>
  <g transform="translate(490,548)" font-family="sans-serif" font-size="14px" stroke-linecap="butt" stroke-miterlimit="1.45">
   <text x="-375.60709" y="-200.04401" clip-path="url(#clipPath3)" stroke="none" xml:space="preserve">Weasis Base UI</text>
   <text x="-406.08859" y="-183.7471" clip-path="url(#clipPath3)" stroke="none" xml:space="preserve">(UI plugins aggregator)</text>
   <rect x="-412.67" y="-223.24" width="181" height="53" rx="4" ry="4" clip-path="url(#clipPath3)" fill="none"/>
  </g>
  <g transform="translate(495,553)" fill="#b8b0a3" stroke="#b8b0a3">
   <rect x="-405.67" y="-390.23" width="167" height="53" rx="4" ry="4" clip-path="url(#clipPath4)" stroke="none"/>
  </g>
  <g transform="translate(490,548)" fill="#fc9" stroke="#fc9">
   <rect x="-405.67" y="-390.23" width="167" height="53" rx="4" ry="4" clip-path="url(#clipPath3)" stroke="none"/>
  </g>
  <g transform="translate(490,548)" font-family="sans-serif" font-size="14px" stroke-linecap="butt" stroke-miterlimit="1.45">
   <text x="-346.11691" y="-367.03409" clip-path="url(#clipPath3)" stroke="none" xml:space="preserve">Viewer</text>
   <text x="-373.0061" y="-350.7373" clip-path="url(#clipPath3)" stroke="none" xml:space="preserve">[ViewerPlugin]</text>
   <rect x="-405.67" y="-390.23" width="167" height="53" rx="4" ry="4" clip-path="url(#clipPath3)" fill="none"/>
  </g>
  <g transform="translate(495,553)" fill="#b8b0a3" stroke="#b8b0a3">
   <rect x="-291.76" y="-473.23" width="167" height="53" rx="4" ry="4" clip-path="url(#clipPath4)" stroke="none"/>
  </g>
  <g transform="translate(490,548)" fill="#ffde57" stroke="#ffde57">
   <rect x="-291.76" y="-473.23" width="167" height="53" rx="4" ry="4" clip-path="url(#clipPath3)" stroke="none"/>
  </g>
  <g transform="translate(490,548)" font-family="sans-serif" font-size="14px" stroke-linecap="butt" stroke-miterlimit="1.45">
   <text x="-268.70261" y="-450.03409" clip-path="url(#clipPath3)" stroke="none" xml:space="preserve">Viewer Tool Pane</text>
   <text x="-261.07031" y="-433.7373" clip-path="url(#clipPath3)" stroke="none" xml:space="preserve">[DockableTool]</text>
   <rect x="-291.76" y="-473.23" width="167" height="53" rx="4" ry="4" clip-path="url(#clipPath3)" fill="none"/>
  </g>
  <g transform="translate(495,553)" fill="#b8b0a3" stroke="#b8b0a3">
   <rect x="-186.17" y="-390.23" width="120.34" height="53" rx="4" ry="4" clip-path="url(#clipPath4)" stroke="none"/>
  </g>
  <g transform="translate(490,548)" fill="#ffde57" stroke="#ffde57">
   <rect x="-186.17" y="-390.23" width="120.34" height="53" rx="4" ry="4" clip-path="url(#clipPath3)" stroke="none"/>
  </g>
  <g transform="translate(490,548)" font-family="sans-serif" font-size="14px" stroke-linecap="butt" stroke-miterlimit="1.45">
   <text x="-154.9808" y="-367.03409" clip-path="url(#clipPath3)" stroke="none" xml:space="preserve">Tool Bar</text>
   <text x="-157.8588" y="-350.7373" clip-path="url(#clipPath3)" stroke="none" xml:space="preserve">[Toolbar]</text>
   <rect x="-186.17" y="-390.23" width="120.34" height="53" rx="4" ry="4" clip-path="url(#clipPath3)" fill="none"/>
   <text x="-460.64001" y="309.06491" clip-path="url(#clipPath3)" font-size="12px" stroke="none" xml:space="preserve">[...] = Java abstract class or interface to implement</text>
  </g>
  <g transform="translate(667.75 493.57)">
   <g clip-path="url(#clipPath5)">
    <svg width="43" height="43" alignment-baseline="auto" clip="auto" clip-path="none" color="#000000" color-interpolation="srgb" color-interpolation-filters="linearrgb" color-profile="auto" color-rendering="auto" cursor="auto" dominant-baseline="auto" enable-background="new -0.751 -0.597 43 43" fill="#000000" flood-color="rgb(0, 0, 0)" font-family="Arial, Helvetica, sans-serif" font-size="12px" font-weight="400" glyph-orientation-vertical="auto" image-rendering="auto" kerning="auto" lighting-color="rgb(255, 255, 255)" overflow="hidden" pointer-events="visiblepainted" shape-rendering="auto" stop-color="#000000" stroke="none" stroke-linecap="butt" stroke-miterlimit="4" text-rendering="auto" style="text-decoration-line:none" src="none" version="1.1" viewBox="-0.751 -0.597 43 43" xml:space="preserve">
<defs>
<clipPath id="clipPath2"><path d="m-494-552h788v886h-788z"/></clipPath><clipPath id="clipPath3"><path d="m-490-548h788v886h-788z"/></clipPath><clipPath id="clipPath4"><path d="m-495-553h788v886h-788z"/></clipPath><clipPath id="clipPath5"><path d="m-667.75-493.57h788v886h-788z"/></clipPath><clipPath id="clipPath6"><path d="m-493.18-485.51h778.15v880.86h-778.15z"/></clipPath><clipPath id="clipPath7"><path d="m448.8-35.347v788h-886v-788z"/></clipPath><clipPath id="clipPath8"><path d="m337.04-726.91 132 776.87-873.48 148.41-132-776.87z"/></clipPath><clipPath id="clipPath9"><path d="m340.24-590.38 168.37 769.8-865.54 189.31-168.37-769.8z"/></clipPath></defs>
<radialGradient id="svg1.SVGID_1_" cx="216.26" cy="775.96" r="29.184" gradientTransform="translate(-195.2 -770.8)" gradientUnits="userSpaceOnUse">
	<stop stop-color="#D9F1FF" offset="0"/>
	<stop stop-color="#3C89C9" offset="1"/>
</radialGradient>
<circle cx="20.86" cy="20.86" r="19.593" fill="url(#svg1.SVGID_1_)"/><g fill="#3c89c9">
<path d="m38.507 16.634c0.018-0.064-0.143 0.028 0 0z"/>
<path d="m38.466 21.362c-0.257-7e-3 0 0.058 0 0z"/>
<path d="m36.857 22.39c3e-3 0.247 0.2 0.038 0 0z"/>
<path d="m38.532 22.418c-0.251 2e-3 0.015 0.059 0 0z"/>
<path d="m37.04 22.552c0.139 0 0.077-0.201 0 0z"/>
<path d="m36.619 22.174c0.311 0.086 1e-3 -0.143 0 0z"/>
<path d="m37.475 17.291c0.146 0.041 0.333-0.183 0.185-0.461-0.157-8e-3 -0.202 0.351-0.185 0.461z"/>
<path d="m38.587 22.519c-0.186 0.027-0.663 0.254-0.667 0.385 0.076 0.043 0.665-0.288 0.667-0.385z"/>
<path d="m37.983 19.059c-0.023 0.158 0.298 0.057 0 0z"/>
<path d="m35.4 20.837c0 0.049 0.076 0 0 0z"/>
<path d="m35.104 20.764c9e-3 0.016 0.014 0.031 0.022 0.047 0.032 9e-3 0.063-0.031-0.022-0.047z"/>
<path d="m25.319 21.403c0.025 0.07 0.145 0.025 0 0z"/>
<path d="m9.57 4.919c-0.022 3e-3 -0.199 0.062-0.161 0.043-0.019 0.113 0.273-0.032 0.328-0.034-6e-3 0.021-0.162 0.092-0.194 0.097-0.019 0.07-5e-3 0.205-5e-3 0.224 0.242-0.014 0.913-0.323 0.974-0.583 0.016 0 0.135 0.18 0.143 0.146-0.102 0.05-0.121 0.044-0.12 0.035-2e-3 3e-3 0 3e-3 -7e-3 0.012 0.061-0.024 0.112-0.029 0.161-0.027-0.191 0.034-0.607 0.277-0.596 0.274-0.021 0.168 0.354-0.094 0.41-0.101-0.047 0.197-0.105 0.218 0.145 0.189-0.059 0.05-0.074 0.072-0.042 0.066-0.023 0.097-0.432-0.044-0.573-0.013 1e-3 0.075 0.069 0.069 0.061 0.155-0.16 0.045-0.214 0.104-0.349 0.166-5e-3 0.064 0.021 0.057 0.015 0.121 0.207-0.025 0.48-0.019 0.7-0.237-0.03 0.134 0.19 0.126 0.229-0.048 0.073-7e-3 0.118 0.117 0.107 0.217 0.103-0.023 0.322-0.142 0.41-0.251-0.056-0.038-0.152-0.108-0.252-0.099 0.081-0.078 0.633-0.297 0.523-0.286-3e-3 0.016 0.242-0.141 0.275-0.154-2e-3 -0.216-0.331 0.016-0.438 0.027 0.033-0.062 0.113-0.108 0.088-0.121-0.067 5e-3 -0.126 9e-3 -0.124 0 0.082-9e-3 0.113-7e-3 0.125 0 0.081-7e-3 0.174-0.017 0.195-0.024 1e-3 -0.03-0.01-0.046-0.027-0.057 0.05 3e-3 0.102 0 0.118-0.035-0.084-0.01-0.156-0.02-0.222-0.027-0.152 0.01-0.854-0.096 0 0 0.032-1e-3 0.042-8e-3 0.01-0.022 0.242 0.03 0.637-5e-3 0.68-0.221 0.015 2e-3 0.027-0.01 0.034-0.035 0.022 5e-3 0.947-0.321 0.975-0.477-0.01 4e-3 -0.012 0-7e-3 -0.01-0.124 0.049-0.191 0.092-0.304 0.104 0.022-0.115 0.643-0.165 0.684-0.396-0.437 0.042-0.484-0.047-0.947 0.118-5e-3 0.03-0.025-3e-3 -0.024-8e-3 0.051-5e-3 0.289-0.131 0.325-0.223-0.037-8e-3 -0.251-0.05-0.268 0.029-0.013-4e-3 -0.986 0.199-1 0.229 0.039 0.011 0.159 0.06 0.1 0.133-0.021 7e-3 -0.023-0.011-5e-3 -0.05-0.226 0.026-0.243-0.071-0.444 0.034-0.016 0.1 0.146 0.045 0.133 0.096-0.019-7e-3 -0.027-3e-3 -0.029 0.013-0.056 0.027-0.146-0.065-0.23-0.095-0.018 0.01-0.036 0.02-0.054 0.029 5e-3 0.045 0.016 0.091 2e-3 0.152-0.022-0.026-0.065-0.057-0.116-0.085-0.09 0.052-0.183 0.103-0.272 0.156-0.01 0.017-0.021 0.032-0.026 0.054-0.027 4e-3 -0.043 0-0.053-7e-3 -8e-3 4e-3 -0.015 9e-3 -0.022 0.014-2e-3 0.01-1e-3 0.014-5e-3 0.035-8e-3 0-0.015-0.01-0.022-0.018-0.181 0.112-0.359 0.228-0.535 0.342 0.319 0.066 1.335-0.34 1.671-0.431-0.026 0.027-0.404 0.144-0.076 0.102 1e-3 -5e-3 -0.292 0.117-0.319 0.12 5e-3 0.041 0.026 0.06 0.061 0.057-0.176 0.034-0.438 0.044-0.457 0.125-0.041 5e-3 0.067 0.119 0.134 0.146-5e-3 6e-3 -0.011 8e-3 -0.015 0.025-0.18-0.022-0.416-0.498-0.694 0.044 0.023 5e-3 -0.128-0.086-0.318-0.179-0.196 0.129-0.388 0.262-0.58 0.399 0.062 3e-3 0.126-5e-3 0.116 0.026zm0.998 0.583c-0.125-0.023 0.036-0.153 0 0zm2.343-1.67c0.064 0.021-0.052 0.055 0 0zm-1.374 0.431c-7e-3 0.035-0.069 0.056-0.148 0.071 0.036-3e-3 0.085-0.025 0.148-0.071zm-0.702 0.94c-0.016 0.073-9e-3 -2e-3 0 0zm-0.047-0.346c-4e-3 6e-3 -8e-3 0.013-0.012 0.019 0-9e-3 -2e-3 -0.017-6e-3 -0.022 6e-3 1e-3 0.013 0 0.018 3e-3zm-0.107 0.23c0.028-4e-3 -0.022 0.095 0 0zm-0.857 0.022c0.021-2e-3 -0.019 0.077 0 0z"/>
<path d="m22.877 13.599c-2e-3 4e-3 0 0.021-2e-3 0.029 0.021 8e-3 0.046 8e-3 0.069 0.014-0.021-0.019-0.046-0.043-0.067-0.043z"/>
<path d="m38.163 15.469c-0.145 0.023-0.012 0.09 0 0z"/>
<path d="m23.071 13.667c-0.049-2e-3 -0.085-0.017-0.126-0.025 0.041 0.035 0.082 0.079 0.105 0.079-5e-3 -0.023 2e-3 -0.04 0.021-0.054z"/>
<path d="m38.328 19.411c-5e-3 -0.083-0.022-0.19-0.141-0.206 2e-3 0.024 0.089 0.206 0.141 0.206z"/>
<path d="m38.1 19.458c0.252 0.029 5e-3 -0.11 0 0z"/>
<path d="m32.675 5.392c0.043 5e-3 0.083 0 0.122-0.011-0.049-0.039-0.1-0.079-0.148-0.117-0.023 0.055-0.043 0.102-0.043 0.108 0.041-0.018 0.062-0.012 0.069 0.02z"/>
<path d="m33.923 19.841c-0.06-1e-3 2e-3 0.066 0 0z"/>
<path d="m33.796 18.986c-0.031-0.082-0.034 0 0 0z"/>
<path d="m35.792 33.473c-0.732-0.174-2.688 0.27-3.082 0.358-0.462-0.809-2.413 1.048-2.82 1.086 0.2-0.318-0.476-0.212-0.422-0.609-0.585 0.04-1.163-0.022-1.713 6e-3 0.363-0.542-0.656-0.427-0.901 0.196-0.521 0.024-1.257 0.736-1.423 0.741 0.051-0.705-1.72 0.104-2.083 0.192-0.215-0.503-3.248 0.069-3.243-0.117-0.965-5e-3 -2.046 1.027-2.925 0.992 5e-3 0.064 0.275 0.136 0.329 0.166-5e-3 0.047-5e-3 0.092 0 0.143 0.039 0.036-2.074 1.139-2.086 0.885-0.713-0.035-2.41-0.384-2.775-1.193 0.029 5e-3 0.032-0.021 8e-3 -0.074 0.01 5e-3 0.013 1e-3 8e-3 -9e-3 0.176 0.04 0.09-0.013 0.257-0.066-0.032-0.221-0.046-0.104 0.017-0.411-0.01 0-0.013-3e-3 -0.013-0.014-0.03-5e-3 -0.064 0.038-0.099 0.047 9e-3 -0.223-0.124-0.259-0.134-0.331 0.215 0.013-0.251-0.668-0.293-0.977-0.68 0.207-0.108-0.348-0.131-0.541 0.066 5e-3 0.089 0.143 0.148 0.146-0.03-0.067 9e-3 -0.207 0.083-0.346-0.325 0.19-0.681 0.394-0.652 0.597-0.347-0.025 0.169 1.254 0.092 1.247 0.092 0.563-1.257-0.149-1.343-0.155 0.026 0.064-0.029 0.104-6e-3 0.229-0.654-0.216-1.712-0.505-2.4-0.579-0.054-0.22-0.437-0.093-0.815 0.047 2.657 2.501 6.011 4.269 9.741 4.978 2.446 0.125 4.89 0.126 7.336 7e-3 4.52-0.855 8.49-3.26 11.34-6.641z"/>
<path d="m9.213 16.624c6e-3 -0.081-1e-3 -0.156-0.016-0.229-0.037 0.16-0.041 0.257 0.016 0.229z"/>
<path d="m33.774 18.734c-0.036 0.104 0.04 1e-3 0 0z"/>
<path d="m13.362 21.16c0.061 3e-3 0.154 0.031 0.264 0.072 0.062-0.358-0.202-0.207-0.264-0.072z"/>
<path d="m13.027 33.633c0.05-0.102-0.064-0.098-0.102-0.188-7e-3 0-6e-3 7e-3 -0.012 7e-3 0.048-0.049 0.082-0.098 0.078-0.141-0.15-0.049-0.37 0.195-0.493 0.432 0.15-0.091 0.288-0.178 0.38-0.256 0.014 0.044 0.103 0.119 0.149 0.146z"/>
<path d="m31.865 19.384c-0.181 1.219 0.567 5e-3 0 0z"/>
<path d="m28.391 24.749c-0.151 9e-3 0.054 0.214 0 0z"/>
<path d="m28.705 24.551c-0.164 0.041 6e-3 0.269 0 0z"/>
<path d="m29.854 6.451c-0.051-5e-3 -0.034 0.042 0.017 0.111-9e-3 -0.034-0.014-0.069-0.022-0.101 6e-3 5e-3 0.01 1e-3 5e-3 -0.01z"/>
<path d="m34.813 21.535c-0.026-0.074-0.05-0.012 0 0z"/>
<path d="m34.423 20.78c3e-3 0.282 0.026 0 0 0z"/>
<path d="m21.765 10.061c0 1e-3 -2e-3 3e-3 -4e-3 3e-3 4e-3 0.081 0.057-0.014 4e-3 -3e-3z"/>
<path d="m34.658 21.243c-0.062 0 0.031 0.34 0 0z"/>
<path d="m21.849 13.405c0.01-0.033 0.055-0.198 0.04-0.291-0.018-0.012-0.04-0.019-0.062-0.03-0.046 0.104-0.227 0.248 0.022 0.321z"/>
<path d="m34.179 20.558c0.058 0.104 0.088 0.021 0 0z"/>
<path d="m23.202 10.672c-0.028 0-0.051 5e-3 -0.022 0.019 9e-3 0 0.012 0 0.019-1e-3 1e-3 -3e-3 1e-3 -7e-3 3e-3 -0.018z"/>
<path d="m11.086 31.362c0.108 0.042 0.24 0.061 0.217-0.073-0.022-2e-3 -0.042-4e-3 -0.063-5e-3 -0.075 0.011-0.174 0.034-0.154 0.078z"/>
<path d="m10.205 29.578c0.014-0.014 0.014-0.026 0.022-0.038-6e-3 0-0.01-6e-3 -0.016-6e-3 0.027 0.038 0.024 0.052-6e-3 0.044z"/>
<path d="m28.144 18.871c0.036 0.049 0.231 0.04 0 0z"/>
<path d="m37.663 21.013c-0.012 0.104 2e-3 0.161 0.024 0.198 0.081-0.09 0.164-0.171 0.244-0.242-0.094 0.028-0.189 0.05-0.268 0.044z"/>
<path d="m38.016 22.536c-0.322-0.191-0.343 0.067-0.343 0.063 0.126-0.014 0.223-0.012 0.32-0.014-8e-3 -0.022 1e-3 -0.038 0.023-0.049z"/>
<path d="m38.351 16.566c0.01 0.084 0.051 2e-3 0 0z"/>
<path d="m37.823 19.911c0.174 2e-3 0.458-0.098 0.469 0.241 0.011-3e-3 0.014 0 0.011 0.01 0.113-0.025 0.042-0.118 0.029-0.172 0.084 0 0.031 0.051 0.077 0.052-0.012-0.269 0.065-0.163-9e-3 -0.498 0.023 0.102-0.041-8e-3 0 0-0.055-0.01-0.64 0.205-0.577 0.367z"/>
<path d="m38.298 19.217c0.153 0.086-0.125-0.194-0.035-0.193 2e-3 0.021-0.08-3e-3 0.035 0.193z"/>
<path d="m37.465 19.2c-0.035 0.011-0.331 0.417-0.329 0.476 0.198 3e-3 0.362-0.342 0.329-0.476z"/>
<path d="m38.086 18.97c-0.016-0.031-0.013-0.046 0.01-0.04 2e-3 0.044-0.261-0.34-0.381-0.636 0.02 0.268 0.162 0.426 0.165 0.488 0.089 1e-3 0.105 0.161 0.206 0.188z"/>
<path d="m37.715 18.293c-0.011-0.095 0-0.2 0.033-0.321-0.127-4e-3 -0.106 0.143-0.033 0.321z"/>
<path d="m39.622 22.269c2e-3 -0.044 0.061-0.151 0.06-0.151 0.016-0.248-0.191 0.152-0.06 0.151z"/>
<path d="m39.155 23.009c-0.031 0.076 0.1 0.021 0 0z"/>
<path d="m38.772 21.577c0 0.019-0.04 0.015-0.056 0.051 0.035-0.014 0.048-0.011 0.045 8e-3 0.051 0.034 0.339 0.047 0.317-0.029-0.12-7e-3 -0.197-0.02-0.306-0.03z"/>
<path d="m39.195 22.332c-0.179 0.043-5e-3 0.225 0 0z"/>
<path d="m39.167 21.282c-0.068 0 0.24 0.206 0.346 0.226-8e-3 2e-3 -0.029-4e-3 -0.025 8e-3 -0.07-0.015-0.117 0.042-0.211 8e-3 5e-3 0.011 0 0.013-0.013 0.011 0.105 0.296 1.003 0.173 0.991 0.86-0.064-0.047-0.157-0.024-0.188 0.071 0.091-0.014 0.173-0.015 0.254-0.015 0.02-0.256 0.039-0.512 0.048-0.77-0.486-0.253-0.896-0.429-0.896-0.448-0.09-0.019-0.27-0.053-0.306 0.049z"/>
<path d="m9.458 12.874c-9e-3 0.072 0.069 0.02 0 0z"/>
<path d="m35.872 17.875c0.03 0.501 0.385-0.059 0.388-0.06-0.052-0.202-0.315 0.033-0.388 0.06z"/>
<path d="m40.204 22.265c-0.069 0.018-2e-3 0.082 0 0z"/>
<path d="m38.046 14.887c-0.012-0.083-0.049-2e-3 0 0z"/>
<path d="m33.053 5.581c-0.102 0.018-0.14 0.064-0.085 0.273-0.103-0.02-0.215-0.093-0.314-0.061 8e-3 0.016 0.23 0.231 0.091 0.214-0.064-0.246-0.266-0.035-0.365-0.046-0.011-0.038 0.06-0.05 0.045-0.106-0.399-0.22-0.721 0.084-1.114 0.042 0.02 0.087 0.133 0.203-0.083 0.126-0.018 0.109 0.209 0.218 0.185 0.412-1.408-0.312-0.102 0.526 0.02 1.112-0.103-9e-3 -0.412-0.195-0.556-0.208 0.04-0.11 0.022-0.347 0.112-0.407-0.067-0.227-0.586-0.213-0.684-0.221 0-6e-3 0.089 0.045 0.104 0.052-0.011 0.165-0.153-3e-3 -0.247-0.012 9e-3 0.04 5e-3 0.079-8e-3 0.115h1e-3c0.066 0.014 0.273 0.155 0.287 0.225-0.033-0.019-0.044-0.015-0.038 7e-3 8e-3 6e-3 -0.115-0.103-0.249-0.231-1e-3 0-1e-3 -1e-3 -1e-3 -1e-3 -0.109-0.104-0.222-0.221-0.283-0.304 0.08 0.304 0.063 0.628 0.109 0.901 0.321 0.025 0.756 0.272 0.807 0.55-0.071 6e-3 -0.258-0.139-0.235-9e-3 0.013-3e-3 0.018 5e-3 0.015 0.022-1.013-0.796 0.219 0.163-0.735 0.09-1e-3 -0.014 0.133 0.155 0.143 0.222-0.02 0-0.45-0.222-0.477-0.31 0.766-0.027 0.171-0.873 0.158-1.521-0.848-0.071-0.482 0.516-0.39 1.134-0.017-5e-3 -0.026 4e-3 -0.023 0.029-0.243-0.017-1.196-1.028-1.07-0.083-0.069-0.05-0.091-0.115-0.085-0.198-0.309-6e-3 -0.465 0.096-0.739 0.139 0-0.075 8e-3 -0.104 5e-3 -0.214-0.271 0.06-0.653 0.6-0.902 0.589-0.018-0.193-0.115-0.297 0.12-0.285-0.063-0.157-0.276-0.349-0.443-0.357 0.034 0.275 0.012 0.418 0.038 0.739-0.315-0.014-0.353-0.208-0.312 0.302-0.291-0.064-0.171-0.117-0.41-0.212-0.017 0.069 0.026 0.11-0.031 0.107 0.028 0.115 0.14 0.167 0.15 0.299-0.534-0.018-0.244-0.533-0.716-0.622-7e-3 -0.09-0.125-0.1-0.138-0.289 0.016-7e-3 0.956 0.131 1.127 0.14-0.064-0.403-0.878-0.732-1.156-0.74-4e-3 -0.029 0.054-0.064 0.08-0.063-0.12-0.149-0.387 0.083-0.438-0.09 0.073 2e-3 0.106-0.051 0.198-0.049-0.024-0.099-0.146-0.191-0.244-0.226-0.019 0.057 0 0.174-0.061 0.15-1e-3 -0.137-3e-3 -0.066-0.012-0.207-0.034 0.011-0.052-0.023-0.096-0.025 8e-3 0.126-0.114 0.139-0.118 0.292-0.027-1e-3 0.014-0.186 9e-3 -0.208-0.045-2e-3 -0.164 0.236-0.177 0.312-7e-3 -9e-3 -0.017-0.012-0.03-0.011 0.038-0.118 0.058-0.129 0.087-0.226-0.011 2e-3 -0.014 0-0.012-0.012-0.142 0.077-0.258 0.133-0.528 0.051 2e-3 0.039-0.015 0.05-0.057 0.032 0.021 0.139 0.05-0.091 0.104 0.145-0.104-0.033-0.195-0.059-0.19 0.05-0.085-0.106-0.16-0.109-0.15 0.128 0.017 0-0.326 0.075-0.319 0.313 0.043-0.036 0.089-0.042 0.138-0.021-0.052 0.121-0.095-0.055-0.083 0.141 1e-3 0-0.102-0.188-0.129-0.045 0.257-0.094-0.723 0.902-0.727 0.999 0.045 0 0.014 8e-3 0.014 0.027 0.042-7e-3 0.089-0.024 0.139-0.052-0.043 0.021-0.114 0.059-0.142 0.059-2e-3 -3e-3 3e-3 -4e-3 3e-3 -7e-3 -0.106 0.017-0.183 0.014-0.179 0.181-0.108-0.034-0.047-0.012-0.211-0.013 0.037 0.102 0.085 0.117-0.089 0.12 0.014 0.034 0.012 0.048-0.01 0.043 0 0.036 0.109-0.013 0.11 0.067-0.018 0-0.02 0.015-0.02 0.032-0.021 4e-3 -0.026-0.014-0.012-0.053-0.099 4e-3 -0.124 0.032-0.229 0.031 2e-3 0.117 0.071 0.022 0.132 0.087-0.061-2e-3 -0.121 1e-3 -0.181 0.011 0 0.078 0.011 0.021 0 0.076 7e-3 0.027 0.225 0.055 0.26 0.056 0.018-9e-3 0.032-0.018 0.032-0.032-0.021-8e-3 -0.032 3e-3 -0.03 0.032h-2e-3c-0.063 0.037-0.225 0.034-0.26 0.021 0 0.019 0.138 0.121-7e-3 0.121 0.079 0.173 0.147 0 0.292 1e-3 -0.021 0.084-0.143 0.218-0.221 0.23 0 0.03-0.02 8e-3 -0.02 0.055 0.043-9e-3 0.061 6e-3 0.051 0.044 0.021 0 0.062-0.077 0.101-0.077-0.16 0.702 0.364 0.126 0.647 0.092 7e-3 0.338 0.24 0.488 0.198 0.835 0.011-3e-3 0.016 0 0.014 0.011 0.021-0.011 0.033-7e-3 0.03 0.012 0.216 2e-3 0.189-0.31 0.454-0.215 0.029-0.038 0.043-0.083 0.036-0.13-0.189 0.121 0.169-0.425-0.061-0.429 0-0.043 0.637-0.323 0.091-0.623-0.079-0.216 0.334-0.793 0.481-0.79 0.231-1.268 0.322 0.951 0.34 0.947 4e-3 0.073-0.059 0.065-0.097 0.064 0.019 0.057 0 6e-3 0 0.065 0.012-3e-3 0.014 0 0.012 0.01 0.157-0.032 0.412-0.139 0.715-0.203 4e-3 0.056 0.199 0.235 0.305 0.237-0.186 0.446-0.616-0.031-0.839 0.692-0.111 0.023-0.224-0.044-0.209-0.158-0.156 0.055-0.327 0.652-0.363 0.778 0.039 0 0.082 0.01-6e-3 0.017 0 2e-3 -5e-3 0.01-5e-3 0.01-9e-3 -3e-3 -0.01-5e-3 -0.013-8e-3 -0.032 2e-3 -0.073 4e-3 -0.13 6e-3 -0.027-0.134 0.04 3e-3 0.038-0.065-0.136-0.068-0.938 0.188-0.941 0.176-0.48-0.076-0.011-0.779-0.237-0.78 0-0.023 0.103-0.076 0.1-0.198-0.1 0.06-0.291 0.132-0.333 0.262 0.026 0.011 0.056-7e-3 0.084-0.028-2e-3 -2e-3 -2e-3 -1e-3 -2e-3 -4e-3 4e-3 -1e-3 4e-3 1e-3 5e-3 0 0.057-0.044 0.106-0.097 0.11 0.077 0.118 0-0.428 1.146-0.434 0.776-0.38 0.015-0.725 0.683-1.118 0.735 0.015 0.064 0.096 0.171 0.063 0.242-0.078 0-0.435-0.042-0.459 0.055 0.111 0.026 0.029 0.087-0.012 0.1 0.077 0.173 1.219 0.896-0.04 0.9 5e-3 -0.563-0.431 0.343-0.497 0.49 2e-3 0 4e-3 -6e-3 6e-3 -6e-3 -0.021 0.043-0.019 0.033-6e-3 6e-3 -0.101 0.027-0.059 0.717-0.068 0.784 0.155-0.029 1.15 0.357 1.151-0.168 0.063 0 0.489-1.053 0.658-1.053 0-0.184 0.342-0.115 0.709 0.087 6e-3 -0.011 0.016-0.022 0.016-0.031 0.03 0 0.041 0.025 0.046 0.061 0.396 0.232 0.808 0.62 0.816 1.02 0.24 0.044 0.146-0.387 0.169-0.507-0.375-0.13-0.453-0.611-0.465-0.891 7e-3 0.016 0.019 0.029 0.038 0.036-2e-3 -0.011 0-0.014 0.013-0.01 0-0.068 0.039-0.031 0.063-0.142 0.392 0.189 0.849 1.486 1.225 1.491-0.038 0.079-0.177-0.133-0.224 0.02 0.047 0 9e-3 0.158 0.08 0.176 0-0.045 0.27-0.129 0.306-0.118-2e-3 -0.13-0.111-0.1-0.111-0.199-0.015 5e-3 -0.017-2e-3 -0.012-0.021 0.092 0.057 0.149 0.1 0.228 0.168-3e-3 -0.012 0-0.016 0.01-0.012 0.015-0.18-0.265-0.156-0.279-0.156 3e-3 -0.015-5e-3 -0.019-0.022-0.011 0-0.034 0.183-0.261-0.027-0.263 0.022-0.066 0.031-0.037 0.029-0.098 0.014 2e-3 0.022-3e-3 0.021-0.022 0.011 0.044 0.06 0.131 0.099 0.132 8e-3 0.012 0.019-0.116 0.017-0.186 0.198 1e-3 0.336-0.042 0.343 0.147 0.122-0.041 0.22-0.16 0.354-0.159-3e-3 -0.014 5e-3 -0.021 0.022-0.021-0.011-0.318 0.27-0.793 0.322-1.024 0-4e-3 -5e-3 -4e-3 -5e-3 -8e-3 5e-3 0 3e-3 -1e-3 8e-3 -1e-3 7e-3 -0.024 0.021-0.057 0.018-0.076 0.07 0.07 0.078 0.077-0.018 0.076 0 2e-3 0 5e-3 -3e-3 9e-3 0.024 0.138 0.294-0.052 0.316 0.129-0.054-0.013-0.169 0.017-0.186 0.094 0.127 3e-3 0.149 0.029 0.136 0.189 0.149-0.038 0.248-0.137 0.401-0.133 0-0.019 0.014-0.025 0.019-0.066-0.01 3e-3 -0.015 0-0.01-0.011-0.123 0.019-0.35-0.013-0.356-0.192 0.276 0.055 0.43-0.199 0.724-0.191-5e-3 0.014 4e-3 0.02 0.02 0.012 5e-3 0.064-0.238 0.147-0.261 0.156 0.181 0.242-0.111 0.104-0.104 0.281 0.341-0.111 0.579 0.649 0.586 0.765-0.366-9e-3 -1.502-0.317-1.491 0.047-0.209 0.038-0.396 0.218-0.456 0.342 0-0.01 5e-3 -0.013 1e-3 -0.032-0.048 0.01-0.036 0.05-0.019 0.06-0.016 0.048-0.015 0.083 0.025 0.093 0.173 0.669 0.731 0.316 1.307 0.326 0.121 0.57-0.042 1.127-0.608 1.039-0.061-0.602-3.05 0.836-2.803-1.088-0.443 0.063-1.353 0.293-1.844 0.294 6e-3 -0.668-1.23 0.815-1.122 0.815-6e-3 0.609-0.829 0.848-0.837 1.386-0.213 2e-3 -0.131 1.342-0.181 1.557-0.814 0.243 2.428 3.111 2.432 1.575 0.15 0.057 0.122-7e-3 0.122 0.088 1.028-0.129 0.973 0.24 1.194 0.999 0.021 0 0.654 1.646 0.613 2.149-0.566 0 0.195 3.079 0.488 3.387 0.511 0.34 2e-3 1.001 1.266 0.56 5e-3 -0.288 1.141-1.609 1.271-1.708 0.09-0.465-0.266-1.297 0.536-1.301 0.01-0.658 0.107-1.17 8e-3 -1.984 0.325-4e-3 1.642-2.644 1.741-3.105-0.291-0.143-0.696 0.373-1.056 0.133-0.033-0.125-0.521-1.115-0.654-1.116 0.113-0.65-0.854-1.5-0.977-2.235 0.013 3e-3 0.018-4e-3 9e-3 -0.022 0.102 1e-3 0.198 0.144 0.297 0.146 2e-3 -0.032 0.164 0.253 0.169 0.253 4e-3 0.16 0.665 1.48 0.767 1.48 0.018 0.914 0.403 1.04 1.01 0.946 0.35 0.044 0.898-0.622 1.19-0.766-5e-3 -0.163 0.389-0.419 0.378-0.664 0.094-0.19-0.494-0.434-0.507-0.753-0.409 0.106-0.438 0.696-0.692 8e-3 -0.024 0-0.104 0.102-0.103 0.14-0.231-0.069-0.38-0.934-0.384-0.962 0.451 0.01 1.052 0.917 1.63 0.996 0.794 0.017 1.154 0.401 1.644 0.411-0.071 0.161-0.145 0.161-0.264 0.198 0.188 0.613 0.431 0.16 0.453-0.033 0.216 0.054 0.23 2.487 0.836 2.491-9e-3 -0.781 1.272-2.552 1.72-2.533 4e-3 0.044 0.576 1.16 0.625 1.237 0.15-4e-3 0.242 2e-3 0.284-0.183 0.479 0.011 0.359 1.584 0.707 2.311-0.197-0.24-0.462-0.422-0.841-0.425 0.012 0.558 1.058 1.425 1.307 1.909 0.021 0.017 0.013-0.574-0.231-1.104 0.011 0.026-0.033 0.055-0.034-0.022 0.02 4e-3 0.029 0.013 0.034 0.021-0.01-0.014-0.014-0.031-0.021-0.045-0.013-5e-3 -0.023-0.017-0.023-0.048h2e-3c-0.01-0.019-0.017-0.039-0.026-0.059 0.061 0.057 0.129 0.102 0.212 0.121 0.013-0.054 0.049-0.072 0.11-0.051-0.039-0.649-0.478-1.309-0.64-1.938 0.024 7e-3 0.031 0 0.021-0.021 0.256 4e-3 0.627 0.572 0.654 0.783 0.045 3e-3 0.051 0.023 0.014 0.063 0.225-0.039 0.106-0.132 0.103-0.247-0.017 3e-3 -0.02-4e-3 -0.014-0.022 0.061 0.034 0.044 0.104 0.125 0.106 0.02-0.095-0.112-0.066-0.116-0.158 0.884 0.113 0.237-0.651 0.212-1.054-0.698-0.342 0.215-1.186 0.297-0.603-0.026 2e-3 0.534-0.4 0.527-0.456 0.792 0.025 1.004-0.899 0.852-1.262 0.176-0.068 0.073-0.22-0.06-0.228 7e-3 0.065-0.073-0.027-0.066-0.023 0.047-0.051 0.111 5e-3 0.159 7e-3 -0.013-0.12-0.255-0.648-0.288-0.746 0.063-0.15 0.347-0.104 0.354-0.273-1.095-0.159-0.562-0.756-0.136-0.604-0.025 0.202-0.104 0.205-0.082 0.358 0.574-0.075 0.843 0.152 0.789 0.856 0.672 0.205-0.369-1.703 0.523-1.634 0.035 0.157 0.182 0.08 0.354-0.107-0.995-2.479-2.477-4.711-4.335-6.569-6e-3 0.029-0.013 0.058-0.018 0.095 6e-3 0.016 0.012 0.037 0.013 0.037 2e-3 -0.017-5e-3 -0.024-0.014-0.022 0-8e-3 3e-3 -8e-3 3e-3 -0.014-0.01-0.032-0.025-0.091-0.042-0.152-0.079-0.076-0.157-0.147-0.232-0.219-0.03-1e-3 -0.056-7e-3 -0.138-0.039-0.094 0.064-0.195 0.126-0.305 0.175-0.146 0.103-0.306 0.191-0.331 0.093 0.121-9e-3 0.229-0.046 0.331-0.093 0.143-0.098 0.271-0.211 0.267-0.191 0.016 9e-3 0.024 0.011 0.038 0.016 0.02-0.012 0.04-0.022 0.06-0.036-0.391-0.372-0.801-0.73-1.226-1.072zm-1.803 0.826c0.073 9e-3 -0.036 0.127 0 0zm-9.589 2.281c0.02 7e-3 0.012 0 0.02 0.013-0.02-9e-3 -7e-3 -1e-3 -0.02-0.013zm0.731-0.751c-0.035 0-2e-3 -0.073 0 0zm-0.017 1.733c-0.071-0.026 0.014 0.024-0.123 0.021-4e-3 -0.121 0.109-0.141 0.105-0.251 0.167 2e-3 0.014 0.17 0.018 0.23zm0.162 0.024c0.058 0-0.014 0.095 0 0zm0.141-2.08c0.02 6e-3 0.01-1e-3 0.02 0.011-0.02-7e-3 -8e-3 1e-3 -0.02-0.011zm0.195 1.821c0.189 0.053 0.022 0.087 0 0zm-0.061 0c0.067 0 0 0.038 0 0zm-1.752 1.807c0.139 0.024 0.02 0.078 0 0zm0.781-0.413c0.02 7e-3 8e-3 -2e-3 0.02 0.011-0.02-7e-3 -7e-3 0-0.02-0.011zm0.567 1.795v-0.082c1e-3 0.018 7e-3 0.025 0.021 0.022-0.01 0.013-0.017 0.034-0.021 0.06zm1.845-2.825c-0.066-0.407 0.088 2e-3 0 0zm0.36-0.832c-7e-3 -0.127 0.279 0.145 0.304 0.274-0.08-0.046-0.591-0.292-0.304-0.274zm0.418-0.489c0.264 0.072 0.066 0.22 0 0zm0.088 0.45c0.236-7e-3 0.023-0.131 0.021-0.175-0.013 4e-3 -0.014 0-0.013-0.01 0.227 0.059 0.188 0.259 0.199 0.431-6e-3 0-0.204-0.217-0.207-0.246zm0.325 0.337c0.216 6e-3 6e-3 0.112 0 0zm0.287 0.521c-0.043-0.028-0.055-0.017-0.04 0.031-0.063 1e-3 -0.205-0.064-0.211-0.159 0.202 0.036 0.018-0.098 0.064-0.097 5e-3 -0.027 0.202 0.157 0.2 0.148-0.037 3e-3 -0.046 0.028-0.013 0.077zm-3.933 10.531c-0.026 0.152-0.118 0 0 0zm0.835 4.244c-0.041 0 2e-3 -0.075 0 0zm0.09-5.954c-0.012-0.02-0.021-0.029-0.033-0.041-0.04-0.025-0.091-0.051-0.121-0.059 0 0.012 0.063-7e-3 0.121 0.059 0.055 0.033 0.091 0.061 0.033 0.041zm1.826 4.076c-0.07-0.24 0.241 0 0 0zm1.258-3.68c0.224-0.022 5e-3 0.184 0 0zm-0.107 1.266c0.064 0.021 0.122 0.283 0.122 0.35-0.169-0.049-0.122-0.267-0.122-0.35zm-0.574-4.6c0.026 0 6e-3 0.136 0 0zm-0.115 5.035c-0.065 0.284-0.107 0 0 0zm-0.295 0.459c0-0.095 5e-3 -1e-3 0 0zm-0.064 0.305c-8e-3 -0.288 0.171-0.029 0 0zm0.436 1.104c-0.047 0-0.096 2e-3 -0.143 2e-3 -0.018 6e-3 -0.278-0.795-0.263-0.788 0.033-0.157 0.3 0.51 0.416 0.776-0.01-3e-3 -0.015 1e-3 -0.01 0.01zm0.154-0.152c0-0.057 0.148-2e-3 0 0zm0.289 1.091c-0.024-0.035-0.051-0.04-0.078-0.021 3e-3 -0.276-0.024-0.486-0.06-0.774 0.145 0.033 0.14 0.638 0.138 0.795zm0.052-1.78c-0.034 0.131-0.11 0 0 0zm-0.439-0.929c0.018-0.074 0.187 0.022 0 0zm0.187 0.186s0.219 0.224 0.219 0.153c-0.112 0.038-0.19 0.326-0.041 0.328-0.03 0.116-0.091 0.017-0.091 0.153-0.011-4e-3 -0.014 0-0.011 0.012-0.033 0-0.229-0.213-0.229-0.022-0.377-1e-3 0.174-0.728 0.153-0.624zm0.218-5.607c-5e-3 -0.173 0.058 0 0 0zm0.968-1.421c0.013 0.243-0.159-2e-3 0 0zm1.385-6.55c0.062 5e-3 3e-3 0.036 0 0zm-1.179 6.25c0.174 0.021 0.061 0.102 0 0zm0.207 0.734c-0.092-1e-3 -0.198-0.266-0.207-0.318 0.089 0.01 0.245 0.217 0.251 0.266-0.026-5e-3 -0.042 0.012-0.044 0.052zm1.106-0.741c-0.12 0-0.15-0.092-0.207-0.093 0 1e-3 2e-3 0.189-0.029 0.206 0.024 3e-3 0.036 0.014 0.033 0.032 0.047 1e-3 0.083-0.041 0.156-0.038 4e-3 0.039 0.094 0.479 0.02 0.637-0.916-0.022-0.507-0.315-0.535-0.75-0.551-0.013-0.584-1.176-0.283-1.167 0.209-0.933 1.076 0.798 0.557 0.462 2e-3 -0.018-9e-3 -0.022-0.035-0.012 6e-3 -0.01 0-0.015-0.01-0.011-2e-3 -0.013 0.184-0.061 0.179-0.134-0.292-0.122-0.154 0.092-0.344 0 3e-3 0.011 0 0.015-0.013 0.011 0.014 0.05 0.03 0.076 0.044 0.089-0.021-3e-3 -0.057-1e-3 -0.131 0.039 0.109 0.31 0.338 0.166 0.362 0.54 0.17 5e-3 0.027-0.139 0.291 0.074 7e-3 0.384-0.078-0.103-0.055 0.115zm0.707-0.592c-0.063-2e-3 -0.022 0.139-0.063 0.138-0.082-0.147-0.282-0.753 0.205-0.69 0.067 0.172-0.134 0.658-0.142 0.552zm2.315 0.307c0.047-0.231 0.463 0.132 0 0zm-0.27-0.744c-0.09 0.076-0.154 0.169-0.143 0.279-0.29-0.078-0.104-0.195 0.143-0.279 0.193-0.166 0.511-0.231 0.495-0.104-0.087-7e-3 -0.309 0.039-0.495 0.104zm4.227 8.075c0.051 1e-3 2e-3 0.086 0 0zm2.276-4.873c-7e-3 -0.095 0.169 8e-3 0 0zm1.228-2.501c0.115 0.014 0.182 0.347 0 0zm-1.571 2.791c-0.014 0.089-0.2 0.011 0 0zm-0.636 0.052c0.029-9e-3 -0.028 0.108 0 0zm-0.774 3.172c-0.147 0.045-7e-3 -0.146 0 0zm-0.878-1.425c-0.092 0.027-5e-3 -0.086 0 0zm0.448-6.903c0.094 8e-3 -0.093 0.92-0.56 0.887 0-0.025-0.019-0.033-0.055-0.025 0.014 0.017 0.613-0.721 0.615-0.862zm-0.664 3.611c0.14 7e-3 0.015 0.137 0 0zm-0.194-7.838c0.02 3e-3 -1e-3 0.074 0 0zm-0.171 5.048c0.069 5e-3 -2e-3 0.201 0 0zm-0.965 0.13c-0.141 0.027 0.014-0.146 0 0zm-5e-3 -5.718c0-0.01-4e-3 -0.012-0.014-0.011 3e-3 -0.054-0.011-0.042-0.066-0.049-2e-3 -0.012-7e-3 -0.023-0.016-0.033 0.033-0.017 2e-3 -0.062-7e-3 -0.091 0.119 0.016 0.274 0.076 0.234-0.07 0.032 6e-3 0.032 9e-3 0.023 9e-3 0.132 0.05-0.111 0.235-0.154 0.245zm0.331 0.718c0.245-0.016 0.02 0.081 0 0z"/>
<path d="m27.862 13.907c0.068-0.015 0.013-0.107 0 0z"/>
<path d="m36.572 25.586c3e-3 -0.032-0.015-0.065-0.028-0.103-0.018-0.027-0.04-0.049-0.058-0.049-2e-3 0.058 0.021 0.149 0.086 0.152z"/>
<path d="m36.788 21.607c0.583 0.182 0.247-0.67 0.654-0.686-0.195-0.356-0.303-0.515 0.04-0.696-0.04-0.106-0.26-0.26-0.303-0.261 0.021 0.128-0.887 0.678-0.825 0.848-1.043-0.169 0.437 1.084 0.434 0.795zm-0.401-0.785c-0.022-6e-3 -9e-3 1e-3 -0.022-0.012 0.022 8e-3 0.01 0 0.022 0.012z"/>
<path d="m9.104 5.205c0-0.014-0.012-0.028-0.029-0.041-0.075 0.056-0.146 0.117-0.221 0.174 0.067 0.154 0.481-0.212 0.25-0.133z"/>
<path d="m3.835 12.353c0-8e-3 -3e-3 -8e-3 -4e-3 -0.014-0.013-0.01-0.024-0.026-0.04-0.035-4e-3 0.021 2e-3 0.048 0.044 0.049z"/>
<path d="m3.382 12.197c1e-3 0 1e-3 1e-3 3e-3 1e-3 -0.03-2e-3 -0.059-4e-3 -0.086 7e-3 -0.034 0.136 0.431 0.404 0.661 0.385 5e-3 -0.026-8e-3 -0.042-0.016-0.061 0.011 0.034 0.023 0.057 0.035 0.104 8e-3 4e-3 0.021 7e-3 0.021 0.013-0.013 1e-3 -9e-3 0.012-0.014 0.019 5e-3 0.025 0.011 0.043 0.016 0.071-0.027 2e-3 -0.039-0.046-0.016-0.071-3e-3 -0.011-6e-3 -0.021-8e-3 -0.031-0.051-0.024-0.228-0.013-0.289-0.02-0.034 0.225-0.379 1.93-0.042 1.962 0.012-0.073-7e-3 -0.04 0.06-0.044-0.083 0.09 0.897 1.763 0.723 1.771 0.054 0.288 0.631 0.44 0.596 0.835 0.062-2e-3 8e-3 -0.023 0.068-0.043 0.121-0.463-0.635-1.013-0.576-1.478 0.619-0.025 0.979 2.242 1.331 2.237 0.175 0.377 1.95 0.87 2.337 0.865 0.046 0.212 0.247 0.416 0.238 0.662 0.176-2e-3 0.306 0.278 0.525 0.349-3e-3 -2e-3 -8e-3 -3e-3 -0.021-8e-3 8e-3 0.03 2e-3 0.025 0.032 0.033-4e-3 -0.014-4e-3 -0.021-8e-3 -0.024 0.05 0.015 0.102 0.023 0.162 0.011-3e-3 -0.025 0.017-0.04 0.056-0.042-2e-3 -0.152 0.09-0.095 0.094-0.235 0.565 0.294 3e-3 1.677-0.271 2.038 0.23 0.049 0.031 0 0.176 0 0 0.445-0.345 0.505 0.191 0.957 4e-3 0.366 0.381 1.012 0.595 1.283 0.902 9e-3 0.623 1.492 0.622 1.972-0.079 1.125 0.152 3.233-0.141 3.766-0.108-5e-3 -0.067-0.119-0.228-0.063 0.05 0.031 0.046 0.074 0.017 0.121 0.313 0.032 0.09 0.487 0.256 0.494-0.088 0.196 0.162 0.548-0.035 0.539 0.031 0.011 0.047 0.023 0.047 0.047 0.098 0.018 0.1-0.067 0.159-0.064-3e-3 0.034 0.019 0.041 0.064 0.023 0.011 0.096-0.118 0.08-0.167 0.087 0.086 0.282 0.18 0.154 0.33 0.348 0.06-7e-3 0.07-0.09 0.101-0.169 0.023 0.021 0.103 0.044 0.109 0.112-0.116 0.038-0.09 0.147 0.073 0.188-0.019 0.015-0.17-0.096-0.122 0.015-0.012-3e-3 -0.022 0-0.03 7e-3 -4e-3 -0.03-0.02-0.16-0.081-0.164 9e-3 0.085-5e-3 0.042-0.065 0.062 8e-3 -0.05-0.014-0.063-0.065-0.033 0.025 0.159 0.081 0.059 0.141 0.061 0.012 0.106-0.059 0.038-0.136 0.075 0.012 0.057 0.219 0.101 0.435 0.118 0.025-4e-3 0.048-6e-3 0.063-6e-3 1e-3 6e-3 -1e-3 6e-3 0 0.011 0.218 0.016 0.425 2e-3 0.419-0.056-0.219-0.053-0.555-0.347-0.58-0.472-0.071 0.019-0.111 0.037-0.137 0.049 0.037-0.069 0.097-0.127 0.244-0.109-0.086-0.26-0.052-0.206-0.083-0.503 0.083 3e-3 0.28-0.131 0.383-0.371-0.526-0.324-4e-3 -0.622 0.104-1.043-0.034-0.013-0.08-0.013-0.097-0.014-2e-3 -0.035 0.182 7e-3 0.202 8e-3 -4e-3 -0.069 0.012 9e-3 5e-3 -0.074-0.017 2e-3 -0.024-0.011-0.024-0.035-0.133-5e-3 -0.168-0.136-0.245-0.139 0.028-0.064 0.025-0.086 0.053-0.146 0.467 0.016 0.135-0.027 0.304-0.387 0.542 0.018 0.656-0.47 0.632-0.808-0.062-0.054-0.108-0.143-0.118-0.307 0.055 0 0.104 0.136 0.118 0.307 0.174 0.161 0.502-0.066 0.687-0.344-4e-3 4e-3 -7e-3 8e-3 -0.018 0.012-1e-3 -0.033 0.022-0.031 0.025-0.021 0.08-0.12 0.134-0.252 0.13-0.364 0.034 0.055 0.066 0.058 0.098 0.013-3e-3 0.011 1e-3 0.013 0.011 0.011-6e-3 0.136-0.04 0.124-0.066 0.215 0.041 2e-3 0.019-0.041 0.053-0.041-4e-3 -0.107 0.105-0.427 0.241-0.472-1e-3 -0.096 1.733-2.791 1.35-2.798-3e-3 -0.314 0.518-0.862 0.516-1.426-0.326 0-0.858-0.782-1.218-0.424 0.019 1e-3 -0.371-0.201-0.668-0.314-1e-3 9e-3 0 0.012-1e-3 0.021-0.259 0.067-0.302-9e-3 -0.262-0.093-0.038-1e-3 -0.066 4e-3 -0.066 0.028-0.146 0-0.036 0.227-0.133 0.227 0.03-0.114 0.038 0.059 0.013-0.194-0.268 0.013-0.299 0.208-0.604 0.208 0-0.046 0.943-0.436 0.856-0.423-2e-3 -0.011 0-0.015 0.011-0.011 1e-3 -0.182-0.024 0.032 0.023-0.174-0.147 6e-3 -3e-3 0.065-0.11 0.065 0.417-0.783-0.935-0.969-1.153-0.967 1e-3 -0.076-0.012-0.012-0.044-0.01-0.066-0.442-0.031-0.324-0.497-0.319 0.032-0.053 0.16-0.145 0.219-0.193-0.038-0.022-0.143-0.178-0.171-0.227-0.173-6e-3 -1.139-0.2-1.137-0.2 1e-3 0.152-0.162 0.276-0.167 0.515-0.206 2e-3 0.047-0.519 0.047-0.534-0.033 0-0.046-0.011-0.043-0.032-0.018 8e-3 -0.026 3e-3 -0.021-0.01-0.31 5e-3 -0.654 0.775-0.755 0.775 0.011-0.388-1.209-0.058-0.965-0.633 0.025-0.689 0.151-0.722-0.702-0.706 9e-3 -0.176 0.127-0.342 0.138-0.53-0.014 0 0.016 0.095 0.059 0.093-0.095-1.071 0.012-0.283-0.659-0.057-0.046 0.698-0.997-0.961-0.724-0.835-0.387-1.162 1.034-1.04 1.346-1.052 0.114-0.135-0.096-0.147-0.142-0.214 0.49-0.164 1.108 0.105 1.217 0.646 0.127-0.546 0.696-1.87 0.678-1.659 0.103 0.028 0.078-2e-3 0.171-6e-3 0.018-0.218-0.328-0.518 0.087-0.821 0 0-0.116 0.325-0.119 0.355 0.053-1e-3 0.081-0.078 0.07 0.04 0.177-0.097 0.067-0.161 0.095-0.333-2e-3 -1e-3 0.614-0.515 0.777-0.521-0.187-0.278 0.509-0.629 0.648-0.753 0.088 0.131-0.031-0.05 0.198-0.094-0.017 0.169-0.23 0.118 0.146 0.111-8e-3 0.087-0.26 0.323-0.27 0.418 0.011 5e-3 0.413-0.403 0.54-0.407-0.024-0.103-0.07 0.069-0.03-0.116-0.157 0.024-0.174 0.038-0.297 0.044 1e-3 -0.017-0.177-0.388-0.055-0.394-9e-3 -0.016-0.014-0.034-0.016-0.053-0.058 6e-3 -0.116 0.05-0.173 0.062 3e-3 -0.036 0.055-0.071-0.012-0.084 0.021-0.013 0.037-0.033 0.047-0.056 0.058 0.196 0.224-0.155 0.243-0.15 0.022-0.492-1.027 0.497-0.996 0.495 0.496-0.604 0.687-0.748 1.397-0.781 1.021-0.212 0.604-0.658 0.342-0.735-0.066 0.024-0.128 0.045-0.159 0.051 6e-3 -0.066 0.076-0.076 0.159-0.051 0.128-0.048 0.279-0.117 0.285-0.185 7e-3 8e-3 -0.578-0.368-0.602-0.367 6e-3 0.016-5e-3 -0.131-8e-3 -0.106 0.068 5e-3 0.098 5e-3 0.131 4e-3 0.105-0.352-0.426-0.389-0.284-0.891-0.147 0.036-1.038 1.066-0.605-0.09-0.196 0.013-0.639-0.552-1.112-0.185-0.033 0.521-0.044 0.853 0 1.38-0.42 0.108-0.429 0.66-0.464 0.926-0.13 7e-3 -0.46-0.413-0.4-0.416 0.063-0.201-0.902-0.685-1.198-0.591-9e-3 -0.04-0.166-0.462-0.183-0.367-0.38 0.033 0.291-0.711 0.291-0.696-0.05 5e-3 0.885-0.672 0.907-0.795-0.14-0.015-0.275-6e-3 -0.439 0.01 0.059-0.122 0.122 0.014 0.154-0.141 0.089-0.047 0.256 0.11 0.319 0.104 0.059-0.093 0.047-0.144 0.063-0.233 0.161-0.073 0.181 0.046 0.328 0.011 0-9e-3 4e-3 -0.016 0.014-0.022-0.056-0.02-0.068-0.113-0.127-0.093 0.023-0.01 0.036-0.024 0.037-0.044 0.425-0.184 0.961-0.912 0.118-0.83 0.123 0.313-0.177 0.357-0.244 0.687-0.525 0.051 0.043-0.47-0.18-0.52-0.116 0.125-0.203 0.196-0.236 0.353 0.062 5e-3 -0.253-0.391-0.254-0.406 0.237-0.153 0.031-0.043 0.109-0.196 0.039 0.022 0.101 0.058 0.123-0.043-0.01 5e-3 -0.012 1e-3 -7e-3 -9e-3 -0.141 0.048-0.282-0.274-0.386-0.234 0.05-0.202 0.901-0.654 0.487-0.648-0.04 0.083-0.38-0.064-0.494 0.404-0.162 0.129-0.259 0.644-0.297 0.818 0.029-0.011 0.065-0.077 0.049-5e-3 8e-3 -1e-3 0.296-0.102 0.384-0.072-0.028 0.126-0.183 0.13-0.268 0.182-0.023 0.151-0.044 0.118 0.053 0.099-0.08 0.076-0.293 0.497-0.29 0.487-0.206 0.074-0.14-0.145-0.11-0.273-0.081 0.062-0.034 0.021-0.018-0.05-0.102 0.011-0.037 0.044-0.18-0.04-0.391 0.75-1.09-0.359-1.382 0.26 0.037 0.01 0.044-0.012 0.085-1e-3 0.039-0.069 0.261-0.168 0.326-0.158-0.152 0.292-0.355 0.169-0.439 0.533-0.063-0.053-0.043-0.143-0.025-0.237 0.077-0.073-0.505 0.082-0.738 0.071 0.05-0.185 0.119-0.071 0.181-0.181-0.07-0.014-0.141-0.031-0.215-0.048-0.161 0.188-0.319 0.38-0.474 0.574 0.053-9e-3 0.104-0.019 0.138-2e-3 -0.083 0.064-0.109 0.124-0.076 0.177-0.058 7e-3 -0.15 9e-3 -0.22 0.027-6e-3 8e-3 -0.012 0.015-0.018 0.023-8e-3 0.072 0.105 0.015 0.083 0.097-0.061-0.028-0.129 5e-3 -0.194 0.044-0.667 0.88-1.256 1.82-1.769 2.807 0.016 0.083 0.021 0.175-0.014 0.331zm0.503 0.668c0.025-0.129 0.148-0.048 0 0zm7.506 18.377c0.116 3e-3 6e-3 0.047 0 0zm-0.436-7.017c0.119 0 0.02 0.213 0 0zm-0.14 6.666c-0.025-0.223 0.159 8e-3 0 0zm0.027-0.124c-0.022 0.021-0.07-5e-3 -0.085-0.025 0.023 7e-3 0.06 0.018 0.085 0.025zm-0.146 0.087c9e-3 -0.112 0.129-0.017 0 0zm-0.118-7.192c0.261-0.06 0.028 0.389 0 0zm-2.218-4.64c2e-3 -0.018 0.329-5e-3 0 0zm-0.083-0.126c-0.025-0.089 0.18 0.039 0 0zm3.703-7.906c0.165 0.016-3e-3 0.192 0 0zm-0.207-0.319c0.041 0.01 0.03 0.081 0 0zm-0.304 0.326c-0.062 3e-3 0.025-0.277 0 0zm-0.15 0.146c0.087 0.06-0.196 0.295 0 0zm-0.421 0.426c0.13-0.033-0.038 0.106 0 0zm-0.013-1.016c-0.016 0.121-0.091 0.028 0 0zm-0.172 1.09c-9e-3 3e-3 0.028-0.071 0 0 0.08-0.21 0.142-0.053 0 0zm0.055-1.125c-0.177 0.011 0.016-0.127 0 0zm-0.197 2.479c0.054-0.263 0.031-1e-3 0 0zm-0.07-0.22c-0.033 0.088-0.018-1e-3 0 0zm-1.658-6.06c0.13-0.048-0.016 0.092 0 0zm1.398 6.243c-0.053 0.216-0.795 0.652-1.08 0.666 0 0 0.049-0.094-0.058-0.049 0.023-0.08 0.121-0.138 0.13-0.218 0.071-3e-3 -0.03 0.079-0.037 0.139 0.239-0.012 0.659-0.384 0.772-0.425-0.068-0.022 0.292-0.114 0.273-0.113zm-0.494 0.025c0.074-3e-3 -0.12 0.181 0 0zm0.031-1.708c-6e-3 0.04-0.254-0.062 0 0zm-0.154 1.335c0.251-0.014-0.011 0.092 0 0zm-1.018-0.601c-7e-3 -0.185 0.225-0.014 0 0zm0.065 0.133c0.233 0.053 1.04 0.757 0.986 0.888-0.276 1e-3 -0.137-0.064-0.366 0.282-0.138-0.154 0.034-0.245-0.176-0.117 0.017 0.023-0.027-0.363-0.053-0.417-0.322 0.056-0.255 0.602-0.443 0.811-0.262-1e-3 0.053-0.543 0.068-0.643-0.028 0.079-0.07 0.117-0.129 0.112 0.051-0.291 0.372-0.335 0.533-0.345-0.011 0.03 6e-3 0.04 0.048 0.028 0-0.153-0.481-0.2-0.593-0.153 5e-3 -0.011 2e-3 -0.014-0.01-0.01 0.012-0.018 0.024-0.037 0.037-0.052-0.145 0.044-0.418 0.087-0.446 0.099 6e-3 -0.021-8e-3 -0.024-0.041-7e-3 0.2-0.236 0.568-0.352 0.585-0.476zm-0.715 3.752c0.144-5e-3 -0.084 0.141 0 0zm-0.196-0.086c0.056-3e-3 0.012 0.119 0 0zm-0.302-4.648c-2e-3 -0.052 0.21 0.537 0.191 0.676-0.044-5e-3 -0.064 0.011-0.059 0.046 0.023-3e-3 -0.473-0.711-0.132-0.722zm-0.189 0.622c0.012-0.263 0.25 0.07 0 0zm-0.052-0.459c-0.014 0.045-0.013 0.238-0.013 0.299 0-0.05-0.025-0.024-0.02-7e-3 -0.072-0.021-0.07-0.177-0.101-0.228 0.084-0.038 0.084-0.08 0.134-0.064zm-0.09-0.812c-0.254 0.096-0.093 0.167-0.028-0.161 0.096-0.12 0.031 0.143 0.028 0.161zm-0.092-0.287c0.081 0.056-0.143 0.184 0 0zm-0.165 0.525c0.021-0.102 0.089-9e-3 0 0zm-1.792 2.991c0.274-0.019-0.112 0.33 0 0zm1.442-3.7c-1e-3 3e-3 3e-3 2e-3 3e-3 6e-3 0.022-3e-3 0.042-7e-3 0.076-3e-3 -0.056 0.029-0.079 0.027-0.076 3e-3 -0.012 2e-3 -0.028 1e-3 -0.04 2e-3 -0.151 0.045-0.56 0.41-0.531 0.28 0.291-0.089 0.303-0.26 0.531-0.28 0.013-4e-3 0.028-9e-3 0.037-8e-3zm-0.804-0.468c0.129-0.269-0.252-0.116 0.084-0.219-2e-3 0.398 0.451-0.169 0.667-0.114-0.031 0.147-1.271 0.907-1.163 0.469 0.151 0.015 0.246-0.139 0.412-0.136zm-0.609-0.227c0.011-0.019 0.203 0 0.264-0.011-0.079 0.146-0.522 0.048-0.264 0.011zm-1.316 2.957c5e-3 -0.029 0.03-0.041 0.04 0.035 0.039 0.03 0.072 0.083 0.099 0.152-0.07-0.074-0.227-0.093-0.209-0.179-0.063-8e-3 -0.154-0.062-0.245-0.094 0.141 0.033 0.246 0.053 0.315 0.086z"/>
<path d="m28.827 12.569c5e-3 0.036 0.071 0.027 0 0z"/>
<path d="m9.284 12.757c0.08-3e-3 -9e-3 0.051 0 0-0.029 0.158 0.442-0.012 0 0z"/>
<path d="m35.885 20.362c4e-3 0.128 0.091 1e-3 0 0z"/>
<path d="m35.856 21.629c0.2 0 0-0.215 0 0z"/>
<path d="m39.982 23.137c-0.071 0.022-0.031-0.031-0.031-0.06-0.265 0.137-0.521-0.145-0.698-0.082 0.089 0.021 0.139 0.07 0.148 0.149-0.033 6e-3 -0.048 0.02-0.046 0.039-0.04 0.022-0.274-0.02-0.293-0.024-8e-3 0.2-0.105 0.207-0.119 0.445-0.178-0.015-0.136 0.023-0.265 0.055 0.047-0.521-0.615 0.099-0.627 0.319-0.063 2e-3 -0.038-0.137-0.091-0.152-0.031 0.61-1.219 0.717-1.298 0.963-0.011 5e-3 -0.013 2e-3 -0.01-0.01-0.169 3e-3 -0.029 0.629-0.04 0.722-0.085-0.019-0.038-0.071-0.081-0.07-2e-3 0.02 5e-3 0.035 0.012 0.051 0.167 0.231 0.328 1.302 0.06 1.312 0.09 0.799 2.969-1.344 2.808 7e-3 0.021-6e-3 0.035 0 0.042 0.018 0-3e-3 0.015-0.015 0.024-0.024 0.318-1.008 0.558-2.052 0.714-3.126-0.113-0.149-0.227-0.127-0.209-0.532zm-0.486 3.153c-0.073 3e-3 4e-3 -0.037 0 0zm0.054 0.086c0.034-0.276 0.081 4e-3 0 0zm0.412-2.998c-0.033 0.197-0.128-0.017 0 0z"/>
<path d="m35.56 21.431c-6e-3 0.029 0.323 0 0 0z"/>
<path d="m36.855 22.503c-0.028-0.15-0.559-0.54-0.586-0.389-0.425 2e-3 -0.371-0.172-0.768 0.045 0.05 0.101 1.112 0.347 1.354 0.344z"/>
<path d="m8.574 12.528c0.055-0.018 0.095-0.034 0.092-0.05-0.046 2e-3 -0.071 0.024-0.092 0.05z"/>
<path d="m37.74 19.033c-5e-3 -0.049-9e-3 -0.044-9e-3 -0.031 0-0.127-0.059-0.189-0.188-0.168 1e-3 0.041 0.208 0.196 0.197 0.199z"/>
<path d="m38.129 19.367c-0.043-0.18-0.229 0.049 0 0z"/>
<path d="m39.064 23.09c-0.01-0.122-0.103 2e-3 0 0z"/>
<path d="m38.109 18.776c3e-3 0.1 0.066 2e-3 0 0z"/>
<path d="m37.548 19.079c-0.149-0.039 0 0.018 0 0z"/>
<path d="m37.753 21.607c0 0.147 0.076 0.165 0.074 0.305 0.026-0.01 0.038-7e-3 0.033 0.012 0.105-5e-3 0.028-0.103 0.177-0.103 0-0.139-0.284-0.265-0.284-0.378 0.063-0.034 0.151-0.055 0.225-0.099-0.036 0.019 0.114 0.09 0.114 8e-3 -0.065-0.013-0.099-0.013-0.114-8e-3 0.04-0.024 0.075-0.055 0.091-0.104-0.203 0.013-0.331 0.056-0.382-0.029-0.321 0.353-0.579 0.789-0.134 0.787 2e-3 0.014 0.172-0.391 0.2-0.391z"/>
<path d="m37.174 22.521c0 0.014-0.042 0.064-0.048 0.104 0.279-0.046 0.269 0.063 0.2-0.136-0.058-0.01 0.011 0.03-0.152 0.032z"/>
<path d="m37.783 19.002c0.019 0.069 0.094 0.024 0 0z"/>
<path d="m38.013 22.015c0.176-7e-3 -0.057-0.343 0 0z"/>
<path d="m37.691 22.834c0.029-0.22-0.481 7e-3 0 0z"/>
<path d="m37.811 19.156c-0.015 0.369 0.221 0.022 0 0z"/>
<path d="m38.281 22.513c-0.16 0.012-3e-3 0.033 0 0z"/>
<path d="m38.192 21.382c-0.028 0.078 0.3 0.026 0 0z"/>
<path d="m38.263 20.813c0.028-0.115-0.134-0.021-0.332 0.155 0.198-0.059 0.378-0.155 0.332-0.155z"/>
<path d="m37.846 19.402c7e-3 0.148 0.452-0.045 0 0z"/>
<path d="m38.8 16.037c0.081-0.022 9e-3 -0.066 0 0z"/>
<path d="m39.188 21.133c-0.333-0.061 0 0.067 0 0z"/>
<path d="m39.047 21.403c0-0.089-0.09-0.017 0 0z"/>
<path d="m39.177 15.369c-0.082 5e-3 -0.243 0.067-0.252 0.165 0.054 2e-3 0.047 0.039 0.052 0.073 0.039 0 0.064 0.023 0.085 0.074 0.063-0.21 0.199-0.079 0.115-0.312z"/>
<path d="m38.705 21.13c-0.017-0.059 0.205-0.366-0.017-0.437-0.031 0.117-0.132 0.398 0.051 0.476 0 0.038 0.019-0.039-0.034-0.039z"/>
<path d="m38.609 21.585c-0.366 0.04 0 0.171 0 0z"/>
<path d="m38.683 21.201c-0.118-0.032 2e-3 0.036 0 0z"/>
<path d="m38.763 20.634c4e-3 0.213 0.154 0.042 0 0z"/>
<path d="m39.062 15.173c-0.076-6e-3 -0.012 0.051 0 0z"/>
<path d="m39.31 15.347c-0.016 0.113-0.055 0.073 0.029 0.19 0.12 3e-3 0.207-0.044 0.284-0.102-0.042-0.15-0.085-0.302-0.131-0.451-5e-3 1e-3 -9e-3 4e-3 -0.016 7e-3 -9e-3 -0.016-0.021-0.024-0.036-0.022-0.01-0.055 7e-3 -0.053 0.021-0.074-5e-3 -0.016-0.012-0.031-0.015-0.046-0.167 0.058-0.247 0.267-0.406 0.4 7e-3 6e-3 0.014 0.017 0.018 0.042-0.026-1e-3 -0.036-0.013-0.038-0.025-0.082 0.061-0.174 0.101-0.315 0.093 0.036 0.066 0.516-0.017 0.605-0.012z"/>
<path d="m38.634 15.676c0.084-0.016 0.047-0.107 0.071-0.106 0.051 0.133-0.087 0.176-0.034 0.289 0.057 0.014 0.069-0.018 0.073-0.039 0 0.014 0 0.04 8e-3 0.093 0.271 0.014 7e-3 -0.52 7e-3 -0.5-0.125-0.01-0.125 0.083-0.214 0.078 0.11 0.155 0.045 0.067 0.089 0.185z"/>
<path d="m39.09 21.243c0 0.022 0.11 0 0 0z"/>
<path d="m39.13 23.07c0.034-0.088-0.089 0 0 0z"/>
<path d="m39.09 21.293c2e-3 0.091 0.119-0.025 0 0z"/>
<path d="m23.898 14.594c-0.014 0.019-0.03 0.025-0.052 0.022 1e-3 0.109 0.357 0.161 0.353 0.014-0.045 8e-3 -0.298 0.034-0.301-0.036z"/>
<path d="m8.016 7.312c-0.062 6e-3 -0.043 0.174 0 0z"/>
<path d="m7.97 7.73c-0.152 0.019-0.05 0.119 0 0z"/>
<path d="m7.927 6.159c-0.029 9e-3 -0.025 0.21 0 0z"/>
<path d="m7.949 7.936c-4e-3 0.128 0.048-4e-3 0 0z"/>
<path d="m7.927 6.159c-0.067 0.025-4e-3 0.031 0 0z"/>
<path d="m8.526 6.359c-0.059 0.11-0.149 0.108-0.18 0.164-0.102-0.01-0.154-0.095-0.26 0.115 0.026 0.023 0.096 0.047 0.136 0.042-0.03 0.076-0.035 0.048-0.037 0.104-0.133-1e-3 -0.189 5e-3 -0.296-0.021 0 0.011-4e-3 0.014-0.013 0.012-0.075 0.28 0.416 0.3 0.566 0.282 0.291-0.434 0.043-0.21 0.191-0.579-0.295-0.017-0.063-0.124-0.107-0.119z"/>
<path d="m7.891 7.67c0 0.027-3e-3 0.023 0.022 0.027-2e-3 -0.027 3e-3 -0.024-0.022-0.027z"/>
<path d="m8.071 7.781c0.14-0.053 0.182 0.057 0.459-0.021 0.028-0.125-0.207-0.25-0.203-0.263-0.061 0.011-0.255 0.206-0.256 0.284z"/>
<path d="m19.85 10.422c2e-3 -0.129-0.034 0 0 0z"/>
<path d="m20.45 9.181c-0.066 0.273 0.045-1e-3 0 0z"/>
<path d="m19.801 10.235c-0.015 0.137 0.012 0.01 0 0z"/>
<path d="m8.92 5.966c0.043-0.098-0.21 0.027 0 0z"/>
<path d="m8.282 6.02c-0.095 0.076-0.15-0.017-0.192 0.135 0.021-9e-3 0.025-3e-3 0.014 0.018 0.125-0.044 0.206-0.091 0.334-0.134-0.017 0.064-0.106 0.077-0.141 0.189 0.678-0.03 0.424-0.477 0.25-0.455-6e-3 -0.273-0.076 0.079-0.113 0.215-0.049-0.023-0.042-0.236-0.15-0.197-4e-3 3e-3 -9e-3 6e-3 -0.013 0.01-0.034 0.087-1e-3 0.134 0.011 0.219z"/>
<path d="m10.293 4.948c0.093-0.033 0.033-0.075 0 0z"/>
<path d="m9.835 9.082c-0.06 0.021-0.159 0.057-0.218 0.102-0.039 0.088 0.179-0.029 0.218-0.102z"/>
<path d="m10.025 8.879c-0.011-0.049 0-0.07 0.032-0.065-3e-3 7e-3 -0.411-0.31-0.394-0.31 0.079-0.162-0.273 0.417-0.275 0.43 0.258-0.022 0.136-0.146 0.431-0.214-0.016 0.11 0.029 0.27 0.206 0.159z"/>
<path d="m10.095 10.415c-0.051 0.37 0.033 6e-3 0 0z"/>
<path d="m20.647 11.012c-0.045-0.185-0.143-0.226-9e-3 -0.209 0-0.548-0.504-0.283-0.303-0.921-0.101-0.058-0.153-0.012-0.294 0.023-4e-3 -0.118 0.175-0.17 0.114-0.296-0.35-0.125-0.312 0.542-0.313 0.715 0.083-1e-3 0.012-0.087 0.103-0.055-0.011 0.089-0.054 0.182-0.055 0.263 0.011-4e-3 0.013 0 0.011 0.011 0.044-0.017 0.18-0.051 0.277-0.013 0 0.122 0.019 0.112 0.018 0.307-0.085 0-0.109 0.026-0.175-0.043-0.013 0.023-0.03 0.035-0.051 0.033 0.05 0.229-0.056 0.14-0.097 0.396 0.08 0 0.02-2e-3 0.019 0.032 0.147-5e-3 0.204-0.035 0.343-0.057-0.024 0.167-0.457 0.095-0.46 0.375 0.056-0.017 0.08-7e-3 0.073 0.032 0.316-0.088 0.565-0.182 0.904-0.255 7e-3 -0.084-0.077-0.019-0.104-0.11 0.104 0 0.188-0.084 0.186-0.229-0.12-0.106-0.116-0.023-0.187 1e-3zm-0.28 0.417c0.067-1e-3 0 0.036 0 0z"/>
<path d="m10.3 9.12c-0.124 0.041-0.072 0.254 0 0z"/>
<path d="m10.045 10.554c-0.03 0.01-0.024 4e-3 -0.036 0.035 0.029-0.01 0.024-5e-3 0.036-0.035z"/>
<path d="m9.647 8.391c4e-3 0.099 0.134 0.012 0 0z"/>
<path d="m9.835 9.082c0.05-0.018 0.074-0.024 9e-3 -0.01 0 3e-3 -7e-3 7e-3 -9e-3 0.01z"/>
<path d="m7.956 6.084c-0.039 0.146 0.262-0.116 0.221-0.111 0.036-0.077 0.017-0.081-3e-3 -0.088-0.05 0.042-0.097 0.085-0.147 0.128 0.045 7e-3 5e-3 0.06-0.071 0.071z"/>
<path d="m8.668 6.24c-0.078 0.029-0.021 0.079 0 0z"/>
<path d="m7.376 7.913c-0.17 0.041-0.025 0.104 0 0z"/>
<path d="m7.485 6.965c0.025-0.099-0.038-0.284-0.136-0.271-0.039 0.139-0.058 0.366 0.136 0.271z"/>
<path d="m8.679 6.594c0.022-0.087-0.097 0.012 0 0z"/>
<path d="m7.709 7.832c-0.017 0.066 0.15-0.035 0 0z"/>
<path d="m6.477 7.5c0.107-0.014 0.187-0.014 0.182 0.011-0.05 7e-3 -0.051 7e-3 -0.054 0.057-0.077 0.037-0.175 0.066-0.277 0.089-0.074 0.08-0.143 0.163-0.215 0.244 0.095 0.074 0.157 0.178 0.387 0.117 0.3 0.025 0.48-0.33 0.812-0.371-0.048 0.183 0.444 0.263 0.495 0.052-0.035 0.014-0.041 0-0.019-0.039-0.038 5e-3 -0.267 0.102-0.173-0.06 0.042-2e-3 0.175 0.13 0.205 6e-3 -0.107 0.013-0.017-8e-3 -0.055-3e-3 0.031-0.128 0.139 0.044 0.195 7e-3 0.042-0.36-0.528-0.612-0.862-0.415 0.02-0.04 0.018-0.056-5e-3 -0.05 0.01-0.104 0.014-0.201-0.01-0.268-0.207 0.203-0.408 0.412-0.606 0.623z"/>
<path d="m27.432 3.613c-9e-3 0.064 0.078 7e-3 0 0z"/>
<path d="m27.341 3.882c-0.251-0.02 0.032 0.104 0 0z"/>
<path d="m27.415 3.729c0.036 0.086 0.044 4e-3 0 0z"/>
<path d="m27.394 3.888c-6e-3 -0.012-4e-3 -0.015 8e-3 -0.011-8e-3 -0.05-0.201-0.132-0.234-0.126 0.026 0.078 0.151 0.129 0.226 0.137z"/>
<path d="m27.134 4.134c0.014 0.086 0.083 6e-3 0 0z"/>
<path d="m27.416 3.462c0.203 0.018 1e-3 -0.045 0 0z"/>
<path d="m27.379 4.131c-0.164 0.242 0.189 0.015 0 0z"/>
<path d="m27.294 3.591c-0.317-0.032 0.023 0.137 0 0z"/>
<path d="m27.311 3.646c-0.019 0.074 0.077 6e-3 0 0z"/>
<path d="m27.399 3.578c-0.026-0.163-0.166 0.02 0 0z"/>
<path d="m27.252 3.727c0.067 0.179 0.343 0.027 0 0z"/>
<path d="m27.125 3.888c0.094-0.024-0.052-0.129 0 0z"/>
<path d="m10.035 10.481c-0.029 0.01-0.024 4e-3 -0.035 0.034 0.029-0.01 0.023-3e-3 0.035-0.034z"/>
<path d="m27.479 3.799c-0.108 0.026 0.021 0.132 0 0z"/>
<path d="m27.613 4.129c-0.374-0.095 0.034 0.219 0 0z"/>
<path d="m29.404 6.18c-0.203-0.077 0.028 0.329 0 0z"/>
<path d="m30.468 6.476c0.015-0.241-0.197-0.02 0 0z"/>
<path d="m30.295 6.501c-0.093 0.281 0.166 0.051 0 0z"/>
<path d="m31.667 4.669c0.066 8e-3 0.139 0.022 0.216 0.039-0.052-0.037-0.103-0.074-0.158-0.109-0.035 0.03-0.06 0.057-0.058 0.07z"/>
<path d="m29.765 6.369c0.015 0.087 0.081 0.015 0 0z"/>
<path d="m31.859 4.909c9e-3 0.01 6e-3 0.012-4e-3 8e-3 0.031 0.116 0.291 0.133 0.491 0.123-0.104-0.077-0.21-0.152-0.318-0.226-0.073 0.04-0.165 0.095-0.169 0.095z"/>
<path d="m31.828 4.884c-0.031-0.104-0.22-0.174-0.275-0.179 0.051 0.202 8e-3 0.164 0.236 0.193-8e-3 -0.023 3e-3 -0.029 0.039-0.014z"/>
<path d="m32.425 5.743c-0.291-0.038 0.034 0.144 0 0z"/>
<path d="m27.764 6.877c-0.074-0.031 9e-3 0.054 0 0z"/>
<path d="m27.697 4.263c-0.194 1e-3 0.091 0.242 0 0z"/>
<path d="m27.073 3.711c0.017 0.122 0.186 0.013 0 0z"/>
<path d="m27.89 4.014c-0.033-0.155-0.217 0.037-0.199 0.153 0.193 0.017 0.285-0.172 0.199-0.153z"/>
<path d="m27.046 6.629c0.093 5e-3 0.251 0.055 0.321 0.04 0.012 0.093-0.093 0.104-0.082 0.199 9e-3 -3e-3 0.012 1e-3 0.011 0.013 0.292 0.022 0.354-0.044 0.551-0.031-3e-3 -0.012 0-0.015 8e-3 -0.01-3e-3 -0.026-0.029-7e-3 -0.031-0.033-0.405-0.026-0.22-0.818-0.472-0.696-3e-3 -0.029-0.02-0.01-0.024-0.055-0.056-0.032 1.572-0.583 1.466-0.827-0.458-0.095-1.621 0.383-1.681 0.695 0.069 0.037 0.103 0.014 0.173 0.032 2e-3 0.027-0.193 0.094-0.026 0.105 0.026 0.183-0.266 0.307-0.225 0.556 0.01-3e-3 0.015 1e-3 0.011 0.012zm0.215-0.847c0.067 0.028 7e-3 0.035 0 0z"/>
<path d="m27.968 6.953c0.024 0.063 0.156 0.182 0.16 0.204 0.268 0.019-0.055-0.206-0.152-0.212 4e-3 9e-3 0 0.013-8e-3 8e-3z"/>
<path d="m28.137 4.1c0.019 1e-3 0.046 0.01 0.051 0.037 0.034 0.015 0.177-0.166 0.174-0.175-0.124-0.047-0.146 0.029-0.265 0.018 0.021 0.045 0.055 0.047-0.012 0.041 0.012 0.055 0.043 0.033 0.052 0.079z"/>
<path d="m11.907 18.457c0.026 0.157 0.101-1e-3 0 0z"/>
<path d="m10.877 34.785c-0.051 0.077-0.162 0.074-0.074 0.245 0.19-9e-3 0.443-0.217 0.074-0.245z"/>
<path d="m11.921 33.813c-0.19-0.076-0.011 0.138 0 0z"/>
<path d="m11.769 34.281c-0.09-7e-3 0.023 0.161 0 0z"/>
<path d="m10.615 30.859c-0.019 0.12 0.04 0.214 0.169 0.223-4e-3 -0.012-1e-3 -0.016 9e-3 -0.012-0.031-0.075-0.044-0.171-0.178-0.211z"/>
<path d="m10.895 31.224c2e-3 0.03 0.069 0.027 0 0z"/>
<path d="m11.284 31.385c0.056 0.155 0.104 0.019 0 0z"/>
<path d="m11.413 31.431c0.025 0.058 0.11 0.029 0 0z"/>
<path d="m11.659 35.646c0.457 0.038-0.057-0.872-0.143-1.087-0.095-7e-3 -0.167 0.733-0.173 0.695-1.175-0.191 0.335 0.492 0.316 0.392z"/>
<path d="m12.597 33.14c-0.243-0.047 6e-3 0.044 0 0z"/>
<path d="m12.268 30.555c0.052 0.361 0.159 0.04 0 0z"/>
<path d="m12.572 30.575c-0.099-0.014-0.193 0.14-0.137 0.218 0.299 0.016 0.137-0.216 0.137-0.218z"/>
<path d="m12.326 33.551c0.176 9e-3 -0.034-0.267 0 0z"/>
<path d="m11.948 31.224c-0.225-0.01-0.019 0.086 0 0z"/>
<path d="m12.258 33.493c-0.258-0.08 0.086 0.352 0 0z"/>
<path d="m12.852 32.981c-0.326-0.024 0.02 0.178 0 0z"/>
<path d="m10.299 29.371c0.01-6e-3 0.014 0 0.012 0.01 0.116 0.058 0.094-0.162 0.087-0.196-0.085 0.015-0.105 0.129-0.099 0.186z"/>
<path d="m10.359 29.118c-7e-3 -0.082-0.058-0.018 0 0z"/>
<path d="m10.328 29.01c-0.029 0.116 0.055 4e-3 0 0z"/>
<path d="m10.421 28.64c-0.022-0.253-0.21 0.198-0.032 0.234-3e-3 -0.041 0.067-0.232 0.032-0.234z"/>
<path d="m12.603 34.9c0.016-0.322-0.114-5e-3 0 0z"/>
<path d="m3.359 11.939c-3e-3 6e-3 -7e-3 0.012-0.01 0.019 5e-3 0.012 0.018-0.01 0.01-0.019z"/>
<path d="m7.338 21.032c-2e-3 0.399 0.176-1e-3 0 0z"/>
<path d="m10.396 30.308c0.037 0.155 0.159 0.045 0 0z"/>
<path d="m10.349 30.539c0.076 3e-3 0.134-0.12 0.08-0.126-0.083-0.222-0.082 0.108-0.08 0.126z"/>
<path d="m10.309 30.366c-0.029-0.071-0.068 0.023 0 0z"/>
<path d="m10.271 30.301c0.181 0.057-1e-3 -0.176 0 0z"/>
<path d="m10.293 30.22c0.076-0.038 0.022 0.011 0.085 0.013 0.046-0.156-0.02-0.241-0.046-0.427-0.211-8e-3 -0.056 0.259-0.039 0.414z"/>
<path d="m10.594 30.856c-0.123-0.037-0.048-0.362-0.269-0.267 0.01 0.037 0.236 0.422 0.269 0.267z"/>
<path d="m11.634 34.103c-0.016-0.229-0.128 0.073-0.069 0.205 0.077 5e-3 0.105-0.194 0.069-0.205z"/>
<path d="m10.111 17.823c0.091 0.026 0.353 0.058 0.389 0.057 9e-3 -0.204 0.362-0.064 0.364-0.115 0.21-4e-3 -0.068-0.129-0.135-0.136-0.028-0.116-0.353-0.088-0.463-0.086 0.031 0.051 0.111 0.161 0.108 0.221-0.064 0.04-0.204-0.039-0.27-0.037 2e-3 0.02-0.013 0.028-0.044 0.022 0 0.08 0.053 0.035 0.051 0.074z"/>
<path d="m11.845 18.307c0.022 0.13 0.043 0 0 0z"/>
<path d="m12.083 18.713c-2e-3 0.089 0.033 0.021 0 0z"/>
<path d="m11.882 18.167c-0.138 2e-3 -2e-3 0.07 0 0z"/>
<path d="m11.851 19.243c0.125 0.015 7e-3 -0.261 0 0z"/>
<path d="m27.032 4.04c-0.088-0.018-9e-3 0.064 0 0z"/>
<path d="m11.506 19.107c-2e-3 0.035 0.069-1e-3 0 0z"/>
<path d="m11.945 19.467c-2e-3 0.05 0.101 9e-3 0 0z"/>
<path d="m11.917 12.382c-0.203 0.068 0.204 0.203 0.223 0.172-0.051-0.04-0.055-0.057-0.016-0.052 0.01-0.099-0.244 0.106-0.207-0.12z"/>
<path d="m12.244 12.679c0.033-2e-3 7e-3 0.011 0.052 9e-3 0.016-0.18 0.146-0.219 0.187-0.341 6e-3 1e-3 -0.414 0.182-0.239 0.332z"/>
<path d="m9.806 8.22c-0.01 0.05 0.069-6e-3 0 0z"/>
<path d="m12.478 12.52c-0.168 7e-3 0.041 0.198 0 0z"/>
<path d="m11.32 17.768c-0.358 6e-3 -6e-3 0.149 0 0z"/>
<path d="m12.268 12.195c-0.156 0.05-8e-3 0.08 0 0z"/>
<path d="m11.924 11.756c-4e-3 3e-3 -0.026 6e-3 -0.026-4e-3 -0.01 0.092 0.234 0.214 0.33 0.209 0.012-0.104-0.189-0.195-0.304-0.205z"/>
<path d="m9.635 17.759c-0.077-0.023-0.014 0.289 0 0z"/>
<path d="m13.343 26.738c-0.041 0-0.045 0-0.052 0.033 0.041 0 0.045 3e-3 0.052-0.033z"/>
<path d="m13.219 26.846c0.199 4e-3 -5e-3 -0.101 0 0z"/>
<path d="m27.608 23.781c0.041-0.015 0.058 0.017 0.058 0.081 0 0 1e-3 5e-3 7e-3 5e-3 7e-3 -0.038 0.034-0.456-0.026-0.454-0.021-0.657-1.45 1.846-0.965 1.843-0.029 1.099 0.971-0.946 0.984-1.394-0.031-8e-3 -0.058-0.074-0.058-0.081z"/>
<path d="m13.184 33.342c7e-3 -0.091-0.045 3e-3 0 0z"/>
<path d="m10.128 14.291c-0.063 0.136 0.047-2e-3 0 0z"/>
<path d="m13.119 32.834c0.138-0.023-1e-3 -0.013 0 0z"/>
<path d="m9.555 16.688c-0.034 0.201 0.17-5e-3 0 0z"/>
<path d="m9.084 16.965c-0.106 2e-3 -0.384 0.03-0.359 0.201-0.019-7e-3 -0.034-2e-3 -0.044 0.012 4e-3 7e-3 0.094 8e-3 0.214 0.018 0.011-0.018 0.035-0.032 0.08-0.026-4e-3 0.019-9e-3 0.019-0.014 0.032 0.251 0.026 0.59 0.102 0.665 0.356 0.152-0.02 0.349-0.083 0.471-0.085-0.098-0.209-0.989-0.376-1.013-0.508z"/>
<path d="m10.009 10.452c0.111-8e-3 0.015-0.099 0 0z"/>
<path d="m13.014 33.429c-0.023-0.051-0.1-4e-3 0 0z"/>
<path d="m8.959 17.2c-0.024-1e-3 -0.043-3e-3 -0.065-4e-3 -0.031 0.05 0.027 0.122 0.065 4e-3z"/>
<path d="m9.905 14.884c-0.026 0.044 0.08-4e-3 0 0z"/>
<path d="m11.022 13.424c-0.1 0.029-4e-3 0.05 0 0z"/>
<path d="m10.695 13.65c-0.347 0.118-5e-3 0.015 0 0z"/>
<path d="m8.988 6.2c0.019 0 0.114-0.448 0 0z"/>
<path d="m9.736 5.243c-0.112 0.334 0.11 0.031 0 0z"/>
<path d="m9.42 5.325c-0.115 0.04-0.227 0.085-0.344 0.086-4e-3 0.022-0.02 0.038-0.048 0.046 0.039 0.209 0.386-0.103 0.392-0.132z"/>
<path d="m10.567 7.548c-0.025 0.134 0.187-0.01 0 0z"/>
<path d="m10.999 5.579c-0.229 0.042-0.053 0.17 0 0z"/>
<path d="m10.822 5.929c-0.015 0.082 0.093-6e-3 0 0z"/>
<path d="m11.085 6.142c-0.311 0.03-0.283 0.146-0.534 0.293-0.03 0.197 0.488 2e-3 0.534-0.293z"/>
<path d="m9.704 7.299c-0.041 0.194 0.141 0.104 0 0z"/>
<path d="m10.551 9.026c-7e-3 -0.094-0.086 6e-3 0 0z"/>
<path d="m9.799 7.247c-0.091-0.022-0.012 0.056 0 0z"/>
<path d="m10.516 8.945c0.093 1e-3 0.024-0.054 0 0z"/>
<path d="m11.843 4.625c-0.329 0.109-0.023 0.109 0 0z"/>
<path d="m9.601 7.938c-0.051 0.022-0.016 0.08 0 0z"/>
<path d="m10.899 5.829c-0.086-0.303-1.293-9e-3 -1.329 5e-3 0.057-0.051 0.056-0.072-1e-3 -0.06 0.034-0.069 0.134 0.011 0.158-0.092-0.147-0.055-0.226-0.124-0.406-0.04 0.028-0.193-0.277-0.067-0.369-3e-3 -2e-3 -0.04 0.358 0.528 0.394 0.6 0.514-0.06 1.104-0.364 1.553-0.41z"/>
<path d="m9.706 5.512c-0.136 0.037-0.059 0.219 0 0z"/>
<path d="m17.683 7.794c0.302-0.049 4e-3 -0.017 0 0z"/>
<path d="m17.368 6.1c0.04-0.018 0.062-3e-3 0.063 0.04 0.387-0.063 0.187 0.203 0.542 0.191 0-0.012 3e-3 -0.022 0.013-0.033-0.088-0.047-0.019-0.114-0.084-0.138-0.037 7e-3 -0.071 0.012-0.071-0.01 0.039-1e-3 0.055 4e-3 0.071 0.01 0.025-6e-3 0.054-0.013 0.063-0.013-0.014-0.025-9e-3 -0.047 0.014-0.066-0.065-0.015-0.106-0.017-0.131-0.015 0.013-0.01 0.028-0.026 0.039-0.06-0.06 3e-3 -0.501-0.146-0.519 0.094z"/>
<path d="m18.098 5.651c-0.324-0.062-8e-3 0.126 0 0z"/>
<path d="m18.611 15.901c-2e-3 0.221 0.033 0 0 0z"/>
<path d="m11.949 5.126c-0.131-0.017-0.015 0.075 0 0z"/>
<path d="m19.26 11.304c0.424-0.123 0.74-0.78 0.375-0.881-1e-3 0.111-0.234 0.211-0.331 0.212-3e-3 0.148-0.075 0.12-0.077 0.241 0.083 4e-3 0.125-0.023 0.165-0.024 0.049 0.18-0.18 0.279-0.183 0.407 0.142-0.032 0.053-0.033 0.051 0.045zm0.139-0.286c-0.031 0.096-0.076 1e-3 0 0z"/>
<path d="m18.373 15.979c-2e-3 0.13 0.107 0 0 0z"/>
<path d="m18.213 5.451c-6e-3 -2e-3 -0.01 0.184 0 0z"/>
<path d="m14.677 3.683c2e-3 -0.01-0.083-9e-3 0 0z"/>
<path d="m18.302 5.001c-0.111 0.233 0.207 0.077 0 0z"/>
<path d="m12.021 5.129c9e-3 0.022 0.078 0.016 0 0z"/>
<path d="m14.42 3.564c0.102-9e-3 0.187 0.03 0.257 0.119 8e-3 -0.054-0.252-0.273-0.257-0.119z"/>
<path d="m18.402 5.249c-0.016 0.318 0.05-0.017 0 0z"/>
<path d="m18.335 3.447c0.01-0.168-0.038 2e-3 0 0z"/>
<path d="m18.213 15.948c-2e-3 0.085 0.175-0.019 0 0z"/>
<path d="m13.137 12.246c-0.082-0.027-0.012 0.172 0 0z"/>
<path d="m14.864 9.424c-0.042 0.107 0.123 0.026 0 0z"/>
<path d="m16.485 7.265c0.319-0.013 1.149 0.046 1.419-0.505-0.248-4e-3 -0.334-0.012-0.589-4e-3 3e-3 -0.045-1e-3 -0.07-0.02-0.083 0.089-0.017 0.18-0.064 0.177-0.106-0.121 3e-3 -0.235 0.046-0.345 0.033l-1e-3 2e-3c-1e-3 0.027 0.018 0.04 0.037 0.052-0.025 0-0.046 1e-3 -0.081 2e-3 8e-3 -0.024 0.028-0.038 0.044-0.054 0-1e-3 -2e-3 -1e-3 -2e-3 -2e-3h3e-3c0.088-0.084 0.28-0.075 0.376-0.078-1e-3 -0.02-9e-3 -0.028-0.016-0.037-0.018-0.014-0.036-0.026-0.053-0.038-0.097 2e-3 -0.216-2e-3 -0.309 0 4e-3 -0.011 0-0.014-9e-3 -0.011 4e-3 -0.044 0.03-0.017 0.037-0.111 0.087-1e-3 0.184 0.053 0.282 0.122h0.026c0 7e-3 0.015 0.017 0.027 0.038 0.185 0.136 0.369 0.301 0.486 0.221 0.013-0.228-0.126-0.489-0.442-0.479 2e-3 -0.047 0.075-0.018 0.09-0.068-0.086-0.089-0.333 0.121-0.315-0.122 0.083-4e-3 0.297-0.228 0.385-0.23-0.082 0.346 0.491-0.049 0.448-0.047-0.146-0.164-0.206 0.201-0.188-0.192 0.104 0.027 0.269 0.135 0.374 0.067 0-0.083-0.251-0.089-0.304-0.109-7e-3 0.043-0.013 0.062-0.01-3e-3 1e-3 0 7e-3 0 0.01 3e-3 7e-3 -0.046 0.016-0.121 0.019-0.177-0.013-4e-3 -0.025-9e-3 -0.037-0.012 0.035-0.099 0.042-0.06 0.037 0.012 0.069 0.019 0.14 0.05 0.194 0.048-2e-3 -0.011 1e-3 -0.016 0.011-0.012 0.016-0.303-0.064-0.313-0.22-0.279 2e-3 -0.035 0.033-0.088 0.03-0.044 0.124-4e-3 0.047-0.128 0.057-0.154 0.1 0.047 0.204 0.065 0.313 0.056-3e-3 -0.011 1e-3 -0.015 9e-3 -0.012-0.031-0.263-0.09-0.104-0.241-0.168 4e-3 -0.075 0.02-0.038 6e-3 -0.099 0.032 0 0.09 0.041 0.14-0.016-0.12-0.028-0.182-0.071-0.292-0.067 2e-3 -0.011 0-0.015-0.01-0.011 0.015-0.026 0.023-0.055 0.024-0.088 0.159 0.015 0.533-0.323 0.542-0.508-0.378-0.085-0.093 0.058-0.333 0.064 3e-3 -0.051-0.031-0.079-0.029-0.108 9e-3 0 0.03 1e-3 0.057 2e-3 0.014-0.056 0.063-0.012 0.014 1e-3 0.152 9e-3 0.484 0.019 0.494-0.195-0.096 4e-3 -0.177 0.01-0.27 0.016-0.073 0.022-0.123 0.03-0.122 5e-3 0.048-1e-3 0.083-4e-3 0.122-5e-3 0.206-0.063 0.598-0.243 0.66-0.245-0.098-0.423-1.189 0.165-1.43 0.175 3e-3 -0.01 1e-3 -0.015-9e-3 -0.01 7e-3 -0.095 0.333-0.08 0.31-0.307-0.371 0.042-0.938 0.283-1.364 0.202 0.16-0.341 1.611-0.193 1.565-0.406-0.035-0.011-0.308-0.102-0.453-0.099-0.013 0.028-0.041 0.042-0.087 0.044 2e-3 -0.031 0.037-0.043 0.087-0.044 0.012-0.025 0.011-0.063-0.013-0.123 0.03 6e-3 -0.555 0.095-0.167-0.015-0.055 0.015 8e-3 -0.027 0 0 0.05-0.181-1.729 0.053-1.472 0.1-0.046 0.047-0.067 0.061-0.085 0.07 5e-3 0.012 0.012 0.027 5e-3 0.075-0.071 5e-3 -0.063-0.083-0.132-0.078 0.051 0.113-0.306 0.043-0.388-5e-3 -0.01 0.024-0.026 0.131-0.029 0.152 9e-3 -5e-3 0.013-1e-3 7e-3 0.011 0.076-6e-3 0.311 7e-3 0.291 0.163 0.018-1e-3 -0.514-0.226-0.375-0.06 0.029-2e-3 0.033 0.019 0.029 0.05-0.16-0.083-0.163-0.056-0.33-0.062-0.032 0.227 0.375 0.258 0.357 0.394-0.146-0.052-0.533-0.382-0.708-0.367-0.016 0.2-0.018 0.181-0.042 0.346-0.018 4e-3 -0.025 0.015-0.023 0.034-0.127-0.016-0.29-0.237-0.395 0.01 0.013-4e-3 0.015 2e-3 6e-3 0.022-0.05 3e-3 -0.388-0.12-0.772-0.071 2e-3 0.055 0.044 0.101 0.033 0.167-0.016 2e-3 -0.116-0.184-0.12-0.168-0.245 0.061-0.086 0.199-0.098 0.266-0.02-8e-3 -0.028-4e-3 -0.029 0.013-0.296 0.027-0.442 0.017-0.722 0.28-9e-3 0.093 0.339-0.012 0.416-0.019-0.103 0.161-1.114 0.655-1.114 0.647 0.211-0.021 0.424 0.125 0.754 0.095-7e-3 0.024-3e-3 0.035 0.013 0.029-0.031 0.017-0.048 0.039-0.049 0.068-0.1-0.023-0.511 0.114-0.453 0.126 5e-3 -3e-3 -0.211 2e-3 -0.24 0.013-0.103 0.558 1.641-0.276 1.664 0.542 0.044-0.02 0.097-0.021 1e-3 0.014 1e-3 0.034 0.017 0.054 0.011 0.095 0.384-0.152 0.063 0.686 0.062 0.701 0.151-0.01 0.359-1e-3 0.55-0.057-5e-3 0.01-2e-3 0.015 8e-3 0.01-6e-3 0.053-0.087 0.01-0.095 0.071 0.037-3e-3 0.135-0.055 0.14 0.034-0.135 9e-3 -0.027 0.138-0.038 0.228-0.185-0.015-0.254-0.123-0.472-0.12-3e-3 0.025-0.03 0.026-0.045 0.045 0.037 0.037 0.126 0.069 0.109 0.122-0.2-0.026-0.1 0.153-0.229 0.208-2e-3 0.116 0.146 0.034 0.178 0.032 6e-3 0.077-0.035 0.098-0.123 0.062 0.032 0.23 0.495-0.127 0.396-0.268-0.102-8e-3 -0.205-0.023-0.201-0.055 0.121-9e-3 0.174 0.017 0.201 0.055 0.085 7e-3 0.169 8e-3 0.186 7e-3 -0.03 0.074-0.358 0.566-0.358 0.569 0.131-7e-3 0.206-0.01 0.259-0.011-0.049-3e-3 -0.084-0.015 0.01-0.048 5e-3 0.025-4e-3 0.034-7e-3 0.047 0.141-2e-3 0.065 5e-3 0 1e-3 -0.026 0.083-0.195 4e-3 -0.254 0.031-0.012 0.057 0.021 0.078 0.099 0.07-0.037 0.034-0.207-0.065-0.229 0.13 0.21-0.07 0.325-0.151 0.417-0.14-0.023 0.027-0.057 0.032-0.016 0.055 7e-3 0.062-0.464 0.058-0.417 0.153 0.137-8e-3 0.037 0.227-0.021 0.248 0.077 0.174 0.077-0.074 0.056 0.115 0.057-0.013 0.115-0.05 0.163-0.052-0.019 0.16-0.051 0.155-0.038 0.336 0.098-0.033 0.106-0.123 0.199-0.107-0.029 0.113-0.162 0.203-0.19 0.203 0.093 0.207 0.166 0.39 0.377 0.38-0.022 0.115-0.051 0.153 0.065 0.148-0.088 0.114 0.013 0.062 1e-3 0.184 0.101-5e-3 0.154-0.092 0.257-0.174 0.065 0.101-0.039 0.092-0.043 0.143 0.132-6e-3 0.112-5e-3 0.221-0.01-7e-3 0.071-0.067 0.078-0.072 0.132 0.078-0.024 0.13 6e-3 0.137-0.07 7e-3 0-3e-3 0.125 0.121 0.103-0.019-0.039-0.041-0.031 0.034-0.035-0.019-0.095-0.053-0.074-0.098-0.147 0.285-0.111 0.358-0.797 0.365-0.859 0.209-0.01 0.104-0.063 0.088-0.21 0.371-0.048 1.043-0.305 1.085-0.894zm0.764-0.508c0.078-1e-3 -0.121 0.141 0 0zm0.676-1.383c0.068-3e-3 -0.011 0.191 0 0zm-0.305-1.627c0.049-2e-3 -0.026 0.053 0 0zm-0.039 0.033c1e-3 -0.015-0.229 0.14-0.229 0.14 0.014-0.077 0.174-0.138 0.229-0.14zm-0.484-0.687c0.013-0.013 0.016-0.015 0.033-0.033h4e-3c0.156-0.132 0.375-0.277 0.352-5e-3 -0.117 2e-3 -0.233 3e-3 -0.352 5e-3 0.099-1e-3 -9e-3 0.021-2e-3 2e-3 -0.013 0.012-0.023 0.021-0.035 0.031-0.155 0.161-0.11 0.1 0 0zm-0.151 0.032c-6e-3 0.064-0.216 0.064-0.223-0.086 7e-3 -1e-3 0.159 0.071 0.223 0.086zm-0.433 0.067c4e-3 -0.012 0.193 4e-3 0 0zm-2.591 4.682c0.09 0.02-5e-3 0.054 0 0zm0.378-0.064c-0.047 0.164-0.266 0.067 0 0zm0.405 1.383c0.02-2e-3 -0.032 0.08 0 0zm1.131-1.261c-0.015-0.148 0.164-0.044 0 0z"/>
<path d="m15.608 31.381c-0.188-5e-3 0.029 0.117 0 0z"/>
<path d="m13.626 12.099c-0.118 0.039-0.06 0.083-0.023-0.097-0.051 0.016-0.082 0.105-0.083 0.143-0.012-0.019-0.033-0.022-0.061-9e-3 2e-3 -0.011 0-0.013-0.01-0.011 7e-3 -0.085 0.081-0.1 0.089-0.207-0.026 0.03-0.037 0.034-0.031 0.013-0.03 0-0.088 0.047-0.129 0.048 3e-3 -7e-3 0.013-0.186-0.011-0.236-0.151 6e-3 -0.324 0.152-0.302-0.085-0.05 2e-3 -0.066 0.122-0.125 0.124 0.017-0.182 0.12-0.406 0.123-0.435-0.383 0.095-0.076 0.563-0.384 0.576 2e-3 0.011-1e-3 0.014-0.011 0.012 5e-3 -0.056-0.045 0.21-0.042 0.227 0.018-7e-3 0.024-4e-3 0.021 0.01 0.271-0.066 0.482-0.074 0.672-0.081-0.02 0.062-0.12 0.124-0.131 0.188 0.105-0.013 0.141-0.188 0.224-0.191 0 0.098 1e-3 0.105-5e-3 0.195 0.064-7e-3 0.187 9e-3 0.219-0.184z"/>
<path d="m13.975 6.669c0.018-0.138-0.076 4e-3 0 0z"/>
<path d="m14.084 6.629c-0.027 0.05 0.098-6e-3 0 0z"/>
<polygon points="17.131 3.063 17.134 3.061 17.13 3.061"/>
<path d="m26.165 22.102c0 0.123 0.083 0.054 0 0z"/>
<path d="m27.644 24.063c-0.028 0.083 0.029 0 0 0z"/>
<path d="m18.703 7.881c0.013-0.201-0.416-0.075-0.416 0.052-0.111-0.03-0.358-0.142-0.372 0.138-7e-3 -8e-3 -0.018-0.011-0.029-9e-3 -5e-3 -0.069 0.035-0.278-0.096-0.238 2e-3 0.022-0.012 0.022-0.04 1e-3 -0.02 0.058 0.045 0.036 0.053 0.119-0.064-0.019-0.093-0.03-0.112-0.107-0.098 0.035-9e-3 0.198-0.168 0.202 0.033 0.081 0.2-0.056 0.268-0.019 0-6e-3 -0.135 0.101 7e-3 0.066-9e-3 0.011-0.013 0.021-0.013 0.034 0.022-0.014-0.277 0.062-0.22 0.061 0 0.02 0.23 0.088 0.243 0.082-0.028 1e-3 0.018 0.033 0.039 0.032-0.065 0.078-0.078 0.036-0.153 0.079 0.115 0.484 1.578-0.291 1.009-0.493z"/>
<path d="m26.99 4.123c-0.316-0.097-5e-3 0.129 0 0z"/>
<polygon points="14.175 7.529 14.173 7.53 14.175 7.53"/>
<path d="m13.602 5.817c0.02-7e-3 0.021-9e-3 0.034-0.013 0-5e-3 0-0.01-1e-3 -0.014-0.018 8e-3 -0.031 0.017-0.033 0.027z"/>
<path d="m11.243 7.741c0.069-0.156-0.194 0.016 0 0z"/>
<path d="m10.64 8.966c8e-3 0.108 0.072-5e-3 0 0z"/>
<path d="m11.067 7.325c-0.122 0.018-0.017 0.091 0 0z"/>
<path d="m10.959 7.66c-0.155 0.43 0.302-0.083 0 0z"/>
<path d="m10.704 7.378c-0.029 0.012 4e-3 0.092 0 0z"/>
<path d="m10.755 7.312c-0.047 0.097 0.084-9e-3 0 0z"/>
<path d="m11.275 7.612c0.024-0.164-0.076 7e-3 0 0z"/>
<path d="m10.728 7.251c-0.337 0.081-0.054 0.184 0 0z"/>
<path d="m12.166 9.146c-0.159 0.01-0.026 0.082 0 0z"/>
<path d="m12.786 7.987c0-0.011 2e-3 -0.015 0.012-0.012 0.087-0.15-0.063-0.104-0.042-0.253-0.018 0.022-0.112 0.146-0.157 0.149 0.026-0.039 0.042-0.079 0.046-0.12-0.17 0.177-0.258-0.094-0.249-0.152-0.011 4e-3 -0.013 1e-3 -8e-3 -9e-3 -0.138 0.045-0.067 0.121-0.222 0.133 0.024-0.1-0.067-0.266-0.241-0.257 0.013-0.074 0.07-0.074 0.088-0.187 0.027 5e-3 0.135 0.019 0.141 0.021 0-0.012 3e-3 -0.015 0.012-0.012-0.01-0.127-0.208-0.018-0.191-0.123 0.051-3e-3 0.159-0.076 0.166-0.076 0.02-0.131-0.142-0.063-0.21-0.057 0.014-0.078 0.079-0.068 0.116-0.063-0.018-0.147-0.286-0.018-0.283-0.018 0.016-0.087 0.066-0.051 0.078-0.123-9e-3 5e-3 -0.012 0-6e-3 -0.01-0.072 0.044-0.061 0.023-0.164 0.067 0.064-0.156 0.061 0-9e-3 -0.167-0.044 0.012-0.071 0.024-0.089 0.034 0-5e-3 0-0.01-8e-3 -0.017-9e-3 0.015-0.01 0.022-0.01 0.029-0.032 0.023-0.03 0.038-0.156 0.049 0.195-0.323-0.101-0.38-0.454-0.376-4e-3 0.032-0.028 0.049-0.076 0.05-0.02 0.098 0.154 0.03 0.136 0.123-0.016 1e-3 -0.026-0.018-0.029 2e-3 -0.16 0.04-0.163-0.031-0.197 0.144-0.061-0.012-2e-3 -0.131 7e-3 -0.177 0.042-0.026-0.379 0.17-0.293 0.195 1e-3 -0.024-0.01-0.028-0.034-0.018 0.022-0.109 0.075-0.305 0.148-0.491-0.14-0.066-0.235-0.048-0.306 7e-3 0 0.01 4e-3 0.014 3e-3 0.025-9e-3 -2e-3 -0.013 1e-3 -0.012 0.011-0.016 1e-3 -0.021 3e-3 -0.035 5e-3 -0.101 0.123-0.121 0.335-0.109 0.413-0.054-0.047-9e-3 -0.054-0.133-0.038-0.031 0.089 0.038 0.129 0.016 0.278-0.096-0.015-0.137 0.013-0.215 0.022 0.014-0.07 0.118-0.391 0.198-0.568 0.106-0.047 0.062-0.086 0.24-0.107 0.014-0.016 0.029-0.028 0.044-0.042-0.02-0.334-1.555 0.843-0.628 0.743-0.014 0.061-0.053 0.021-0.093 0.04-0.025 0.226 0.52 0.257 0.803 0.229 0-9e-3 3e-3 -0.017 0.013-0.021-0.014-9e-3 -0.109-0.12-0.106-0.126 0.109-8e-3 0.126 0.186 0.211 0.179-4e-3 -0.018 1e-3 -0.025 0.013-0.023 0.012-0.065-0.071-0.093-0.025-0.164 0.044 0.028 0.067 0.022 0.069-0.017 0.074-3e-3 0.238 0.195 0.244-0.038-3e-3 0-4e-3 -1e-3 -6e-3 -1e-3 -0.058 0.05-0.081 0.05-0.058-7e-3 0.022-6e-3 0.038 6e-3 0.058 7e-3 3e-3 -2e-3 3e-3 -1e-3 7e-3 -4e-3 0 3e-3 -1e-3 3e-3 -1e-3 5e-3 0.074 7e-3 0.134 0.047 0.12 0.171 0.105-0.01 0.122-0.032 0.255-0.043-4e-3 0.011-2e-3 0.013 9e-3 0.01-0.016 0.087-0.092 0.185-0.091 0.291 0.048-0.018 0.057 2e-3 0.028 0.062 0.084-0.019 0.172-0.133 0.23-0.167-5e-3 0.012-2e-3 0.015 8e-3 0.011-0.029 0.177 0.169 0.745-0.228 0.775-0.01 0.088 0.121 0.16 0.125 0.254-0.917 0.379-0.374 0.413-0.285 0.189 0.202-0.015 0.23 0.332 0.433 0.317-0.041 0.07-0.082 0.023-0.113 0.093 0.229-9e-3 0.534 0.091 0.778 0.031 0.013-0.246-0.361-0.107-0.394-0.367 0.154-0.155 0.414 0.1 0.539 0.091 0-0.01 3e-3 -0.017 0.013-0.022-7e-3 -0.016-0.021-0.016-0.039 2e-3 -0.047-0.211 0.021-0.077 0.072-0.239-5e-3 0-0.389-0.234-0.362-0.398 0.023 0.012 0.049 0.028 0.093 0.024 4e-3 -0.059-0.043-0.104-0.035-0.157 0.055-4e-3 7e-3 0.074 0.068 0.07 3e-3 -0.04-0.017-0.086-0.014-0.104 0.136 0.028 0.082 0.22 0.281 0.139-0.028 0.076 0.025 0.264 0.209 0.252-4e-3 -0.022 4e-3 -0.029 0.022-0.023 0.031-0.071-0.037-0.112-0.014-0.18 0.168-0.013 0.092-0.155 0.278-0.168zm-1.016-1.026c0.085 0.012-0.019 0.106 0 0zm-0.214 1.621c-0.167 0.013-0.12 0.014-0.116-0.14-0.046-0.012 0.168-0.194 0.116 0.14zm0.052-0.406c-0.086-0.018-0.04-0.24-0.027-0.315 8e-3 3e-3 0.013 0 0.01-0.01 0.073 0.038 0.18 0.153 0.249 0.149-8e-3 0.02-3e-3 0.03 0.015 0.031-0.042 0.109-0.187-0.01-0.247 0.145zm0.254-1.034c0.237-0.018-0.038 0.065 0 0z"/>
<path d="m12.192 8.39c-3e-3 0.023 0.073-6e-3 0 0z"/>
<path d="m12.274 8.788c-0.022 0.164 0.162 0.012 0 0z"/>
<path d="m11.693 9.409c-0.01 0.076 0.096-6e-3 0 0z"/>
<path d="m11.389 9.102c8e-3 0.076 0.126 0.013 0 0z"/>
<path d="m11.072 8.723c-0.01 0.072 0.036-3e-3 0 0z"/>
<path d="m18.295 3.963c0.01 0 0.011-4e-3 0.017-6e-3 -5e-3 0-0.01-1e-3 -0.014-1e-3 0 3e-3 -2e-3 3e-3 -3e-3 7e-3z"/>
<path d="m21.718 8.458c0.171-0.016 0.021-0.105 0 0z"/>
<path d="m23.41 6.653c3e-3 0.052 0.09 2e-3 0 0z"/>
<path d="m23.48 6.502c-0.309 5e-3 -0.029 0.251 0 0z"/>
<path d="m23.57 6.603c-0.158 0.042-3e-3 0.152 0 0z"/>
<path d="m23.188 6.669c-0.023 0.111 0.058 2e-3 0 0z"/>
<path d="m23.613 6.506c0.027 0.096 0.04 1e-3 0 0z"/>
<path d="m23.131 6.713c-0.022-0.158-0.098-2e-3 0 0z"/>
<path d="m23.562 4.875c-9e-3 -0.018-7e-3 -0.026 8e-3 -0.021 0 0.026-0.243-0.145-0.268-0.15-0.033 0.142-0.178-0.038-0.174 0.226 0.151-0.016 0.24-0.037 0.417-0.032-4e-3 -0.016 1e-3 -0.022 0.017-0.023z"/>
<path d="m22.223 4.034c-0.058-1e-3 -0.101 0.02-0.165 0.02-0.171 0.563 0.608 0.305 0.615 0.481-0.184 0.128-0.445-0.087-0.421 0.168-1e-3 -1e-3 0.249-0.069 0.251-0.018-0.095 0.098-0.075 0.135-0.22 0.084-0.143 0.632 0.514 0.085 0.731-0.159-9e-3 -0.01-0.013-0.012-0.024-0.024 0.011 3e-3 0.014 0 0.011-0.011 0.013 0 0.034-7e-3 0.058-0.015 0.027-0.034 0.041-0.058 0.029-0.059-0.011-0.061-0.469-0.537-0.52-0.538-0.023 0.177-0.081 0.188-0.05 0.381 0.014-3e-3 0.016 4e-3 0.011 0.021-0.02 0-0.154-0.26-0.157-0.297-0.069 0-0.095 0.028-0.107 0.055 3e-3 -0.018 8e-3 -0.034 5e-3 -0.079-0.033 0.019-0.049 0.015-0.047-0.01z"/>
<path d="m23.118 3.856c-0.183-5e-3 -0.051 0.145-0.322 0.069 0.021 0.267 0.14 0.101 0.393 0.218-0.02 0.095-0.186 0.03-0.226 0.061 0.046 0.29 0.918 0.127 0.95-0.169-0.172-6e-3 -0.382-7e-3 -0.4-0.144 0.075 3e-3 -0.376 0.295-0.395-0.035z"/>
<path d="m23.252 4.625c-0.021-0.13-0.121-0.09-0.193-0.064-0.013 0.014-0.028 0.033-0.044 0.05 0.113 0.123 0.138 0.053 0.237 0.014z"/>
<path d="m19.583 9.93c-2e-3 0.118 0.053 0 0 0z"/>
<path d="m23.876 6.534c0-0.014-0.067-1e-3 0 0z"/>
<path d="m23.906 4.461c-0.045 0.016 0.025 0.156 0 0z"/>
<path d="m23.057 6.733c-0.136-0.021-0.031 0.143 0 0z"/>
<path d="m24.236 4.43c-0.366-0.015 0 0.029 0 0z"/>
<path d="m22.368 7.324c-0.031 0.134 0.087 1e-3 0 0z"/>
<path d="m26.57 3.952c-0.022-1e-3 -0.083 0.014-0.153 0.03 4e-3 9e-3 0.015 0.015 0.016 0.024-0.024-0.013-0.038-0.019-0.049-0.019 0.011-3e-3 0.021-3e-3 0.033-5e-3 -0.095-0.139-0.77-0.149-0.748 0.051 0.071-5e-3 0.367 0.022 0.367 0.022 0.058-8e-3 0.098-0.02 0.141-0.028 0-2e-3 -3e-3 -1e-3 -3e-3 -6e-3 0.067-2e-3 0.141-0.019 0.208-0.033-0.012 2e-3 -0.014 9e-3 -0.012 0.025-0.085-7e-3 -0.139 2e-3 -0.193 0.014 0.011 0.047 0.038 0.022 0.046 0.105 0.147 0.01 0.318 0.068 0.474-0.054-0.02-0.117-0.118-0.057-0.127-0.126z"/>
<path d="m22.923 6.807c8e-3 0.18 0.151-0.022 0 0z"/>
<path d="m26.749 4.212c-0.224-0.016 0.076 0.261 0 0z"/>
<path d="m26.899 7.116c-0.325-0.017 0.091 0.305 0 0z"/>
<path d="m26.625 4.16c-0.167 0.034 0.036 0.119 0 0z"/>
<path d="m22 4.271c0.043 0.395 0.129 2e-3 0 0z"/>
<path d="m22.511 7.249c-0.034-0.028-0.121 0.252 0 0z"/>
<path d="m22.737 7.011c-0.023 0.083 0.025 0 0 0z"/>
<path d="m22.874 7.069c0.038-0.238-0.224-3e-3 0 0z"/>
<path d="m22.717 7.044c-0.02 0.082 0.028 0 0 0z"/>
<path d="m22.619 7.316c0-0.069 0.198-0.205 3e-3 -0.208-0.025 0.102-0.118 0.207-3e-3 0.208z"/>
<path d="m22.564 7.13c-0.118 0.026 5e-3 0.107 0 0z"/>
<path d="m23.34 3.917c-0.022-0.068-0.042 0 0 0z"/>
<path d="m23.409 14.053c1e-3 0.078 0.135 0.012 0 0z"/>
<path d="m22.683 14.068c-0.14 0.027-0.284-0.019-0.393 8e-3 0.011 0.281 0.362 0.299 0.393-8e-3z"/>
<path d="m21.3 13.657c-0.142-3e-3 0.025 0.137 0 0z"/>
<path d="m21.859 13.439c-0.279-0.09-0.034 0.581 4e-3 0.417 0.253 0-4e-3 -0.349-4e-3 -0.417z"/>
<path d="m23.705 14.428c-4e-3 -0.09-0.052-1e-3 0 0z"/>
<path d="m24.218 14.182c2e-3 0.052 0.076 1e-3 0 0z"/>
<path d="m24.206 14.072c-0.029-0.087-0.034 0 0 0z"/>
<path d="m19.764 10.005c0.045 0.013-0.053-0.241 0 0z"/>
<path d="m24.254 14.335c0 0.025 0.079 2e-3 0 0z"/>
<path d="m19.594 9.865c0.015 0.058 0.106-2e-3 0 0z"/>
<path d="m19.742 10.138c0.024 0.172 0.047 0 0 0z"/>
<path d="m19.747 9.819c0.061-0.346-0.177 2e-3 0 0z"/>
<path d="m21.046 13.81c0.08-0.332-0.102 0 0 0z"/>
<path d="m20.792 13.777c-0.108 0.136 0.036 0 0 0z"/>
<path d="m23.555 9.632c0.108-0.027-0.05-0.207 0 0z"/>
<path d="m23.118 9.866c-0.014 0.076-0.225 0.101-0.072 0.261 0.016-0.059 0.133-0.26 0.072-0.261z"/>
<path d="m23.158 9.231c0.054 0.192 0.124 0.046 0 0z"/>
<path d="m22.552 10.439c7e-3 0.153 0.185 0.072 0 0z"/>
<path d="m22.021 10.522c0.024-0.208-0.209-0.046 0 0z"/>
<path d="m24.373 14.349c0.013 0.032 0 0.012 0.033 0.012-0.014-0.033 0-0.014-0.033-0.012z"/>
<path d="m23.66 9.688c-0.362-0.044-0.044 0.283 0 0z"/>
<path d="m23.504 9.838c1e-3 0.075 0.037 2e-3 0 0z"/>
<path d="m25.32 14.646c-0.078 0.018-0.218 0.05-0.252 0.063 0.057 0.191 0.254 0.014 0.252-0.063z"/>
<path d="m21.418 10.858c-0.131 0.029 0 0.047 0 0z"/>
<path d="m25.32 14.646c0.062-0.014 0.089-0.019 0 0z"/>
<path d="m22.268 10.589c0.015-0.056-0.371 0.092 0 0z"/>
<path d="m22.17 10.261c2e-3 0.113-0.027 0.11-0.131 0.109 0.01 0.099 0.166 0.188 0.166 0.12 0.056-0.014 0.098-0.249-0.035-0.229z"/>
<path d="m22.012 10.632c0.053-0.017 0.065-0.214 0 0z"/>
</g><linearGradient id="svg1.hl_2_" x1="215.93" x2="215.93" y1="792.71" y2="774.88" gradientTransform="translate(-195.2 -770.8)" gradientUnits="userSpaceOnUse">
	<stop stop-color="#F2F2F2" stop-opacity="0" offset="0"/>
	<stop stop-color="#F2F2F2" offset="1"/>
</linearGradient>
<path id="svg1.hl_1_" d="m33.147 14.728c-0.033 2.735-2.54 7.178-12.287 7.178-9.354 0-12.835-3.199-12.521-7.656 0.273-3.87 3.254-10.169 12.521-10.169 8.505 0 12.335 6.312 12.287 10.647z" enable-background="new    " fill="url(#svg1.hl_2_)" opacity=".63"/><g fill="#9cd7ff">
<path d="m30.042 3.613c0.906 0.484 1.782 1.047 2.618 1.683 0.924 0.401 1.758 0.949 2.468 1.66 4.808 4.808 2.37 15.068-5.431 22.871-7.801 7.802-18.062 10.239-22.87 5.431-0.772-0.772-1.354-1.685-1.761-2.701-0.604-0.816-1.139-1.666-1.6-2.544 0.242 2.34 1.108 4.396 2.659 5.947 5.196 5.195 16.086 2.76 24.275-5.43 8.19-8.191 10.626-19.08 5.431-24.277-1.516-1.513-3.516-2.375-5.789-2.64z"/>
<path d="m11.46 37.931c-0.906-0.483-1.782-1.046-2.62-1.684-0.923-0.4-1.756-0.948-2.466-1.659-4.808-4.809-2.372-15.07 5.431-22.873 7.802-7.801 18.062-10.238 22.871-5.429 0.771 0.772 1.354 1.684 1.759 2.702 0.604 0.815 1.141 1.665 1.602 2.543-0.242-2.34-1.107-4.397-2.658-5.948-5.195-5.196-16.086-2.759-24.275 5.43-8.19 8.188-10.627 19.078-5.43 24.275 1.512 1.517 3.512 2.378 5.786 2.643z"/>
<path d="m29.887 38.302c0.908-0.484 1.783-1.047 2.621-1.684 0.923-0.4 1.755-0.95 2.465-1.659 4.809-4.809 2.373-15.07-5.428-22.873-7.803-7.801-18.064-10.235-22.873-5.428-0.77 0.772-1.352 1.684-1.759 2.703-0.604 0.815-1.139 1.665-1.6 2.543 0.242-2.341 1.108-4.399 2.657-5.947 5.196-5.196 16.088-2.76 24.276 5.429 8.189 8.19 10.625 19.079 5.429 24.277-1.512 1.513-3.514 2.374-5.788 2.639z"/>
<path d="m11.707 3.429c-0.907 0.485-1.783 1.048-2.621 1.684-0.922 0.401-1.756 0.949-2.466 1.66-4.807 4.809-2.373 15.068 5.43 22.873 7.803 7.803 18.061 10.236 22.87 5.429 0.771-0.771 1.354-1.683 1.761-2.7 0.604-0.817 1.139-1.666 1.6-2.545-0.241 2.34-1.106 4.398-2.656 5.946-5.198 5.195-16.087 2.763-24.276-5.428-8.191-8.191-10.626-19.082-5.43-24.279 1.514-1.514 3.514-2.375 5.788-2.64z"/>
<path d="m40.425 19.836c0.015 0.264 0.02 0.532 0.021 0.799 0.195 0.077 0.354 0.152 0.432 0.225-0.829 0.76-8.186 1.813-20.019 1.813s-19.188-1.052-20.02-1.813c0.079-0.073 0.236-0.148 0.433-0.225 3e-3 -0.267 7e-3 -0.535 0.021-0.8-0.812 0.287-1.293 0.624-1.293 1.024 0 2.582 20.008 2.611 20.86 2.611 0.851 0 20.859-0.029 20.859-2.611 0-0.399-0.48-0.737-1.294-1.023z"/>
<path d="m22.304 40.427c-0.265 0.013-0.53 0.018-0.799 0.021-0.078 0.195-0.152 0.353-0.224 0.432-0.763-0.832-1.812-10.28-1.812-20.021 0-11.833 1.049-19.188 1.812-20.02 0.071 0.08 0.146 0.237 0.224 0.433 0.267 3e-3 0.534 7e-3 0.799 0.021-0.286-0.813-0.624-1.293-1.022-1.293-2.583 0-2.612 20.008-2.612 20.859 0 0.852 0.029 20.861 2.612 20.861 0.398 1e-3 0.734-0.482 1.022-1.293z"/>
</g></svg>
   </g>
  </g>
  <g transform="translate(490,548)" font-family="sans-serif" stroke-linecap="butt" stroke-miterlimit="1.45">
   <text x="159.57829" y="5.0302" clip-path="url(#clipPath3)" stroke="none" xml:space="preserve">Web Browser</text>
  </g>
  <g transform="matrix(1.0127 0 0 1.0058 499.43 488.34)">
   <g clip-path="url(#clipPath6)">
    <svg width="65" height="53" alignment-baseline="auto" clip="auto" clip-path="none" color="#000000" color-interpolation="srgb" color-interpolation-filters="linearrgb" color-profile="auto" color-rendering="auto" cursor="auto" dominant-baseline="auto" enable-background="new -0.811 -0.063 65 53" fill="#000000" flood-color="rgb(0, 0, 0)" font-family="Arial, Helvetica, sans-serif" font-size="12px" font-weight="400" glyph-orientation-vertical="auto" image-rendering="auto" kerning="auto" lighting-color="rgb(255, 255, 255)" overflow="hidden" pointer-events="visiblepainted" shape-rendering="auto" stop-color="#000000" stroke="none" stroke-linecap="butt" stroke-miterlimit="4" text-rendering="auto" style="text-decoration-line:none" src="none" version="1.1" viewBox="-0.811 -0.063 65 53" xml:space="preserve">

<linearGradient id="svg2.SVGID_1_" x1="220.96" x2="220.96" y1="824.41" y2="801.09" gradientTransform="translate(-195.2 -770.8)" gradientUnits="userSpaceOnUse">
	<stop stop-color="#808080" offset=".0319"/>
	<stop stop-color="#939393" offset=".1229"/>
	<stop stop-color="#ABABAB" offset=".2702"/>
	<stop stop-color="#BCBCBC" offset=".4266"/>
	<stop stop-color="#C6C6C6" offset=".5968"/>
	<stop stop-color="#C9C9C9" offset=".8061"/>
</linearGradient>
<path d="m51.333 51.918c0.195 0.459-0.053 0.836-0.553 0.836h-50.2c-0.5 0-0.604-0.272-0.232-0.605l8.023-7.191c0.373-0.334 1.086-0.605 1.586-0.605h37.255c0.498 0 1.065 0.377 1.265 0.836z" fill="url(#svg2.SVGID_1_)"/>
<path d="m51.333 51.918c0.195 0.459-0.053 0.836-0.553 0.836h-50.2c-0.5 0-0.604-0.272-0.232-0.605l8.023-7.191c0.373-0.334 1.086-0.605 1.586-0.605h37.255c0.498 0 1.065 0.377 1.265 0.836z" fill="none" stroke="#8d8d8d" stroke-linecap="round" stroke-linejoin="round" stroke-miterlimit="10" stroke-width=".25"/><g fill="#717171">
<path d="m32.117 50.571c0 0.25-0.205 0.454-0.455 0.454h-27.638c-0.25 0-0.304-0.139-0.119-0.307l5.638-5.154c0.184-0.17 0.539-0.309 0.789-0.309h21.332c0.25 0 0.454 0.205 0.454 0.455z"/>
<path d="m40.738 50.598c0.086 0.236 0.359 0.428 0.609 0.428h7.465c0.25 0 0.375-0.188 0.279-0.42l-2.049-4.93c-0.098-0.229-0.379-0.42-0.629-0.42h-7.17c-0.25 0-0.386 0.191-0.301 0.428z"/>
<path d="m32.89 50.571c0 0.25 0.205 0.454 0.455 0.454h6.135c0.25 0 0.382-0.189 0.293-0.426l-0.156-0.409c-0.089-0.233-0.365-0.421-0.615-0.416l-1.045 0.021c-0.25 4e-3 -0.509-0.189-0.574-0.432l-0.021-0.082c-0.065-0.242-0.321-0.439-0.571-0.439h-1.316c-0.25 0-0.444 0.205-0.432 0.453l2e-3 0.059c0.016 0.25-0.181 0.455-0.431 0.459l-1.269 0.021c-0.25 6e-3 -0.454 0.211-0.454 0.461z"/>
<path d="m32.89 47.004c0 0.25 0.205 0.455 0.455 0.455h4.845c0.25 0 0.396-0.195 0.323-0.437l-0.402-1.333c-0.07-0.238-0.335-0.438-0.585-0.438h-4.181c-0.25 0-0.455 0.205-0.455 0.455z"/>
</g><linearGradient id="svg2.SVGID_2_" x1="535.2" x2="511.46" y1="-1418.7" y2="-1418.7" gradientTransform="matrix(1 0 0 -1 -488 -1376.6)" gradientUnits="userSpaceOnUse">
	<stop stop-color="#4D4D4D" offset="0"/>
	<stop stop-color="#999" offset="1"/>
</linearGradient>
<path d="m47.048 40.514c0 0.965-6.758 1.404-12.371 1.404-3.889 0-10.914-0.348-11.367-1.267v1.661c0 0.725 4.803 1.234 11.357 1.234s12.381-0.643 12.381-1.361v-1.671z" fill="url(#svg2.SVGID_2_)"/>
<path d="m35.179 39.307c6.556 0 11.869 0.584 11.869 1.307 0 0.721-5.313 1.42-11.869 1.42-6.701 0-11.869-0.697-11.869-1.42s5.315-1.307 11.869-1.307z" fill="#808080"/>
<linearGradient id="svg2.SVGID_3_" x1="525.77" x2="520.77" y1="-1412.7" y2="-1412.7" gradientTransform="matrix(1 0 0 -1 -488 -1376.6)" gradientUnits="userSpaceOnUse">
	<stop stop-color="#999" offset="0"/>
	<stop stop-color="#8D8D8D" offset=".0417"/>
	<stop stop-color="#717171" offset=".1617"/>
	<stop stop-color="#5D5D5D" offset=".2821"/>
	<stop stop-color="#515151" offset=".4021"/>
	<stop stop-color="#4D4D4D" offset=".5212"/>
	<stop stop-color="#565656" offset=".6202"/>
	<stop stop-color="#6E6E6E" offset=".7817"/>
	<stop stop-color="#969696" offset=".9844"/>
	<stop stop-color="#999" offset="1"/>
</linearGradient>
<path d="m37.734 40.896s-1.477 0.096-2.498 0.096-2.499-0.096-2.499-0.096v-9.768h4.997z" fill="url(#svg2.SVGID_3_)"/>
<radialGradient id="svg2.SVGID_4_" cx="415.87" cy="-1386.5" r="24.078" gradientTransform="matrix(1.15 0 0 -1 -453.47 -1376.6)" gradientUnits="userSpaceOnUse">
	<stop stop-color="#F2F2F2" offset="0"/>
	<stop stop-color="#666" offset="1"/>
</radialGradient>
<path d="m9.453 2.122c0-1.1 0.9-2 2-2h48.246c1.1 0 2 0.9 2 2v30.073c0 1.101-0.9 2-2 2h-48.246c-1.1 0-2-0.899-2-2z" fill="url(#svg2.SVGID_4_)"/>
<path d="m9.453 2.122c0-1.1 0.9-2 2-2h48.246c1.1 0 2 0.9 2 2v30.073c0 1.101-0.9 2-2 2h-48.246c-1.1 0-2-0.899-2-2z" fill="none" stroke="#666" stroke-linecap="round" stroke-linejoin="round" stroke-miterlimit="10" stroke-width=".2436"/>
<radialGradient id="svg2.SVGID_5_" cx="402.15" cy="-1378.4" r="53.334" fx="444.11" fy="-1385.6" gradientTransform="matrix(1.1935 0 0 -1 -443.57 -1376.6)" gradientUnits="userSpaceOnUse">
	<stop stop-color="#4D4D4D" offset="0"/>
	<stop stop-color="#999" offset="1"/>
</radialGradient>
<path d="m10.475 3.143c0-1.1 0.9-2 2-2h46.429c1.1 0 2 0.9 2 2v27.805c0 1.1-0.9 2-2 2h-46.429c-1.1 0-2-0.9-2-2z" fill="url(#svg2.SVGID_5_)"/>
<radialGradient id="svg2.SVGID_6_" cx="402.94" cy="-1378.5" r="34.187" gradientTransform="matrix(1.1923 0 0 -1 -443.83 -1376.6)" gradientUnits="userSpaceOnUse">
	<stop stop-color="#9CD7FF" offset="0"/>
	<stop stop-color="#3C89C9" offset="1"/>
</radialGradient>
<path d="m11.043 3.598c0-1.1 0.9-2 2-2h45.294c1.1 0 2 0.9 2 2v26.895c0 1.1-0.9 2-2 2h-45.294c-1.1 0-2-0.9-2-2z" fill="url(#svg2.SVGID_6_)"/>
<path d="m11.043 24.936v-21.338c0-1.1 0.9-2 2-2h45.294c1.1 0 2 0.9 2 2v13.539l-23.164 4.94c-1.064 0.273-2.836 0.547-3.935 0.609z" fill="#f2f2f2" opacity=".24"/>
<path d="m58.777 46.596c-3e-3 -2e-3 -5e-3 -2e-3 -7e-3 0-0.188-0.061-0.429-0.254-0.702-0.482 0.267 0.154 0.51 0.322 0.709 0.482z" fill="#c9c9c9"/>
<radialGradient id="svg2.SVGID_7_" cx="450.86" cy="1259.2" r="6.3766" gradientTransform="translate(-390.4 -1211.6)" gradientUnits="userSpaceOnUse">
	<stop stop-color="#C9C9C9" offset=".1939"/>
	<stop stop-color="#C6C6C6" offset=".3299"/>
	<stop stop-color="#BCBCBC" offset=".4405"/>
	<stop stop-color="#ABABAB" offset=".5421"/>
	<stop stop-color="#939393" offset=".6378"/>
	<stop stop-color="#808080" offset=".697"/>
</radialGradient>
<path d="m58.77 46.596c5e-3 2e-3 7e-3 2e-3 9e-3 2e-3 2e-3 4e-3 6e-3 4e-3 6e-3 4e-3 0.084 0.023 0.153 0.021 0.213-0.021 0.017-8e-3 0.026-0.021 0.037-0.041 0.604-0.119 1.329-0.154 2.197-0.086 2.032 1.545 3.77 4.625 1.18 5.801-2.048 0.929-3.543 0.783-4.722-0.485-0.624-0.675-1.239-1.47-1.729-2.265 0.265-1.136 0.894-2.444 2.809-2.909z" fill="url(#svg2.SVGID_7_)"/>
<radialGradient id="svg2.SVGID_8_" cx="603.57" cy="1426.6" r="3.8245" gradientTransform="matrix(.9761 .2173 -.1478 .6641 -320.04 -1031.2)" gradientUnits="userSpaceOnUse">
	<stop stop-color="#C9C9C9" offset=".1939"/>
	<stop stop-color="#C6C6C6" offset=".3739"/>
	<stop stop-color="#BCBCBC" offset=".5203"/>
	<stop stop-color="#ABABAB" offset=".6549"/>
	<stop stop-color="#939494" offset=".7816"/>
	<stop stop-color="#868787" offset=".8364"/>
</radialGradient>
<path d="m55.96 49.504c-0.893-1.438-1.355-2.869-0.664-3.533 0.244-0.236 0.539-0.422 0.863-0.559 0.6 0.051 1.307 0.346 1.9 0.691 2e-3 0 5e-3 4e-3 7e-3 6e-3 0.272 0.229 0.519 0.426 0.702 0.482-1.913 0.47-2.542 1.778-2.808 2.913z" fill="url(#svg2.SVGID_8_)"/>
<radialGradient id="svg2.SVGID_9_" cx="448.72" cy="1259.3" r="3.928" gradientTransform="translate(-390.4 -1211.6)" gradientUnits="userSpaceOnUse">
	<stop stop-color="#C9C9C9" offset=".1939"/>
	<stop stop-color="#C6C6C6" offset=".3496"/>
	<stop stop-color="#BCBCBC" offset=".4761"/>
	<stop stop-color="#ABABAB" offset=".5925"/>
	<stop stop-color="#939393" offset=".702"/>
	<stop stop-color="#808080" offset=".7697"/>
</radialGradient>
<path d="m56.16 45.414c1.353-0.564 3.287-0.266 4.963 0.955 0.035 0.025 0.073 0.055 0.109 0.084-0.867-0.068-1.818-0.033-2.427 0.086-0.109-0.105-0.763-0.449-0.744-0.434-0.597-0.347-1.304-0.642-1.901-0.691z" fill="url(#svg2.SVGID_9_)"/><g fill="none" stroke="#717171" stroke-linecap="round" stroke-miterlimit="10" stroke-width=".1136">
<path d="m56.16 45.414c1.353-0.564 3.287-0.266 4.963 0.955 0.035 0.025 0.073 0.055 0.109 0.084 2.032 1.545 3.77 4.627 1.18 5.801-2.048 0.93-3.543 0.785-4.722-0.484-0.624-0.676-1.239-1.471-1.729-2.264-0.892-1.438-1.354-2.871-0.664-3.533 0.244-0.239 0.538-0.424 0.863-0.559z"/>
<path d="m58.777 46.596c0.083-0.021 0.168-0.041 0.258-0.057 0.604-0.119 1.329-0.154 2.197-0.086"/>
<path d="m55.958 49.516c0-2e-3 2e-3 -8e-3 2e-3 -0.012 0.269-1.135 0.896-2.441 2.813-2.908"/>
<path d="m58.061 46.105c-0.597-0.35-1.306-0.643-1.901-0.693"/>
<path d="m58.779 46.598c0-2e-3 0-2e-3 -2e-3 -2e-3 -0.199-0.16-0.441-0.328-0.709-0.482"/>
</g><path d="m58.259 45.936c0.354 0.264 0.438 0.48 0.548 0.604-0.091 0.018-0.173 0.033-0.259 0.059-0.355-0.393-0.996-0.666-0.955-0.727 0.095-0.143 0.47-0.081 0.666 0.064z" fill="#4d4d4d"/>
</svg>
   </g>
  </g>
  <g stroke-linecap="butt" stroke-miterlimit="1.45">
   <g transform="translate(490,548)" font-family="sans-serif">
    <text x="4.3628998" y="10.7925" clip-path="url(#clipPath3)" stroke="none" xml:space="preserve">Desktop App</text>
    <g stroke-dasharray="6, 2">
     <path d="m10.206-289.34-38.344-0.0971" clip-path="url(#clipPath3)" fill="none"/>
     <path d="m-32.137-289.45 7.9848 6.0202-2.9848-6.0075 3.0152-5.9924z" clip-path="url(#clipPath3)" stroke="none"/>
     <path d="m-322.17 81.342v-92.284" clip-path="url(#clipPath3)" fill="none"/>
    </g>
   </g>
   <g transform="translate(490,548)" fill="#fff" stroke-dasharray="6, 2">
    <path d="m-322.17-17.942 5 7-5 7-5-7z" clip-path="url(#clipPath3)" stroke="none"/>
    <path d="m-322.17-17.942 5 7-5 7-5-7z" clip-path="url(#clipPath3)" fill="none" stroke="#000" stroke-dasharray="none"/>
   </g>
   <g transform="translate(490,548)" font-family="sans-serif">
    <text x="-392.1731" y="35.858398" clip-path="url(#clipPath3)" stroke="none" xml:space="preserve">Mime Type</text>
    <path d="m-322.17-70.956v-92.284" clip-path="url(#clipPath3)" fill="none" stroke-dasharray="6, 2"/>
   </g>
   <g transform="translate(490,548)" fill="#fff" stroke-dasharray="6, 2">
    <path d="m-322.17-170.24 5 7-5 7-5-7z" clip-path="url(#clipPath3)" stroke="none"/>
    <path d="m-322.17-170.24 5 7-5 7-5-7z" clip-path="url(#clipPath3)" fill="none" stroke="#000" stroke-dasharray="none"/>
   </g>
   <g transform="translate(490,548)" stroke-dasharray="12, 4" stroke-width="2">
    <path d="m-434.68-70.962v-292.77h20.036" clip-path="url(#clipPath3)" fill="none"/>
    <path d="m-405.65-363.73-13.5-5.625 3.375 5.625-3.375 5.625z" clip-path="url(#clipPath3)" stroke="none"/>
   </g>
   <g transform="rotate(-90 242.07 206.73)" font-family="sans-serif">
    <text x="2" y="13.1387" clip-path="url(#clipPath7)" stroke="none" xml:space="preserve">Open a viewer related to the mime type</text>
   </g>
   <g transform="translate(490,548)" stroke-dasharray="6, 2">
    <path d="m-322.17-337.19v106.94" clip-path="url(#clipPath3)" fill="none"/>
    <path d="m-322.17-223.25-5-7 5-7 5 7z" clip-path="url(#clipPath3)" fill="#fff" stroke="none"/>
    <path d="m-322.17-223.25-5-7 5-7 5 7z" clip-path="url(#clipPath3)" fill="none" stroke-dasharray="none"/>
    <path d="m-244.61-420.25-35.508 25.874" clip-path="url(#clipPath3)" fill="none"/>
    <path d="m-285.77-390.25 2.7128-8.1633 8.602-0.0815-2.7128 8.1634z" clip-path="url(#clipPath3)" fill="#fff" stroke="none"/>
    <path d="m-285.77-390.25 2.7128-8.1633 8.602-0.0815-2.7128 8.1634z" clip-path="url(#clipPath3)" fill="none" stroke-dasharray="none"/>
    <path d="m-186.2-363.73h-45.481" clip-path="url(#clipPath3)" fill="none"/>
    <path d="m-238.68-363.73 7-5 7 5-7 5z" clip-path="url(#clipPath3)" fill="#fff" stroke="none"/>
    <g stroke-dasharray="none">
     <path d="m-238.68-363.73 7-5 7 5-7 5z" clip-path="url(#clipPath3)" fill="none"/>
     <path d="m202.74-52.835 34.28-201.76" clip-path="url(#clipPath3)" fill="none"/>
     <path d="m238.36-262.48-6.9395 10.993 5.4319-2.1201 4.4269 3.7952z" clip-path="url(#clipPath3)" stroke="none"/>
    </g>
   </g>
   <g transform="matrix(.1675 -.9859 .9859 .1675 668.18 454.04)" font-family="sans-serif">
    <text x="2" y="13.1387" clip-path="url(#clipPath8)" stroke="none" xml:space="preserve">Weasis protocol (URI)</text>
   </g>
   <g transform="translate(490,548)">
    <path d="m48.563-59.611 42.658-195.04" clip-path="url(#clipPath3)" fill="none"/>
    <path d="m92.931-262.46-7.4486 10.654 5.5256-1.8623 4.2435 3.999z" clip-path="url(#clipPath3)" stroke="none"/>
   </g>
   <g transform="matrix(.2137 -.9769 .9769 .2137 512.05 458.53)" font-family="sans-serif">
    <text x="2" y="13.1387" clip-path="url(#clipPath9)" stroke="none" xml:space="preserve">Mime types / Extensions</text>
   </g>
  </g>
 </g>
</svg>
