<?xml version="1.0" encoding="UTF-8"?>
<!-- Created with Inkscape (http://www.inkscape.org/) -->
<svg width="290.86mm" height="180.12mm" version="1.1" viewBox="0 0 290.86 180.12" xmlns="http://www.w3.org/2000/svg">
 <defs>
  <clipPath id="clipPath2">
   <path d="m-825-1038h1059v640h-1059z"/>
  </clipPath>
  <clipPath id="clipPath3">
   <path d="m-820-1033h1059v640h-1059z"/>
  </clipPath>
 </defs>
 <g transform="translate(64.459 -23.229)" shape-rendering="geometricPrecision" text-rendering="geometricPrecision">
  <g transform="matrix(.26458 0 0 .26458 158.57 302.38)" fill="#b8b0a3" stroke="#b8b0a3">
   <rect x="-571.24" y="-585.94" width="134" height="53" rx="4" ry="4" clip-path="url(#clipPath2)" stroke="none"/>
  </g>
  <g transform="matrix(.26458 0 0 .26458 158.57 302.38)" fill="#9f9" stroke="#9f9">
   <rect x="-571.24" y="-585.94" width="134" height="53" rx="4" ry="4" clip-path="url(#clipPath3)" stroke="none"/>
  </g>
  <g transform="matrix(.26458 0 0 .26458 158.57 302.38)" font-family="sans-serif" font-size="14px" stroke-miterlimit="1.45">
   <text x="-552.12512" y="-562.7392" clip-path="url(#clipPath3)" xml:space="preserve">DICOM Codec</text>
   <text x="-541.85748" y="-546.44232" clip-path="url(#clipPath3)" xml:space="preserve">(dcm4che)</text>
   <rect x="-571.24" y="-585.94" width="134" height="53" rx="4" ry="4" clip-path="url(#clipPath3)" fill="none"/>
  </g>
  <g transform="matrix(.26458 0 0 .26458 158.57 302.38)" fill="#b8b0a3" stroke="#b8b0a3">
   <rect x="-571.24" y="-698.14" width="175" height="53" rx="4" ry="4" clip-path="url(#clipPath2)" stroke="none"/>
  </g>
  <g transform="matrix(.26458 0 0 .26458 158.57 302.38)" fill="#ff8f45" stroke="#ff8f45">
   <rect x="-571.24" y="-698.14" width="175" height="53" rx="4" ry="4" clip-path="url(#clipPath3)" stroke="none"/>
  </g>
  <g transform="matrix(.26458 0 0 .26458 158.57 302.38)" font-family="sans-serif" font-size="14px" stroke-miterlimit="1.45">
   <text x="-539.15491" y="-666.79187" clip-path="url(#clipPath3)" xml:space="preserve">DICOM Explorer</text>
   <rect x="-571.24" y="-698.14" width="175" height="53" rx="4" ry="4" clip-path="url(#clipPath3)" fill="none"/>
  </g>
  <g transform="matrix(.26458 0 0 .26458 158.57 302.38)" fill="#b8b0a3" stroke="#b8b0a3">
   <rect x="-567.24" y="-934.27" width="152" height="53" rx="4" ry="4" clip-path="url(#clipPath2)" stroke="none"/>
  </g>
  <g transform="matrix(.26458 0 0 .26458 158.57 302.38)" fill="#fc9" stroke="#fc9">
   <rect x="-567.24" y="-934.27" width="152" height="53" rx="4" ry="4" clip-path="url(#clipPath3)" stroke="none"/>
  </g>
  <g transform="matrix(.26458 0 0 .26458 158.57 302.38)" font-family="sans-serif" font-size="14px" stroke-miterlimit="1.45">
   <text x="-553.37457" y="-902.92139" clip-path="url(#clipPath3)" xml:space="preserve">2D DICOM Viewer</text>
   <rect x="-567.24" y="-934.27" width="152" height="53" rx="4" ry="4" clip-path="url(#clipPath3)" fill="none"/>
  </g>
  <g transform="matrix(.26458 0 0 .26458 158.57 302.38)" fill="#b8b0a3" stroke="#b8b0a3">
   <rect x="-567.24" y="-1017.3" width="152" height="53" rx="4" ry="4" clip-path="url(#clipPath2)" stroke="none"/>
  </g>
  <g transform="matrix(.26458 0 0 .26458 158.57 302.38)" fill="#fc9" stroke="#fc9">
   <rect x="-567.24" y="-1017.3" width="152" height="53" rx="4" ry="4" clip-path="url(#clipPath3)" stroke="none"/>
  </g>
  <g transform="matrix(.26458 0 0 .26458 158.57 302.38)" font-family="sans-serif" font-size="14px" stroke-miterlimit="1.45">
   <text x="-552.19202" y="-985.92139" clip-path="url(#clipPath3)" xml:space="preserve">DICOM SR viewer</text>
   <rect x="-567.24" y="-1017.3" width="152" height="53" rx="4" ry="4" clip-path="url(#clipPath3)" fill="none"/>
  </g>
  <g transform="matrix(.26458 0 0 .26458 158.57 302.38)" fill="#b8b0a3" stroke="#b8b0a3">
   <rect x="-390.39" y="-466.09" width="134" height="53" rx="4" ry="4" clip-path="url(#clipPath2)" stroke="none"/>
  </g>
  <g transform="matrix(.26458 0 0 .26458 158.57 302.38)" fill="#7497ff" stroke="#7497ff">
   <rect x="-390.39" y="-466.09" width="134" height="53" rx="4" ry="4" clip-path="url(#clipPath3)" stroke="none"/>
  </g>
  <g transform="matrix(.26458 0 0 .26458 158.57 302.38)" font-family="sans-serif" font-size="14px" stroke-miterlimit="1.45">
   <text x="-349.15881" y="-434.74649" clip-path="url(#clipPath3)" xml:space="preserve">Core UI</text>
   <rect x="-390.39" y="-466.09" width="134" height="53" rx="4" ry="4" clip-path="url(#clipPath3)" fill="none"/>
  </g>
  <g transform="matrix(.26458 0 0 .26458 158.57 302.38)" fill="#b8b0a3" stroke="#b8b0a3">
   <rect x="-571.24" y="-466.09" width="134" height="53" rx="4" ry="4" clip-path="url(#clipPath2)" stroke="none"/>
  </g>
  <g transform="matrix(.26458 0 0 .26458 158.57 302.38)" fill="#7497ff" stroke="#7497ff">
   <rect x="-571.24" y="-466.09" width="134" height="53" rx="4" ry="4" clip-path="url(#clipPath3)" stroke="none"/>
  </g>
  <g transform="matrix(.26458 0 0 .26458 158.57 302.38)" font-family="sans-serif" font-size="14px" stroke-miterlimit="1.45">
   <text x="-533.89368" y="-434.74649" clip-path="url(#clipPath3)" xml:space="preserve">Core API</text>
   <rect x="-571.24" y="-466.09" width="134" height="53" rx="4" ry="4" clip-path="url(#clipPath3)" fill="none"/>
  </g>
  <g transform="matrix(.26458 0 0 .26458 158.57 302.38)" fill="#b8b0a3" stroke="#b8b0a3">
   <rect x="-400.75" y="-585.94" width="150" height="53" rx="4" ry="4" clip-path="url(#clipPath2)" stroke="none"/>
  </g>
  <g transform="matrix(.26458 0 0 .26458 158.57 302.38)" fill="#9f9" stroke="#9f9">
   <rect x="-400.75" y="-585.94" width="150" height="53" rx="4" ry="4" clip-path="url(#clipPath3)" stroke="none"/>
  </g>
  <g transform="matrix(.26458 0 0 .26458 158.57 302.38)" font-family="sans-serif" font-size="14px" stroke-miterlimit="1.45">
   <text x="-372.25659" y="-554.59082" clip-path="url(#clipPath3)" xml:space="preserve">Java ImageIO</text>
   <rect x="-400.75" y="-585.94" width="150" height="53" rx="4" ry="4" clip-path="url(#clipPath3)" fill="none"/>
  </g>
  <g transform="matrix(.26458 0 0 .26458 158.57 302.38)" fill="#b8b0a3" stroke="#b8b0a3">
   <rect x="-221.8" y="-585.94" width="134" height="53" rx="4" ry="4" clip-path="url(#clipPath2)" stroke="none"/>
  </g>
  <g transform="matrix(.26458 0 0 .26458 158.57 302.38)" fill="#9f9" stroke="#9f9">
   <rect x="-221.8" y="-585.94" width="134" height="53" rx="4" ry="4" clip-path="url(#clipPath3)" stroke="none"/>
  </g>
  <g transform="matrix(.26458 0 0 .26458 158.57 302.38)" font-family="sans-serif" font-size="14px" stroke-miterlimit="1.45">
   <text x="-210.8493" y="-562.7392" clip-path="url(#clipPath3)" xml:space="preserve">OpenCV images</text>
   <text x="-182.4426" y="-546.44232" clip-path="url(#clipPath3)" xml:space="preserve"> Codecs</text>
   <rect x="-221.8" y="-585.94" width="134" height="53" rx="4" ry="4" clip-path="url(#clipPath3)" fill="none"/>
  </g>
  <g transform="matrix(.26458 0 0 .26458 158.57 302.38)" fill="#b8b0a3" stroke="#b8b0a3">
   <rect x="-341.31" y="-698.14" width="175" height="53" rx="4" ry="4" clip-path="url(#clipPath2)" stroke="none"/>
  </g>
  <g transform="matrix(.26458 0 0 .26458 158.57 302.38)" fill="#ff8f45" stroke="#ff8f45">
   <rect x="-341.31" y="-698.14" width="175" height="53" rx="4" ry="4" clip-path="url(#clipPath3)" stroke="none"/>
  </g>
  <g transform="matrix(.26458 0 0 .26458 158.57 302.38)" font-family="sans-serif" font-size="14px" stroke-miterlimit="1.45">
   <text x="-310.91211" y="-666.79187" clip-path="url(#clipPath3)" xml:space="preserve">Default Explorer</text>
   <rect x="-341.31" y="-698.14" width="175" height="53" rx="4" ry="4" clip-path="url(#clipPath3)" fill="none"/>
  </g>
  <g transform="matrix(.26458 0 0 .26458 158.57 302.38)" fill="#b8b0a3" stroke="#b8b0a3">
   <rect x="-344.31" y="-810.34" width="181" height="53" rx="4" ry="4" clip-path="url(#clipPath2)" stroke="none"/>
  </g>
  <g transform="matrix(.26458 0 0 .26458 158.57 302.38)" fill="#c9f" stroke="#c9f">
   <rect x="-344.31" y="-810.34" width="181" height="53" rx="4" ry="4" clip-path="url(#clipPath3)" stroke="none"/>
  </g>
  <g transform="matrix(.26458 0 0 .26458 158.57 302.38)" font-family="sans-serif" font-size="14px" stroke-miterlimit="1.45">
   <text x="-307.2514" y="-787.14148" clip-path="url(#clipPath3)" xml:space="preserve">Weasis Base UI</text>
   <text x="-337.73291" y="-770.84473" clip-path="url(#clipPath3)" xml:space="preserve">(UI plug-ins aggregator)</text>
   <rect x="-344.31" y="-810.34" width="181" height="53" rx="4" ry="4" clip-path="url(#clipPath3)" fill="none"/>
  </g>
  <g transform="matrix(.26458 0 0 .26458 158.57 302.38)" fill="#b8b0a3" stroke="#b8b0a3">
   <rect x="37.541" y="-585.94" width="181" height="53" rx="4" ry="4" clip-path="url(#clipPath2)" stroke="none"/>
  </g>
  <g transform="matrix(.26458 0 0 .26458 158.57 302.38)" fill="#9f9" stroke="#9f9">
   <rect x="37.541" y="-585.94" width="181" height="53" rx="4" ry="4" clip-path="url(#clipPath3)" stroke="none"/>
  </g>
  <g transform="matrix(.26458 0 0 .26458 158.57 302.38)" font-family="sans-serif" font-size="14px" stroke-miterlimit="1.45">
   <text x="81.563103" y="-554.59082" clip-path="url(#clipPath3)" xml:space="preserve">Other codecs</text>
   <rect x="37.541" y="-585.94" width="181" height="53" rx="4" ry="4" clip-path="url(#clipPath3)" fill="none"/>
  </g>
  <g transform="matrix(.26458 0 0 .26458 158.57 302.38)" fill="#b8b0a3" stroke="#b8b0a3">
   <rect x="37.541" y="-930.18" width="181" height="53" rx="4" ry="4" clip-path="url(#clipPath2)" stroke="none"/>
  </g>
  <g transform="matrix(.26458 0 0 .26458 158.57 302.38)" fill="#fc9" stroke="#fc9">
   <rect x="37.541" y="-930.18" width="181" height="53" rx="4" ry="4" clip-path="url(#clipPath3)" stroke="none"/>
  </g>
  <g transform="matrix(.26458 0 0 .26458 158.57 302.38)" font-family="sans-serif" font-size="14px" stroke-miterlimit="1.45">
   <text x="75.048401" y="-898.8374" clip-path="url(#clipPath3)" xml:space="preserve">Custom Viewer</text>
   <rect x="37.541" y="-930.18" width="181" height="53" rx="4" ry="4" clip-path="url(#clipPath3)" fill="none"/>
  </g>
  <g transform="matrix(.26458 0 0 .26458 158.57 302.38)" fill="#b8b0a3" stroke="#b8b0a3">
   <rect x="-180.61" y="-934.27" width="145" height="53" rx="4" ry="4" clip-path="url(#clipPath2)" stroke="none"/>
  </g>
  <g transform="matrix(.26458 0 0 .26458 158.57 302.38)" fill="#fc9" stroke="#fc9">
   <rect x="-180.61" y="-934.27" width="145" height="53" rx="4" ry="4" clip-path="url(#clipPath3)" stroke="none"/>
  </g>
  <g transform="matrix(.26458 0 0 .26458 158.57 302.38)" font-family="sans-serif" font-size="14px" stroke-miterlimit="1.45">
   <text x="-156.20441" y="-902.92139" clip-path="url(#clipPath3)" xml:space="preserve">Image Viewer</text>
   <rect x="-180.61" y="-934.27" width="145" height="53" rx="4" ry="4" clip-path="url(#clipPath3)" fill="none"/>
  </g>
  <g transform="matrix(.26458 0 0 .26458 158.57 302.38)" fill="#b8b0a3" stroke="#b8b0a3">
   <rect x="-385.24" y="-1017.3" width="161.09" height="53" rx="4" ry="4" clip-path="url(#clipPath2)" stroke="none"/>
  </g>
  <g transform="matrix(.26458 0 0 .26458 158.57 302.38)" fill="#fc9" stroke="#fc9">
   <rect x="-385.24" y="-1017.3" width="161.09" height="53" rx="4" ry="4" clip-path="url(#clipPath3)" stroke="none"/>
  </g>
  <g transform="matrix(.26458 0 0 .26458 158.57 302.38)" font-family="sans-serif" font-size="14px" stroke-miterlimit="1.45">
   <text x="-374.71701" y="-985.92139" clip-path="url(#clipPath3)" xml:space="preserve">DICOM Audio Player</text>
   <rect x="-385.24" y="-1017.3" width="161.09" height="53" rx="4" ry="4" clip-path="url(#clipPath3)" fill="none"/>
  </g>
  <g transform="matrix(.26458 0 0 .26458 158.57 302.38)" fill="#c0c0c0" stroke="#c0c0c0">
   <circle cx="-798.43" cy="-504.07" r="5.7368" clip-path="url(#clipPath3)" stroke="none"/>
  </g>
  <g transform="matrix(.26458 0 0 .26458 158.57 302.38)" stroke-miterlimit="1.45">
   <circle cx="-798.43" cy="-504.07" r="5.7368" clip-path="url(#clipPath3)" fill="none"/>
  </g>
  <g transform="matrix(.26458 0 0 .26458 158.57 302.38)" fill="#c0c0c0" stroke="#c0c0c0">
   <circle cx="212.8" cy="-504.07" r="5.7368" clip-path="url(#clipPath3)" stroke="none"/>
  </g>
  <g transform="matrix(.26458 0 0 .26458 158.57 302.38)" stroke-miterlimit="1.45">
   <circle cx="212.8" cy="-504.07" r="5.7368" clip-path="url(#clipPath3)" fill="none"/>
  </g>
  <g transform="matrix(.26458 0 0 .26458 158.57 302.38)" fill="#c0c0c0" stroke="#c0c0c0">
   <circle cx="-798.43" cy="-721.6" r="5.7368" clip-path="url(#clipPath3)" stroke="none"/>
  </g>
  <g transform="matrix(.26458 0 0 .26458 158.57 302.38)" stroke-miterlimit="1.45">
   <circle cx="-798.43" cy="-721.6" r="5.7368" clip-path="url(#clipPath3)" fill="none"/>
  </g>
  <g transform="matrix(.26458 0 0 .26458 158.57 302.38)" fill="#c0c0c0" stroke="#c0c0c0">
   <circle cx="212.8" cy="-721.6" r="5.7368" clip-path="url(#clipPath3)" stroke="none"/>
  </g>
  <g transform="matrix(.26458 0 0 .26458 158.57 302.38)" stroke-miterlimit="1.45">
   <circle cx="212.8" cy="-721.6" r="5.7368" clip-path="url(#clipPath3)" fill="none"/>
  </g>
  <g transform="matrix(.26458 0 0 .26458 158.57 302.38)" fill="#c0c0c0" stroke="#c0c0c0">
   <circle cx="-798.43" cy="-844.91" r="5.7368" clip-path="url(#clipPath3)" stroke="none"/>
  </g>
  <g transform="matrix(.26458 0 0 .26458 158.57 302.38)" stroke-miterlimit="1.45">
   <circle cx="-798.43" cy="-844.91" r="5.7368" clip-path="url(#clipPath3)" fill="none"/>
  </g>
  <g transform="matrix(.26458 0 0 .26458 158.57 302.38)" fill="#c0c0c0" stroke="#c0c0c0">
   <circle cx="212.8" cy="-841.45" r="5.7368" clip-path="url(#clipPath3)" stroke="none"/>
  </g>
  <g transform="matrix(.26458 0 0 .26458 158.57 302.38)" stroke-miterlimit="1.45">
   <circle cx="212.8" cy="-841.45" r="5.7368" clip-path="url(#clipPath3)" fill="none"/>
  </g>
  <g transform="matrix(.26458 0 0 .26458 158.57 302.38)" fill="#c0c0c0" stroke="#c0c0c0">
   <circle cx="-798.43" cy="-612.84" r="5.7368" clip-path="url(#clipPath3)" stroke="none"/>
  </g>
  <g transform="matrix(.26458 0 0 .26458 158.57 302.38)" stroke-miterlimit="1.45">
   <circle cx="-798.43" cy="-612.84" r="5.7368" clip-path="url(#clipPath3)" fill="none"/>
  </g>
  <g transform="matrix(.26458 0 0 .26458 158.57 302.38)" fill="#c0c0c0" stroke="#c0c0c0">
   <circle cx="212.8" cy="-612.84" r="5.7368" clip-path="url(#clipPath3)" stroke="none"/>
  </g>
  <g transform="matrix(.26458 0 0 .26458 158.57 302.38)" stroke-miterlimit="1.45">
   <circle cx="212.8" cy="-612.84" r="5.7368" clip-path="url(#clipPath3)" fill="none"/>
   <text x="-796.19318" y="-932.41913" clip-path="url(#clipPath3)" font-family="sans-serif" font-size="14px" xml:space="preserve">Media Viewer or Editor</text>
   <rect x="-804.17" y="-963.77" width="175" height="53" rx="4" ry="4" clip-path="url(#clipPath3)" fill="none" stroke="#c0c0c0" stroke-width="2"/>
   <text x="-765.07941" y="-778.9931" clip-path="url(#clipPath3)" font-family="sans-serif" font-size="14px" xml:space="preserve">UI aggregator</text>
   <rect x="-804.17" y="-810.34" width="175" height="53" rx="4" ry="4" clip-path="url(#clipPath3)" fill="none" stroke="#c0c0c0" stroke-width="2"/>
   <text x="-764.90509" y="-674.94043" clip-path="url(#clipPath3)" font-family="sans-serif" font-size="14px" xml:space="preserve">Data Explorer</text>
   <text x="-766.71997" y="-658.64349" clip-path="url(#clipPath3)" font-family="sans-serif" font-size="14px" xml:space="preserve">(Model / View)</text>
   <rect x="-804.17" y="-698.14" width="175" height="53" rx="4" ry="4" clip-path="url(#clipPath3)" fill="none" stroke="#c0c0c0" stroke-width="2"/>
   <text x="-765.33228" y="-554.59082" clip-path="url(#clipPath3)" font-family="sans-serif" font-size="14px" xml:space="preserve">Media Codecs</text>
   <rect x="-804.17" y="-585.94" width="175" height="53" rx="4" ry="4" clip-path="url(#clipPath3)" fill="none" stroke="#c0c0c0" stroke-width="2"/>
   <text x="-774.35919" y="-434.74649" clip-path="url(#clipPath3)" font-family="sans-serif" font-size="14px" xml:space="preserve">Application Core</text>
   <rect x="-804.17" y="-466.09" width="175" height="53" rx="4" ry="4" clip-path="url(#clipPath3)" fill="none" stroke="#c0c0c0" stroke-width="2"/>
  </g>
  <g transform="matrix(.26458 0 0 .26458 158.57 302.38)" fill="#b8b0a3" stroke="#b8b0a3">
   <rect x="37.541" y="-696.02" width="181" height="53" rx="4" ry="4" clip-path="url(#clipPath2)" stroke="none"/>
  </g>
  <g transform="matrix(.26458 0 0 .26458 158.57 302.38)" fill="#ff8f45" stroke="#ff8f45">
   <rect x="37.541" y="-696.02" width="181" height="53" rx="4" ry="4" clip-path="url(#clipPath3)" stroke="none"/>
  </g>
  <g transform="matrix(.26458 0 0 .26458 158.57 302.38)" font-family="sans-serif" font-size="14px" stroke-miterlimit="1.45">
   <text x="69.699303" y="-664.67499" clip-path="url(#clipPath3)" xml:space="preserve">Custom Explorer</text>
   <rect x="37.541" y="-696.02" width="181" height="53" rx="4" ry="4" clip-path="url(#clipPath3)" fill="none"/>
  </g>
  <g transform="matrix(.26458 0 0 .26458 158.57 302.38)" fill="#b8b0a3" stroke="#b8b0a3">
   <rect x="37.541" y="-810.34" width="181" height="53" rx="4" ry="4" clip-path="url(#clipPath2)" stroke="none"/>
  </g>
  <g transform="matrix(.26458 0 0 .26458 158.57 302.38)" fill="#c9f" stroke="#c9f">
   <rect x="37.541" y="-810.34" width="181" height="53" rx="4" ry="4" clip-path="url(#clipPath3)" stroke="none"/>
  </g>
  <g transform="matrix(.26458 0 0 .26458 158.57 302.38)" font-family="sans-serif" font-size="14px" stroke-miterlimit="1.45">
   <text x="50.585999" y="-778.9931" clip-path="url(#clipPath3)" xml:space="preserve">Custom UI aggregator</text>
   <rect x="37.541" y="-810.34" width="181" height="53" rx="4" ry="4" clip-path="url(#clipPath3)" fill="none"/>
  </g>
  <g transform="matrix(.26458 0 0 .26458 158.57 302.38)" fill="#b8b0a3" stroke="#b8b0a3">
   <rect x="-385.24" y="-934.27" width="161.09" height="53" rx="4" ry="4" clip-path="url(#clipPath2)" stroke="none"/>
  </g>
  <g transform="matrix(.26458 0 0 .26458 158.57 302.38)" fill="#fc9" stroke="#fc9">
   <rect x="-385.24" y="-934.27" width="161.09" height="53" rx="4" ry="4" clip-path="url(#clipPath3)" stroke="none"/>
  </g>
  <g transform="matrix(.26458 0 0 .26458 158.57 302.38)" font-family="sans-serif" font-size="14px" stroke-miterlimit="1.45">
   <text x="-345.99579" y="-902.92139" clip-path="url(#clipPath3)" xml:space="preserve">MPR Viewer</text>
   <rect x="-385.24" y="-934.27" width="161.09" height="53" rx="4" ry="4" clip-path="url(#clipPath3)" fill="none"/>
  </g>
  <g transform="matrix(.26458 0 0 .26458 158.57 302.38)" fill="none" stroke="#c0c0c0" stroke-dasharray="12, 9, 0, 9" stroke-linecap="round" stroke-miterlimit="1.45" stroke-width="3">
   <path d="m-792.69-504.07h999.76" clip-path="url(#clipPath3)"/>
   <path d="m-792.69-721.6h999.76" clip-path="url(#clipPath3)"/>
   <path d="m-792.69-844.91h125.14l874.63 3.4429" clip-path="url(#clipPath3)"/>
   <path d="m-792.69-612.84h999.76" clip-path="url(#clipPath3)"/>
  </g>
 </g>
</svg>
