<?xml version="1.0" encoding="UTF-8"?>
<svg width="265" height="107.44" version="1.1" viewBox="0 0 265 107.44" xml:space="preserve" xmlns="http://www.w3.org/2000/svg" xmlns:cc="http://creativecommons.org/ns#" xmlns:dc="http://purl.org/dc/elements/1.1/" xmlns:rdf="http://www.w3.org/1999/02/22-rdf-syntax-ns#"><metadata><rdf:RDF><cc:Work rdf:about=""><dc:format>image/svg+xml</dc:format><dc:type rdf:resource="http://purl.org/dc/dcmitype/StillImage"/></cc:Work></rdf:RDF></metadata><defs><clipPath id="clipPath16"><path d="m0 0h374.03v147.19h-374.03z"/></clipPath><clipPath id="clipPath80"><path d="m0 0h374.03v147.19h-374.03z"/></clipPath><clipPath id="clipPath96"><path d="m199.18 101.74-16.033-31.996h32.063z"/></clipPath><radialGradient id="radialGradient104" cx="0" cy="0" r="1" gradientTransform="matrix(16.015,0,0,-16.015,199.18,85.744)" gradientUnits="userSpaceOnUse"><stop stop-color="#ed1c24" offset="0"/><stop stop-color="#a00b0f" offset="1"/></radialGradient><clipPath id="clipPath116"><path d="M 0,147.19 H 374.03 V 0 H 0 Z"/></clipPath><clipPath id="clipPath128"><path d="m104.22 118.88c-1.961-1e-3 -3.752-1.107-4.629-2.864l-21.712-43.507-7.301 14.729 12.033 24.162c0.36 0.73 0.54 1.519 0.54 2.305 0 0.947-0.26 1.893-0.775 2.724-0.942 1.524-2.607 2.451-4.399 2.451h-27.559c-1.792 0-3.455-0.927-4.4-2.45-0.514-0.832-0.774-1.778-0.774-2.723 0-0.788 0.178-1.581 0.544-2.309l12.024-24.15-7.398-14.795-21.834 43.572c-0.875 1.748-2.664 2.855-4.625 2.855h-0.986c-1.797 0-3.461-0.93-4.402-2.453-0.514-0.831-0.775-1.775-0.775-2.722 0-0.789 0.181-1.582 0.547-2.314l27.45-54.899c0.879-1.758 2.674-2.858 4.629-2.859 1.956 0 3.754 1.103 4.628 2.863l9.097 18.19 9.097-18.194c0.877-1.756 2.672-2.859 4.627-2.859 1.956 0 3.75 1.101 4.63 2.856l27.45 54.903c0.365 0.733 0.545 1.526 0.545 2.315 0 0.945-0.259 1.886-0.766 2.714l-0.019 0.032 0.011-0.021c-0.945 1.518-2.605 2.447-4.4 2.448z"/></clipPath><linearGradient id="linearGradient136" x2="1" gradientTransform="matrix(0,-79.63,-79.63,0,64.145,114.47)" gradientUnits="userSpaceOnUse"><stop stop-color="#006b2d" offset="0"/><stop stop-color="#07a34a" offset="1"/></linearGradient><clipPath id="clipPath148"><path d="m326.35 118.88c-10.425-4e-3 -18.894-8.473-18.898-18.898 4e-3 -10.427 8.471-18.897 18.898-18.9h6.919c2.091-5e-3 3.91-0.85 5.261-2.272 1.344-1.424 2.19-3.422 2.191-5.73-1e-3 -2.346-0.853-4.375-2.2-5.817-1.352-1.439-3.168-2.291-5.252-2.295h-20.641c-2.861-1e-3 -5.176-2.318-5.176-5.176v-0.987c0-2.857 2.315-5.174 5.176-5.174h20.641c5.169 0 9.904 2.253 13.322 5.784 3.42 3.534 5.576 8.384 5.578 13.665-2e-3 5.255-2.161 10.08-5.582 13.591-3.42 3.509-8.153 5.745-13.318 5.746h-6.919c-2.22 6e-3 -4.076 0.823-5.412 2.153-1.328 1.336-2.146 3.191-2.15 5.412 6e-3 2.287 0.809 4.129 2.117 5.443 1.315 1.309 3.157 2.111 5.445 2.118h14.715c2.858 2e-3 5.174 2.316 5.174 5.175v0.989c0 2.859-2.316 5.172-5.174 5.173z"/></clipPath><linearGradient id="linearGradient156" x2="1" gradientTransform="matrix(0,-79.63,-79.63,0,329.81,114.47)" gradientUnits="userSpaceOnUse"><stop stop-color="#006b2d" offset="0"/><stop stop-color="#07a34a" offset="1"/></linearGradient><clipPath id="clipPath168"><path d="m293.63 118.88c-2.859-1e-3 -5.172-2.317-5.172-5.173v-54.902c2e-3 -2.854 2.31-5.171 5.172-5.174h1.097c2.862 3e-3 5.171 2.32 5.172 5.174v54.902c-1e-3 2.856-2.313 5.171-5.172 5.173z"/></clipPath><linearGradient id="linearGradient176" x2="1" gradientTransform="matrix(0,-79.63,-79.63,0,294.18,114.47)" gradientUnits="userSpaceOnUse"><stop stop-color="#006b2d" offset="0"/><stop stop-color="#07a34a" offset="1"/></linearGradient><clipPath id="clipPath188"><path d="m255 118.88c-10.427-4e-3 -18.895-8.473-18.899-18.898 4e-3 -10.428 8.472-18.897 18.899-18.9h6.919c2.09-5e-3 3.91-0.85 5.259-2.272 1.344-1.424 2.19-3.421 2.192-5.73 0-2.346-0.853-4.375-2.199-5.817-1.353-1.439-3.168-2.291-5.252-2.295h-20.644c-2.859-2e-3 -5.172-2.316-5.174-5.176v-0.987c2e-3 -2.858 2.316-5.172 5.174-5.174h20.644c5.169 0 9.902 2.253 13.32 5.787 3.42 3.531 5.574 8.382 5.576 13.662-2e-3 5.255-2.158 10.08-5.58 13.591-3.42 3.509-8.15 5.745-13.316 5.746h-6.919c-2.22 6e-3 -4.076 0.823-5.411 2.153-1.33 1.336-2.146 3.191-2.149 5.412 5e-3 2.287 0.809 4.129 2.116 5.443 1.314 1.309 3.158 2.111 5.444 2.118h14.715c2.858 2e-3 5.173 2.318 5.175 5.177v0.987c-4e-3 2.859-2.317 5.169-5.175 5.173z"/></clipPath><linearGradient id="linearGradient196" x2="1" gradientTransform="matrix(0,-79.63,-79.63,0,258.46,114.47)" gradientUnits="userSpaceOnUse"><stop stop-color="#006b2d" offset="0"/><stop stop-color="#07a34a" offset="1"/></linearGradient><clipPath id="clipPath208"><path d="m194.81 115.8-27.45-54.904c-0.364-0.727-0.547-1.52-0.547-2.312 0-0.945 0.261-1.892 0.778-2.724 0.938-1.521 2.602-2.451 4.399-2.451h0.987c1.962 0 3.751 1.108 4.626 2.86l21.834 43.578 21.838-43.58c0.876-1.749 2.665-2.858 4.625-2.858h0.99c1.796 0 3.457 0.931 4.4 2.455 0.511 0.832 0.772 1.776 0.772 2.722 0 0.79-0.181 1.583-0.545 2.31l-27.45 54.903-1.788-0.894 1.787 0.895c-0.878 1.752-2.668 2.859-4.629 2.859-1.959-2e-3 -3.747-1.107-4.627-2.859"/></clipPath><linearGradient id="linearGradient216" x2="1" gradientTransform="matrix(0,-79.63,-79.63,0,199.44,114.47)" gradientUnits="userSpaceOnUse"><stop stop-color="#006b2d" offset="0"/><stop stop-color="#07a34a" offset="1"/></linearGradient><clipPath id="clipPath228"><path d="m119.45 118.88c-2.86-1e-3 -5.174-2.314-5.177-5.173v-54.902c3e-3 -2.857 2.314-5.171 5.177-5.174h37.958c2.859 3e-3 5.174 2.316 5.177 5.174v0.989c-2e-3 2.859-2.32 5.172-5.177 5.174h-31.794v16.114h31.608c2.86 2e-3 5.173 2.315 5.176 5.174v0.987c-3e-3 2.86-2.317 5.173-5.176 5.174h-31.608v15.126h31.794c2.859 2e-3 5.175 2.316 5.177 5.177v0.987c-2e-3 2.859-2.32 5.171-5.177 5.173z"/></clipPath><linearGradient id="linearGradient236" x2="1" gradientTransform="matrix(0,-79.63,-79.63,0,138.43,114.47)" gradientUnits="userSpaceOnUse"><stop stop-color="#006b2d" offset="0"/><stop stop-color="#07a34a" offset="1"/></linearGradient><clipPath id="clipPath248"><path d="m55.141 111.49 8.518-17 8.517 17z"/></clipPath><radialGradient id="radialGradient256" cx="0" cy="0" r="1" gradientTransform="matrix(8.5088,0,0,-8.5088,63.659,102.99)" gradientUnits="userSpaceOnUse"><stop stop-color="#ed1c24" offset="0"/><stop stop-color="#a00b0f" offset="1"/></radialGradient></defs><g transform="matrix(.55964 0 0 .55964 0 -.00014648)"><rect width="473.52" height="191.99" rx="25" ry="25" opacity=".1"/></g><g transform="matrix(.69955 0 0 -.69955 0 102.96)"><g clip-path="url(#clipPath16)"><g transform="translate(50.13,26.986)"><path d="m0 0c0 0.41-0.018 0.837-0.106 1.247-0.089 0.409-0.232 0.516-0.232 0.605l0.089 0.125 0.766 0.427 0.16 0.072c0.267 0 0.463-0.927 0.48-1.051 0.463 0.427 1.568 1.051 2.316 1.051 1.157 0 1.656-0.357 1.887-1.069 0.535 0.392 1.495 1.069 2.351 1.069 1.977 0 2.119-1.39 2.119-2.672v-5.911c0-0.143-0.071-0.214-0.214-0.214h-0.926c-0.142 0-0.213 0.071-0.213 0.214v5.947c0 0.765-0.197 1.442-1.14 1.442-0.856 0-1.39-0.481-1.745-0.73v-6.659c0-0.143-0.071-0.214-0.214-0.214h-0.926c-0.142 0-0.214 0.071-0.214 0.214v5.947c0 0.765-0.196 1.442-1.157 1.442-0.802 0-1.425-0.498-1.727-0.748v-6.641c0-0.143-0.072-0.214-0.214-0.214h-0.926c-0.143 0-0.214 0.071-0.214 0.214z" fill="#bcbec0"/></g><g transform="translate(79.079,21.484)"><path d="m0 0 0.053-0.143c0-0.195-1.495-0.926-2.814-0.926-2.368 0.018-3.757 1.817-3.757 4.524 0 2.617 1.318 4.523 3.526 4.523 2.973 0 3.241-2.885 3.241-4.417 0-0.249 0-0.392-0.196-0.392h-5.111c0-1.086 0.428-3.044 2.457-3.044 1.159 0 2.084 0.73 2.191 0.73l0.107-0.107zm-1.211 4.273c0 0.926-0.303 2.601-1.852 2.601-1.638 0-1.995-1.71-1.995-2.601z" fill="#bcbec0"/></g><g transform="translate(98.161,23.478)"><path d="m0 0c0-0.801 0-1.335 0.195-1.781 0.089-0.213 0.322-0.552 0.322-0.658l-0.162-0.143-0.694-0.427-0.142-0.054c-0.249 0-0.57 0.766-0.641 1.051-0.428-0.303-1.3-1.051-2.617-1.051-1.907 0-2.779 2.137-2.779 4.345 0 2.564 0.909 4.701 2.974 4.701 1.105 0 1.71-0.302 2.19-0.605v4.238c0 0.124 0.054 0.195 0.125 0.214l0.873 0.213c0.142 0.036 0.088 0.018 0.213 0.036 0.143 0 0.143-0.143 0.143-0.232zm-1.354 4.203c-0.57 0.302-1.139 0.587-2.03 0.587-1.531 0-1.674-1.745-1.674-3.472 0-1.496 0.125-3.188 1.568-3.188 0.926 0 1.709 0.784 2.136 1.051z" fill="#bcbec0"/></g><g transform="translate(113.7,20.879)"><path d="m0 0c0-0.143-0.071-0.214-0.214-0.214h-0.926c-0.142 0-0.214 0.071-0.214 0.214v7.229h-1.389c-0.142 0-0.213 0.072-0.213 0.214v0.677c0 0.142 0.071 0.213 0.213 0.213h2.511c0.196 0 0.232-0.106 0.232-0.267zm-0.767 10.381c-0.605 0-1.086 0.481-1.086 1.086 0 0.606 0.481 1.087 1.086 1.087 0.606 0 1.087-0.499 1.087-1.087 0-0.587-0.481-1.086-1.087-1.086" fill="#bcbec0"/></g><g transform="translate(132.71,21.484)"><path d="m0 0 0.054-0.143c0-0.195-1.496-0.926-2.814-0.926-2.119 0-3.347 1.656-3.347 4.256 0 2.974 1.424 4.791 3.614 4.791 1.193 0 2.564-0.837 2.564-1.104l-0.052-0.143-0.411-0.748-0.106-0.107c-0.071 0-0.837 0.908-1.888 0.908-1.745 0-2.261-1.3-2.261-3.329 0-1.621 0.32-3.33 2.047-3.33 1.158 0 2.083 0.73 2.191 0.73l0.106-0.107z" fill="#bcbec0"/></g><g transform="translate(150.73,23.478)"><path d="m0 0c0-1.122 0.054-1.282 0.214-1.781 0.071-0.213 0.32-0.552 0.32-0.658l-0.16-0.143-0.694-0.427-0.143-0.054c-0.267 0-0.588 0.944-0.677 1.193-0.214-0.195-1.086-1.193-2.564-1.193-1.406 0-2.315 0.926-2.315 2.511 0 3.01 3.562 3.063 4.665 3.098v0.642c0 1.032-0.32 1.602-1.584 1.602-1.193 0-2.012-0.57-2.172-0.57l-0.125 0.089-0.232 0.624-0.054 0.231c0 0.303 1.639 0.819 2.779 0.819 2.048 0 2.742-0.997 2.742-2.493zm-1.354 1.442c-0.783-0.017-3.33-0.017-3.33-1.887 0-0.712 0.393-1.513 1.3-1.513 0.927 0 1.745 0.854 2.03 1.104z" fill="#bcbec0"/></g><g transform="translate(167.55,20.985)"><path d="m0 0 0.036-0.125c0-0.195-0.854-0.445-1.514-0.445-0.873 0-1.46 0.357-1.673 0.855-0.249 0.588-0.249 1.959-0.249 2.582v9.242c0 0.124 0.052 0.196 0.124 0.214l0.89 0.213c0.143 0.036 0.089 0.018 0.214 0.036 0.124 0 0.124-0.142 0.124-0.232v-9.508c0-0.553 0.019-1.46 0.054-1.674 0.036-0.196 0.196-0.623 0.712-0.623 0.464 0 0.802 0.231 0.927 0.231 0.106 0 0.106-0.054 0.124-0.107z" fill="#bcbec0"/></g><g transform="translate(230.48,20.701)"><path d="m0 0c-0.054-0.124-0.071-0.16-0.232-0.16h-0.695c-0.16 0-0.177 0.071-0.214 0.16l-2.991 8.12-0.035 0.125c0 0.071 0.035 0.088 0.16 0.124l0.872 0.232 0.179 0.035 0.124-0.142 1.977-5.787c0.125-0.374 0.231-0.784 0.32-1.122h0.036c0.089 0.427 0.16 0.676 0.32 1.104l2.102 5.805 0.124 0.142 0.179-0.035 0.872-0.232c0.125-0.036 0.16-0.053 0.16-0.124l-0.035-0.125z" fill="#bcbec0"/></g><g transform="translate(247.92,20.879)"><path d="m0 0c0-0.143-0.071-0.214-0.214-0.214h-0.927c-0.141 0-0.213 0.071-0.213 0.214v7.229h-1.389c-0.142 0-0.213 0.072-0.213 0.214v0.677c0 0.142 0.071 0.213 0.213 0.213h2.511c0.196 0 0.232-0.106 0.232-0.267zm-0.768 10.381c-0.604 0-1.086 0.481-1.086 1.086 0 0.606 0.482 1.087 1.086 1.087 0.607 0 1.087-0.499 1.087-1.087 0-0.587-0.48-1.086-1.087-1.086" fill="#bcbec0"/></g><g transform="translate(267.11,21.484)"><path d="m0 0 0.053-0.143c0-0.195-1.495-0.926-2.814-0.926-2.368 0.018-3.758 1.817-3.758 4.524 0 2.617 1.319 4.523 3.527 4.523 2.972 0 3.241-2.885 3.241-4.417 0-0.249 0-0.392-0.196-0.392h-5.112c0-1.086 0.429-3.044 2.457-3.044 1.16 0 2.084 0.73 2.192 0.73l0.107-0.107zm-1.211 4.273c0 0.926-0.304 2.601-1.852 2.601-1.638 0-1.996-1.71-1.996-2.601z" fill="#bcbec0"/></g><g transform="translate(287.26,20.718)"><path d="m0 0c-0.036-0.071-0.055-0.178-0.214-0.178h-0.694c-0.179 0-0.214 0.107-0.233 0.178l-1.406 5.396c-0.089 0.356-0.16 0.943-0.195 1.353h-0.036c-0.053-0.517-0.124-0.89-0.267-1.335l-1.674-5.432c-0.018-0.071-0.053-0.16-0.196-0.16h-0.712c-0.144 0-0.18 0.107-0.196 0.178l-2.012 8.067-0.036 0.178 0.16 0.125 0.784 0.213 0.143 0.036c0.089 0 0.106-0.054 0.14-0.178l1.284-5.841c0.071-0.303 0.142-0.694 0.177-0.979h0.037c0.071 0.427 0.125 0.765 0.196 0.979l1.691 5.734c0.034 0.124 0.143 0.16 0.249 0.16h0.677c0.16 0 0.178-0.089 0.214-0.178l1.46-5.947c0.054-0.232 0.089-0.463 0.125-0.695h0.035c0.018 0.214 0.071 0.534 0.106 0.695l1.515 6.072c0.018 0.124 0.089 0.178 0.142 0.178l0.142-0.036 0.783-0.213 0.162-0.125-0.038-0.178z" fill="#bcbec0"/></g><g transform="translate(307.93,21.484)"><path d="m0 0 0.053-0.143c0-0.195-1.495-0.926-2.814-0.926-2.368 0.018-3.758 1.817-3.758 4.524 0 2.617 1.319 4.523 3.527 4.523 2.972 0 3.241-2.885 3.241-4.417 0-0.249 0-0.392-0.196-0.392h-5.112c0-1.086 0.429-3.044 2.457-3.044 1.16 0 2.084 0.73 2.192 0.73l0.107-0.107zm-1.211 4.273c0 0.926-0.304 2.601-1.852 2.601-1.638 0-1.996-1.71-1.996-2.601z" fill="#bcbec0"/></g><g transform="translate(322.45,20.879)"><path d="m0 0c0-0.143-0.071-0.214-0.214-0.214h-0.927c-0.141 0-0.213 0.071-0.213 0.214v6.107c0 0.321-0.053 0.909-0.302 1.354-0.143 0.25-0.198 0.391-0.198 0.445 0.02 0.107 0.09 0.16 0.125 0.178l0.661 0.41 0.176 0.089c0.322 0 0.623-1.104 0.696-1.496 0.463 0.499 1.104 1.496 2.135 1.496 0.412 0 0.874-0.143 0.874-0.303l-0.053-0.142-0.392-0.909-0.107-0.124c-0.089 0-0.249 0.16-0.587 0.16-0.623 0-1.247-0.926-1.674-1.389z" fill="#bcbec0"/></g></g><g transform="translate(197.84,22.177)"><path d="m0 0 3.025 6.04h-6.05z" fill="#231f20"/></g><g clip-path="url(#clipPath80)"><g transform="translate(197.8,25.898)"><path d="m0 0c0.467 0 0.849 0.391 0.849 0.869 0 0.475-0.372 0.849-0.849 0.849-0.479 0-0.871-0.382-0.871-0.849 0-0.478 0.392-0.869 0.871-0.869" fill="#231f20"/></g><g transform="translate(192.08,31.109)"><path d="m0 0 5.183-10.366c0.102-0.202 0.309-0.33 0.537-0.33 0.225 0 0.432 0.128 0.537 0.33l5.181 10.366c0.091 0.186 0.083 0.405-0.027 0.582-0.109 0.176-0.301 0.285-0.511 0.285h-0.184c-0.227 0-0.438-0.129-0.537-0.331l-4.459-8.902-4.461 8.902c-0.1 0.202-0.306 0.331-0.534 0.331h-0.187c-0.209 0-0.401-0.109-0.511-0.285-0.108-0.177-0.116-0.396-0.027-0.582" fill="#231f20"/></g></g><g clip-path="url(#clipPath96)"><path d="m199.18 101.74-16.033-31.996h32.063z" fill="url(#radialGradient104)"/></g><g clip-path="url(#clipPath116)"><g transform="translate(123.62,84.222)"><path d="m0 0v0.457c0.093-0.162 0.076-0.313 0-0.457m0 4.603v0.399c0.066-0.126 0.081-0.259 0-0.399" fill="#009d4b"/></g></g><g clip-path="url(#clipPath128)"><path d="m104.22 118.88c-1.961-1e-3 -3.752-1.107-4.629-2.864l-21.712-43.507-7.301 14.729 12.033 24.162c0.36 0.73 0.54 1.519 0.54 2.305 0 0.947-0.26 1.893-0.775 2.724-0.942 1.524-2.607 2.451-4.399 2.451h-27.559c-1.792 0-3.455-0.927-4.4-2.45-0.514-0.832-0.774-1.778-0.774-2.723 0-0.788 0.178-1.581 0.544-2.309l12.024-24.15-7.398-14.795-21.834 43.572c-0.875 1.748-2.664 2.855-4.625 2.855h-0.986c-1.797 0-3.461-0.93-4.402-2.453-0.514-0.831-0.775-1.775-0.775-2.722 0-0.789 0.181-1.582 0.547-2.314l27.45-54.899c0.879-1.758 2.674-2.858 4.629-2.859 1.956 0 3.754 1.103 4.628 2.863l9.097 18.19 9.097-18.194c0.877-1.756 2.672-2.859 4.627-2.859 1.956 0 3.75 1.101 4.63 2.856l27.45 54.903c0.365 0.733 0.545 1.526 0.545 2.315 0 0.945-0.259 1.886-0.766 2.714l-0.019 0.032 0.011-0.021c-0.945 1.518-2.605 2.447-4.4 2.448z" fill="url(#linearGradient136)"/></g><g clip-path="url(#clipPath148)"><path d="m326.35 118.88c-10.425-4e-3 -18.894-8.473-18.898-18.898 4e-3 -10.427 8.471-18.897 18.898-18.9h6.919c2.091-5e-3 3.91-0.85 5.261-2.272 1.344-1.424 2.19-3.422 2.191-5.73-1e-3 -2.346-0.853-4.375-2.2-5.817-1.352-1.439-3.168-2.291-5.252-2.295h-20.641c-2.861-1e-3 -5.176-2.318-5.176-5.176v-0.987c0-2.857 2.315-5.174 5.176-5.174h20.641c5.169 0 9.904 2.253 13.322 5.784 3.42 3.534 5.576 8.384 5.578 13.665-2e-3 5.255-2.161 10.08-5.582 13.591-3.42 3.509-8.153 5.745-13.318 5.746h-6.919c-2.22 6e-3 -4.076 0.823-5.412 2.153-1.328 1.336-2.146 3.191-2.15 5.412 6e-3 2.287 0.809 4.129 2.117 5.443 1.315 1.309 3.157 2.111 5.445 2.118h14.715c2.858 2e-3 5.174 2.316 5.174 5.175v0.989c0 2.859-2.316 5.172-5.174 5.173z" fill="url(#linearGradient156)"/></g><g clip-path="url(#clipPath168)"><path d="m293.63 118.88c-2.859-1e-3 -5.172-2.317-5.172-5.173v-54.902c2e-3 -2.854 2.31-5.171 5.172-5.174h1.097c2.862 3e-3 5.171 2.32 5.172 5.174v54.902c-1e-3 2.856-2.313 5.171-5.172 5.173z" fill="url(#linearGradient176)"/></g><g clip-path="url(#clipPath188)"><path d="m255 118.88c-10.427-4e-3 -18.895-8.473-18.899-18.898 4e-3 -10.428 8.472-18.897 18.899-18.9h6.919c2.09-5e-3 3.91-0.85 5.259-2.272 1.344-1.424 2.19-3.421 2.192-5.73 0-2.346-0.853-4.375-2.199-5.817-1.353-1.439-3.168-2.291-5.252-2.295h-20.644c-2.859-2e-3 -5.172-2.316-5.174-5.176v-0.987c2e-3 -2.858 2.316-5.172 5.174-5.174h20.644c5.169 0 9.902 2.253 13.32 5.787 3.42 3.531 5.574 8.382 5.576 13.662-2e-3 5.255-2.158 10.08-5.58 13.591-3.42 3.509-8.15 5.745-13.316 5.746h-6.919c-2.22 6e-3 -4.076 0.823-5.411 2.153-1.33 1.336-2.146 3.191-2.149 5.412 5e-3 2.287 0.809 4.129 2.116 5.443 1.314 1.309 3.158 2.111 5.444 2.118h14.715c2.858 2e-3 5.173 2.318 5.175 5.177v0.987c-4e-3 2.859-2.317 5.169-5.175 5.173z" fill="url(#linearGradient196)"/></g><g clip-path="url(#clipPath208)"><path d="m194.81 115.8-27.45-54.904c-0.364-0.727-0.547-1.52-0.547-2.312 0-0.945 0.261-1.892 0.778-2.724 0.938-1.521 2.602-2.451 4.399-2.451h0.987c1.962 0 3.751 1.108 4.626 2.86l21.834 43.578 21.838-43.58c0.876-1.749 2.665-2.858 4.625-2.858h0.99c1.796 0 3.457 0.931 4.4 2.455 0.511 0.832 0.772 1.776 0.772 2.722 0 0.79-0.181 1.583-0.545 2.31l-27.45 54.903-1.788-0.894 1.787 0.895c-0.878 1.752-2.668 2.859-4.629 2.859-1.959-2e-3 -3.747-1.107-4.627-2.859" fill="url(#linearGradient216)"/></g><g clip-path="url(#clipPath228)"><path d="m119.45 118.88c-2.86-1e-3 -5.174-2.314-5.177-5.173v-54.902c3e-3 -2.857 2.314-5.171 5.177-5.174h37.958c2.859 3e-3 5.174 2.316 5.177 5.174v0.989c-2e-3 2.859-2.32 5.172-5.177 5.174h-31.794v16.114h31.608c2.86 2e-3 5.173 2.315 5.176 5.174v0.987c-3e-3 2.86-2.317 5.173-5.176 5.174h-31.608v15.126h31.794c2.859 2e-3 5.175 2.316 5.177 5.177v0.987c-2e-3 2.859-2.32 5.171-5.177 5.173z" fill="url(#linearGradient236)"/></g><g clip-path="url(#clipPath248)"><path d="m55.141 111.49 8.518-17 8.517 17z" fill="url(#radialGradient256)"/></g></g></svg>
